STARTFONT 2.1
FONT -Baekmuk-Headline-Medium-R-Normal--20-200-75-75-M-200-ksx1001.1997-0
SIZE 20 75 75
FONTBOUNDINGBOX 24 20 -2 -4
STARTPROPERTIES 18
FOUNDRY "Baekmuk"
FAMILY_NAME "Headline"
WEIGHT_NAME "Medium"
SLANT "R"
SETWIDTH_NAME "Normal"
ADD_STYLE_NAME ""
PIXEL_SIZE 20
POINT_SIZE 200
RESOLUTION_X 75
RESOLUTION_Y 75
SPACING "M"
AVERAGE_WIDTH 200
CHARSET_REGISTRY "ksx1001.1997"
CHARSET_ENCODING "0"
DEFAULT_CHAR 8481
FONT_ASCENT 16
FONT_DESCENT 4
COPYRIGHT "(c)Hwan Design Inc. and Mizi Research Inc."
ENDPROPERTIES
CHARS 8224
STARTCHAR 3000
ENCODING 8481
SWIDTH 2400 0
DWIDTH 24 0
BBX 0 0 0 0
BITMAP
ENDCHAR
STARTCHAR 3001
ENCODING 8482
SWIDTH 2400 0
DWIDTH 24 0
BBX 4 4 13 12
BITMAP
E0
60
30
10
ENDCHAR
STARTCHAR 3002
ENCODING 8483
SWIDTH 2400 0
DWIDTH 24 0
BBX 5 5 3 11
BITMAP
70
F8
D8
F8
20
ENDCHAR
STARTCHAR 00B7
ENCODING 8484
SWIDTH 2400 0
DWIDTH 24 0
BBX 4 2 8 6
BITMAP
F0
F0
ENDCHAR
STARTCHAR 2025
ENCODING 8485
SWIDTH 2400 0
DWIDTH 24 0
BBX 12 2 4 6
BITMAP
F0F0
F0F0
ENDCHAR
STARTCHAR 2026
ENCODING 8486
SWIDTH 2400 0
DWIDTH 24 0
BBX 16 2 2 6
BITMAP
F3CF
F3CF
ENDCHAR
STARTCHAR 00A8
ENCODING 8487
SWIDTH 2400 0
DWIDTH 24 0
BBX 12 2 4 14
BITMAP
F0F0
F0F0
ENDCHAR
STARTCHAR 3003
ENCODING 8488
SWIDTH 2400 0
DWIDTH 24 0
BBX 10 8 5 3
BITMAP
6100
79C0
71C0
6180
6300
4300
8200
8400
ENDCHAR
STARTCHAR 00AD
ENCODING 8489
SWIDTH 2400 0
DWIDTH 24 0
BBX 10 2 5 5
BITMAP
FFC0
FFC0
ENDCHAR
STARTCHAR 2015
ENCODING 8490
SWIDTH 2400 0
DWIDTH 24 0
BBX 12 2 4 5
BITMAP
FFF0
FFF0
ENDCHAR
STARTCHAR 2225
ENCODING 8491
SWIDTH 2400 0
DWIDTH 24 0
BBX 6 13 7 -1
BITMAP
FC
FC
FC
FC
FC
FC
FC
FC
FC
FC
FC
FC
FC
ENDCHAR
STARTCHAR FF3C
ENCODING 8492
SWIDTH 2400 0
DWIDTH 24 0
BBX 16 18 2 -3
BITMAP
4000
E000
7000
3800
1C00
1E00
0E00
0700
0380
01C0
00E0
0070
0078
0038
001C
000E
0007
0002
ENDCHAR
STARTCHAR 223C
ENCODING 8493
SWIDTH 2400 0
DWIDTH 24 0
BBX 14 4 3 4
BITMAP
1E08
FFFC
7FFC
40F0
ENDCHAR
STARTCHAR 2018
ENCODING 8494
SWIDTH 2400 0
DWIDTH 24 0
BBX 3 5 12 11
BITMAP
20
40
E0
E0
40
ENDCHAR
STARTCHAR 2019
ENCODING 8495
SWIDTH 2400 0
DWIDTH 24 0
BBX 3 4 4 12
BITMAP
40
E0
E0
60
ENDCHAR
STARTCHAR 201C
ENCODING 8496
SWIDTH 2400 0
DWIDTH 24 0
BBX 7 4 11 11
BITMAP
CC
EE
EE
44
ENDCHAR
STARTCHAR 201D
ENCODING 8497
SWIDTH 2400 0
DWIDTH 24 0
BBX 8 4 2 12
BITMAP
66
F7
77
62
ENDCHAR
STARTCHAR 3014
ENCODING 8498
SWIDTH 2400 0
DWIDTH 24 0
BBX 7 19 12 -3
BITMAP
0C
FE
FC
F0
F0
F0
F0
F0
F0
F0
F0
F0
F0
F0
F0
F0
FC
FE
0C
ENDCHAR
STARTCHAR 3015
ENCODING 8499
SWIDTH 2400 0
DWIDTH 24 0
BBX 7 19 2 -3
BITMAP
60
FE
7E
1E
1E
1E
1E
1E
1E
1E
1E
1E
1E
1E
1E
1E
FE
FE
60
ENDCHAR
STARTCHAR 3008
ENCODING 8500
SWIDTH 2400 0
DWIDTH 24 0
BBX 7 18 10 -3
BITMAP
06
0E
0E
1C
38
38
70
F0
E0
E0
F0
70
38
3C
1C
0E
0E
06
ENDCHAR
STARTCHAR 3009
ENCODING 8501
SWIDTH 2400 0
DWIDTH 24 0
BBX 8 18 2 -3
BITMAP
60
E0
70
38
38
1C
1E
0E
07
07
0E
0E
1C
3C
38
70
70
60
ENDCHAR
STARTCHAR 300A
ENCODING 8502
SWIDTH 2400 0
DWIDTH 24 0
BBX 14 19 4 -3
BITMAP
0200
0398
073C
0E38
1E70
1CE0
39E0
79C0
7380
E780
F780
7380
39C0
1DE0
1EE0
0E70
0778
07BC
0218
ENDCHAR
STARTCHAR 300B
ENCODING 8503
SWIDTH 2400 0
DWIDTH 24 0
BBX 14 20 2 -4
BITMAP
0100
6700
F380
73C0
39C0
1CE0
1EF0
0E70
0738
07BC
07BC
0738
0E70
1EF0
3CE0
39C0
71C0
F380
6700
0100
ENDCHAR
STARTCHAR 300C
ENCODING 8504
SWIDTH 2400 0
DWIDTH 24 0
BBX 10 10 8 6
BITMAP
FFC0
FFC0
F000
F000
F000
F000
F000
F000
F000
F000
ENDCHAR
STARTCHAR 300D
ENCODING 8505
SWIDTH 2400 0
DWIDTH 24 0
BBX 10 10 2 -4
BITMAP
03C0
03C0
03C0
03C0
03C0
03C0
03C0
03C0
FFC0
FFC0
ENDCHAR
STARTCHAR 300E
ENCODING 8506
SWIDTH 2400 0
DWIDTH 24 0
BBX 9 10 11 6
BITMAP
FF80
8080
8080
9F80
9000
9000
9000
9000
9000
F000
ENDCHAR
STARTCHAR 300F
ENCODING 8507
SWIDTH 2400 0
DWIDTH 24 0
BBX 9 10 0 -4
BITMAP
0780
0480
0480
0480
0480
0480
FC80
8080
8180
FF00
ENDCHAR
STARTCHAR 3010
ENCODING 8508
SWIDTH 2400 0
DWIDTH 24 0
BBX 7 18 11 -3
BITMAP
FE
FC
F8
F8
F0
F0
F0
F0
F0
F0
F0
F0
F0
F8
F8
F8
FC
FE
ENDCHAR
STARTCHAR 3011
ENCODING 8509
SWIDTH 2400 0
DWIDTH 24 0
BBX 7 18 2 -3
BITMAP
FE
7E
3E
3E
1E
1E
1E
1E
1E
1E
1E
1E
1E
3E
3E
3E
7E
FE
ENDCHAR
STARTCHAR 00B1
ENCODING 8510
SWIDTH 2400 0
DWIDTH 24 0
BBX 15 12 2 0
BITMAP
0780
0780
0780
0780
FFFC
FFFC
0780
0780
0780
0780
3FFE
3FFE
ENDCHAR
STARTCHAR 00D7
ENCODING 8511
SWIDTH 2400 0
DWIDTH 24 0
BBX 12 12 4 0
BITMAP
4020
E070
70E0
39C0
1F80
0F00
0F00
1F80
39C0
70E0
E070
4020
ENDCHAR
STARTCHAR 00F7
ENCODING 8512
SWIDTH 2400 0
DWIDTH 24 0
BBX 13 12 3 0
BITMAP
0300
0780
0300
0000
0000
FFF8
FFF8
0000
0000
0300
0780
0300
ENDCHAR
STARTCHAR 2260
ENCODING 8513
SWIDTH 2400 0
DWIDTH 24 0
BBX 12 12 4 0
BITMAP
1000
3800
1C00
FFF0
FFF0
0E00
0700
FFF0
FFF0
01C0
01C0
00C0
ENDCHAR
STARTCHAR 2264
ENCODING 8514
SWIDTH 2400 0
DWIDTH 24 0
BBX 15 14 2 0
BITMAP
000C
007C
01F8
07E0
1F00
FC00
3F00
0FC0
03F0
007E
001C
0004
7FFE
7FFE
ENDCHAR
STARTCHAR 2265
ENCODING 8515
SWIDTH 2400 0
DWIDTH 24 0
BBX 15 14 3 0
BITMAP
6000
F800
7F00
0FC0
03F8
007E
01F8
07E0
1F80
7C00
7000
4000
FFFC
FFFC
ENDCHAR
STARTCHAR 221E
ENCODING 8516
SWIDTH 2400 0
DWIDTH 24 0
BBX 16 8 2 2
BITMAP
3E7C
7FFE
FBDF
F10F
F08F
FBDF
7FFE
3E3C
ENDCHAR
STARTCHAR 2234
ENCODING 8517
SWIDTH 2400 0
DWIDTH 24 0
BBX 14 12 3 0
BITMAP
0780
0780
0000
0000
0000
0000
0000
0000
0000
0000
F03C
F03C
ENDCHAR
STARTCHAR 00B0
ENCODING 8518
SWIDTH 2400 0
DWIDTH 24 0
BBX 5 5 3 11
BITMAP
20
F0
D8
F8
70
ENDCHAR
STARTCHAR 2032
ENCODING 8519
SWIDTH 2400 0
DWIDTH 24 0
BBX 5 5 3 11
BITMAP
20
38
70
40
80
ENDCHAR
STARTCHAR 2033
ENCODING 8520
SWIDTH 2400 0
DWIDTH 24 0
BBX 7 4 2 11
BITMAP
66
6E
C8
90
ENDCHAR
STARTCHAR 2103
ENCODING 8521
SWIDTH 2400 0
DWIDTH 24 0
BBX 16 15 3 -1
BITMAP
E000
F000
B0FC
F3FE
0F87
0F02
1E00
1E00
1E00
1E00
1F07
0F07
07FE
03FE
00F8
ENDCHAR
STARTCHAR 212B
ENCODING 8522
SWIDTH 2400 0
DWIDTH 24 0
BBX 14 16 3 0
BITMAP
0300
0780
0480
0780
0300
0300
0780
0FC0
0FC0
1CE0
1CE0
3FF0
3FF0
7038
E038
E01C
ENDCHAR
STARTCHAR FFE0
ENCODING 8523
SWIDTH 2400 0
DWIDTH 24 0
BBX 13 17 4 -3
BITMAP
0180
0380
0F80
3FE0
7FF0
7B60
F200
F200
F620
F638
7C70
7DF0
1FE0
3F80
3800
7000
1000
ENDCHAR
STARTCHAR FFE1
ENCODING 8524
SWIDTH 2400 0
DWIDTH 24 0
BBX 16 16 2 -1
BITMAP
0020
01F8
03FC
078E
0F06
0F00
0F00
3FFE
3FFE
0F00
0F00
7F00
FFC3
CFFF
FEFF
7C00
ENDCHAR
STARTCHAR FFE5
ENCODING 8525
SWIDTH 2400 0
DWIDTH 24 0
BBX 16 16 1 -2
BITMAP
7006
700E
381C
FFFF
FFFF
1FF0
0F30
07E0
07E0
FFFF
FFFF
03C0
03C0
03C0
03C0
03C0
ENDCHAR
STARTCHAR 2642
ENCODING 8526
SWIDTH 2400 0
DWIDTH 24 0
BBX 14 17 2 -2
BITMAP
0300
0780
1FC0
3FF0
F7B8
E79C
4788
0780
0780
0780
1FE0
3FF0
3FF0
3C70
3C70
1FE0
0FC0
ENDCHAR
STARTCHAR 2640
ENCODING 8527
SWIDTH 2400 0
DWIDTH 24 0
BBX 14 17 2 -3
BITMAP
0FC0
1FE0
3CF0
3CF0
3CF0
3FF0
1FE0
0780
0780
0780
FFFC
FFFC
0780
0780
0780
0780
0780
ENDCHAR
STARTCHAR 2220
ENCODING 8528
SWIDTH 2400 0
DWIDTH 24 0
BBX 15 13 2 0
BITMAP
0004
000E
001C
0038
0070
00E0
01C0
0380
0F00
1E00
3C00
7FFE
FFFE
ENDCHAR
STARTCHAR 22A5
ENCODING 8529
SWIDTH 2400 0
DWIDTH 24 0
BBX 16 13 1 0
BITMAP
03C0
03C0
03C0
03C0
03C0
03C0
03C0
03C0
03C0
03C0
03C0
FFFF
FFFF
ENDCHAR
STARTCHAR 2312
ENCODING 8530
SWIDTH 2400 0
DWIDTH 24 0
BBX 10 3 5 12
BITMAP
7F80
F380
E1C0
ENDCHAR
STARTCHAR 2202
ENCODING 8531
SWIDTH 2400 0
DWIDTH 24 0
BBX 10 13 5 0
BITMAP
0F80
3DC0
10C0
00C0
00C0
1FC0
3FC0
7380
6380
E700
E700
7E00
7C00
ENDCHAR
STARTCHAR 2207
ENCODING 8532
SWIDTH 2400 0
DWIDTH 24 0
BBX 18 13 1 0
BITMAP
FFFFC0
FFFFC0
600180
300300
380700
180600
0C0C00
061800
063800
033000
01E000
01C000
00C000
ENDCHAR
STARTCHAR 2261
ENCODING 8533
SWIDTH 2400 0
DWIDTH 24 0
BBX 16 10 2 1
BITMAP
FFFF
FFFF
0000
0000
FFFE
FFFE
0000
0000
FFFF
FFFF
ENDCHAR
STARTCHAR 2252
ENCODING 8534
SWIDTH 2400 0
DWIDTH 24 0
BBX 15 14 2 -1
BITMAP
3800
3800
3800
0000
FFFE
FFFE
0000
0000
FFFE
FFFE
0000
001C
001C
001C
ENDCHAR
STARTCHAR 00A7
ENCODING 8535
SWIDTH 2400 0
DWIDTH 24 0
BBX 12 17 4 -2
BITMAP
3E00
FF80
E7E0
C0F0
FC70
7F80
FFC0
C1E0
E0E0
7CE0
1FE0
47C0
C0E0
E060
70E0
3FE0
1FC0
ENDCHAR
STARTCHAR 203B
ENCODING 8536
SWIDTH 2400 0
DWIDTH 24 0
BBX 16 16 2 -2
BITMAP
0180
43C4
F18E
781C
3C38
1E70
6FF6
E7E7
E3C7
47E0
0FF0
1C38
381C
718E
E3C7
4180
ENDCHAR
STARTCHAR 2606
ENCODING 8537
SWIDTH 2400 0
DWIDTH 24 0
BBX 18 16 1 -2
BITMAP
008000
00C000
01C000
01E000
01E000
FF7FC0
3F3F00
180600
0E1800
061800
069800
0DEC00
0F3C00
0C0C00
180600
000200
ENDCHAR
STARTCHAR 2605
ENCODING 8538
SWIDTH 2400 0
DWIDTH 24 0
BBX 18 16 1 -2
BITMAP
008000
00C000
01C000
01C000
01E000
FFFFC0
7FFF80
1FFE00
0FFC00
07F800
07F800
0FF800
0F3C00
0C1C00
180600
000200
ENDCHAR
STARTCHAR 25CB
ENCODING 8539
SWIDTH 2400 0
DWIDTH 24 0
BBX 18 17 1 -2
BITMAP
03F000
0FFC00
3C0F00
300300
600180
E001C0
C000C0
C000C0
C000C0
C000C0
C000C0
600180
600180
300300
3C0F00
0FFC00
03F000
ENDCHAR
STARTCHAR 25CF
ENCODING 8540
SWIDTH 2400 0
DWIDTH 24 0
BBX 18 16 1 -2
BITMAP
07F000
1FFC00
3FFF00
7FFF80
7FFF80
FFFFC0
FFFFC0
FFFFC0
FFFFC0
FFFFC0
FFFFC0
7FFF80
7FFF80
3FFF00
1FFC00
07F000
ENDCHAR
STARTCHAR 25CE
ENCODING 8541
SWIDTH 2400 0
DWIDTH 24 0
BBX 18 18 1 -3
BITMAP
03F000
0FFC00
1C0E00
33F300
67F980
6E1D80
DC0EC0
D806C0
D806C0
D806C0
D806C0
DC0EC0
6E1D80
77FB80
33F700
1C0E00
0FFC00
03F000
ENDCHAR
STARTCHAR 25C7
ENCODING 8542
SWIDTH 2400 0
DWIDTH 24 0
BBX 18 17 1 -2
BITMAP
00C000
01E000
03F000
073800
0E1C00
1C0E00
380700
700380
C001C0
600180
300300
180600
0C0C00
061800
033000
01E000
00C000
ENDCHAR
STARTCHAR 25C6
ENCODING 8543
SWIDTH 2400 0
DWIDTH 24 0
BBX 18 17 1 -2
BITMAP
00C000
01E000
03F000
07F800
0FFC00
1FFE00
3FFF00
7FFF80
FFFFC0
7FFF80
3FFF00
1FFE00
0FFC00
07F800
03F000
01E000
00C000
ENDCHAR
STARTCHAR 25A1
ENCODING 8544
SWIDTH 2400 0
DWIDTH 24 0
BBX 18 16 1 -2
BITMAP
FFFFC0
FFFFC0
C000C0
C000C0
C000C0
C000C0
C000C0
C000C0
C000C0
C000C0
C000C0
C000C0
C000C0
C000C0
FFFFC0
FFFFC0
ENDCHAR
STARTCHAR 25A0
ENCODING 8545
SWIDTH 2400 0
DWIDTH 24 0
BBX 18 16 1 -2
BITMAP
FFFFC0
FFFFC0
FFFFC0
FFFFC0
FFFFC0
FFFFC0
FFFFC0
FFFFC0
FFFFC0
FFFFC0
FFFFC0
FFFFC0
FFFFC0
FFFFC0
FFFFC0
FFFFC0
ENDCHAR
STARTCHAR 25B3
ENCODING 8546
SWIDTH 2400 0
DWIDTH 24 0
BBX 18 13 1 -1
BITMAP
00C000
01E000
01E000
033000
061800
061800
0C0C00
180600
300600
300300
600180
FFFFC0
FFFFC0
ENDCHAR
STARTCHAR 25B2
ENCODING 8547
SWIDTH 2400 0
DWIDTH 24 0
BBX 18 12 1 0
BITMAP
00C000
01E000
03F000
03F000
07F800
0FFC00
1FFC00
1FFE00
3FFF00
7FFF80
FFFF80
FFFFC0
ENDCHAR
STARTCHAR 25BD
ENCODING 8548
SWIDTH 2400 0
DWIDTH 24 0
BBX 18 13 1 0
BITMAP
FFFFC0
FFFFC0
600180
300300
300300
180600
0C0C00
0C0800
061800
033000
01E000
01E000
00C000
ENDCHAR
STARTCHAR 25BC
ENCODING 8549
SWIDTH 2400 0
DWIDTH 24 0
BBX 18 12 1 0
BITMAP
FFFFC0
7FFFC0
7FFF80
3FFF00
1FFE00
1FFE00
0FFC00
07F800
03F000
03F000
01E000
00C000
ENDCHAR
STARTCHAR 2192
ENCODING 8550
SWIDTH 2400 0
DWIDTH 24 0
BBX 18 6 1 3
BITMAP
000400
000700
FFFFC0
FFFFC0
000700
000400
ENDCHAR
STARTCHAR 2190
ENCODING 8551
SWIDTH 2400 0
DWIDTH 24 0
BBX 18 6 1 3
BITMAP
080000
300000
FFFFC0
FFFFC0
300000
080000
ENDCHAR
STARTCHAR 2191
ENCODING 8552
SWIDTH 2400 0
DWIDTH 24 0
BBX 8 17 6 -3
BITMAP
18
3C
3C
7E
99
18
18
18
18
18
18
18
18
18
18
18
18
ENDCHAR
STARTCHAR 2193
ENCODING 8553
SWIDTH 2400 0
DWIDTH 24 0
BBX 8 17 5 -3
BITMAP
3C
3C
3C
3C
3C
3C
3C
3C
3C
3C
3C
3C
FF
7E
3C
18
08
ENDCHAR
STARTCHAR 2194
ENCODING 8554
SWIDTH 2400 0
DWIDTH 24 0
BBX 18 6 1 3
BITMAP
180400
300700
FFFFC0
FFFF80
300700
180400
ENDCHAR
STARTCHAR 3013
ENCODING 8555
SWIDTH 2400 0
DWIDTH 24 0
BBX 18 8 1 2
BITMAP
FFFFC0
FFFFC0
000000
000000
000000
000000
FFFFC0
FFFFC0
ENDCHAR
STARTCHAR 226A
ENCODING 8556
SWIDTH 2400 0
DWIDTH 24 0
BBX 17 19 2 -3
BITMAP
000200
00C780
01CF00
039E00
073C00
0E7800
1CF000
39E000
73C000
E78000
F38000
79E000
3CF000
1E7800
0F3C00
079E00
03CF00
00E700
004000
ENDCHAR
STARTCHAR 226B
ENCODING 8557
SWIDTH 2400 0
DWIDTH 24 0
BBX 17 19 2 -3
BITMAP
020000
E70000
F38000
79C000
3CE000
1E7000
0F3800
079E00
03CF00
01E780
03CF00
079E00
0F3800
1E7000
3CE000
79C000
F38000
E70000
420000
ENDCHAR
STARTCHAR 221A
ENCODING 8558
SWIDTH 2400 0
DWIDTH 24 0
BBX 18 19 1 -3
BITMAP
007FC0
007FC0
00E000
00E000
00C000
01C000
018000
018000
038000
030000
230000
F60000
F60000
FE0000
3C0000
1C0000
180000
080000
080000
ENDCHAR
STARTCHAR 223D
ENCODING 8559
SWIDTH 2400 0
DWIDTH 24 0
BBX 20 9 -1 1
BITMAP
0F8780
3FDFE0
7F99F0
F030F0
F060F0
F060F0
F8D9F0
7FBFE0
3F1F80
ENDCHAR
STARTCHAR 221D
ENCODING 8560
SWIDTH 2400 0
DWIDTH 24 0
BBX 18 10 -1 1
BITMAP
1F0FC0
7F9FC0
7DFFC0
F07800
F03000
F03000
F07800
7DFFC0
7F9FC0
1F0F80
ENDCHAR
STARTCHAR 2235
ENCODING 8561
SWIDTH 2400 0
DWIDTH 24 0
BBX 14 12 3 0
BITMAP
601C
E01C
E01C
0000
0000
0000
0000
0000
0000
0780
0780
0300
ENDCHAR
STARTCHAR 222B
ENCODING 8562
SWIDTH 2400 0
DWIDTH 24 0
BBX 11 17 4 -3
BITMAP
03C0
07E0
0740
0E00
0E00
0E00
0E00
1E00
1E00
1E00
1E00
1E00
1C00
5C00
FC00
F800
7000
ENDCHAR
STARTCHAR 222C
ENCODING 8563
SWIDTH 2400 0
DWIDTH 24 0
BBX 17 17 2 -3
BITMAP
03CF00
07FF80
075D00
0E3800
0E3800
0E3800
0E3800
1E7800
1E7800
1E7800
1E7800
1C7800
1C7000
5D7000
FFF000
FBE000
71C000
ENDCHAR
STARTCHAR 2208
ENCODING 8564
SWIDTH 2400 0
DWIDTH 24 0
BBX 14 10 3 1
BITMAP
3FFC
7FFC
E000
C000
FFFC
FFFC
C000
E000
7FFC
3FFC
ENDCHAR
STARTCHAR 220B
ENCODING 8565
SWIDTH 2400 0
DWIDTH 24 0
BBX 15 10 2 1
BITMAP
FFF8
FFFC
000E
0006
FFFE
FFFE
0006
0006
FFFC
FFF8
ENDCHAR
STARTCHAR 2286
ENCODING 8566
SWIDTH 2400 0
DWIDTH 24 0
BBX 14 12 3 0
BITMAP
0FFC
3FFC
7FFC
E000
E000
E000
7000
7FFC
1FFC
0000
FFFC
FFFC
ENDCHAR
STARTCHAR 2287
ENCODING 8567
SWIDTH 2400 0
DWIDTH 24 0
BBX 15 12 3 0
BITMAP
FF80
FFF8
FFFC
001E
001E
001E
003C
FFF8
FFE0
0000
FFF8
FFF8
ENDCHAR
STARTCHAR 2282
ENCODING 8568
SWIDTH 2400 0
DWIDTH 24 0
BBX 17 10 1 1
BITMAP
0FFF80
3FFF80
780000
F00000
F00000
F00000
F00000
780000
3FFF80
0FFF80
ENDCHAR
STARTCHAR 2283
ENCODING 8569
SWIDTH 2400 0
DWIDTH 24 0
BBX 17 10 2 1
BITMAP
FFFC00
FFFE00
000F00
000780
000780
000780
000780
000F00
FFFE00
FFFC00
ENDCHAR
STARTCHAR 222A
ENCODING 8570
SWIDTH 2400 0
DWIDTH 24 0
BBX 12 13 4 -1
BITMAP
F0F0
F0F0
F0F0
F0F0
F0F0
F0F0
F0F0
F0F0
F0F0
F0F0
79E0
7FE0
1F80
ENDCHAR
STARTCHAR 2229
ENCODING 8571
SWIDTH 2400 0
DWIDTH 24 0
BBX 12 14 4 -2
BITMAP
1F80
3FC0
79E0
F0F0
F0F0
F0F0
F0F0
F0F0
F0F0
F0F0
F0F0
F0F0
F0F0
00F0
ENDCHAR
STARTCHAR 2227
ENCODING 8572
SWIDTH 2400 0
DWIDTH 24 0
BBX 14 13 3 -1
BITMAP
0300
0300
0780
0780
0FC0
1CC0
1CE0
3860
3870
7038
7038
E01C
4018
ENDCHAR
STARTCHAR 2228
ENCODING 8573
SWIDTH 2400 0
DWIDTH 24 0
BBX 14 13 3 -1
BITMAP
6018
E01C
7038
7038
3870
3860
1CE0
1CC0
0FC0
0780
0780
0300
0300
ENDCHAR
STARTCHAR FFE2
ENCODING 8574
SWIDTH 2400 0
DWIDTH 24 0
BBX 16 12 3 1
BITMAP
FFFF
FFFF
000F
000F
000F
000F
000F
000F
000F
000F
000F
000F
ENDCHAR
STARTCHAR 21D2
ENCODING 8737
SWIDTH 2400 0
DWIDTH 24 0
BBX 16 10 2 1
BITMAP
0020
0070
003C
FFFE
000F
000F
FFFE
003C
0070
0020
ENDCHAR
STARTCHAR 21D4
ENCODING 8738
SWIDTH 2400 0
DWIDTH 24 0
BBX 18 10 1 1
BITMAP
040800
0E1C00
1C0F00
7FFF80
FFFFC0
FFFFC0
7FFF80
3C0F00
0E1C00
040800
ENDCHAR
STARTCHAR 2200
ENCODING 8739
SWIDTH 2400 0
DWIDTH 24 0
BBX 14 14 3 0
BITMAP
2010
E01C
7038
7038
3FF0
3FF0
3870
1CE0
1CE0
0FC0
0FC0
07C0
0780
0780
ENDCHAR
STARTCHAR 2203
ENCODING 8740
SWIDTH 2400 0
DWIDTH 24 0
BBX 13 13 3 0
BITMAP
FFF8
FFF8
0078
0078
0078
FFF8
FFF8
0078
0078
0078
0078
FFF8
FFF8
ENDCHAR
STARTCHAR 00B4
ENCODING 8741
SWIDTH 2400 0
DWIDTH 24 0
BBX 6 5 7 11
BITMAP
7C
78
70
C0
80
ENDCHAR
STARTCHAR FF5E
ENCODING 8742
SWIDTH 2400 0
DWIDTH 24 0
BBX 10 3 5 12
BITMAP
7E40
7FC0
C380
ENDCHAR
STARTCHAR 02C7
ENCODING 8743
SWIDTH 2400 0
DWIDTH 24 0
BBX 8 4 7 12
BITMAP
01
CE
7C
38
ENDCHAR
STARTCHAR 02D8
ENCODING 8744
SWIDTH 2400 0
DWIDTH 24 0
BBX 9 4 6 12
BITMAP
C380
E380
FF00
3E00
ENDCHAR
STARTCHAR 02DD
ENCODING 8745
SWIDTH 2400 0
DWIDTH 24 0
BBX 9 4 6 12
BITMAP
7780
6600
CC00
8800
ENDCHAR
STARTCHAR 02DA
ENCODING 8746
SWIDTH 2400 0
DWIDTH 24 0
BBX 5 5 8 11
BITMAP
70
F8
98
D8
70
ENDCHAR
STARTCHAR 02D9
ENCODING 8747
SWIDTH 2400 0
DWIDTH 24 0
BBX 5 5 8 11
BITMAP
70
F8
F8
F8
70
ENDCHAR
STARTCHAR 00B8
ENCODING 8748
SWIDTH 2400 0
DWIDTH 24 0
BBX 5 7 8 -3
BITMAP
E0
F8
38
38
F8
F0
C0
ENDCHAR
STARTCHAR 02DB
ENCODING 8749
SWIDTH 2400 0
DWIDTH 24 0
BBX 6 6 8 -3
BITMAP
3C
FC
C0
E0
F8
38
ENDCHAR
STARTCHAR 00A1
ENCODING 8750
SWIDTH 2400 0
DWIDTH 24 0
BBX 4 16 8 -2
BITMAP
60
70
70
00
60
60
60
70
70
70
70
70
70
70
F0
F0
ENDCHAR
STARTCHAR 00BF
ENCODING 8751
SWIDTH 2400 0
DWIDTH 24 0
BBX 10 17 5 -3
BITMAP
0300
0780
0300
0000
0700
0700
0700
0700
1F00
3F00
7800
7000
F1C0
71C0
7FC0
3F80
0C00
ENDCHAR
STARTCHAR 02D0
ENCODING 8752
SWIDTH 2400 0
DWIDTH 24 0
BBX 4 12 8 0
BITMAP
F0
F0
60
40
00
00
00
00
00
60
F0
F0
ENDCHAR
STARTCHAR 222E
ENCODING 8753
SWIDTH 2400 0
DWIDTH 24 0
BBX 15 16 3 -2
BITMAP
007C
01FE
03CE
03C6
03C0
0FF0
1FF8
1FDC
3FDC
1FF8
1FF8
03C0
03C0
63C0
FF80
3F00
ENDCHAR
STARTCHAR 2211
ENCODING 8754
SWIDTH 2400 0
DWIDTH 24 0
BBX 16 16 2 -2
BITMAP
FFFF
FFFF
7807
3C03
1E03
0E03
0700
0780
0380
0380
0700
0E00
1C00
3C00
7FFF
7FFF
ENDCHAR
STARTCHAR 220F
ENCODING 8755
SWIDTH 2400 0
DWIDTH 24 0
BBX 17 16 1 -2
BITMAP
FFFF80
1E3C00
1E3C00
1E3C00
1E3C00
1E3C00
1E3C00
1E3C00
1E3C00
1E3C00
1E3C00
1E3C00
1E3C00
1E3C00
1E3C00
1E3C00
ENDCHAR
STARTCHAR 00A4
ENCODING 8756
SWIDTH 2400 0
DWIDTH 24 0
BBX 19 18 1 -3
BITMAP
400040
E000E0
73F1C0
3FFF80
1F1F00
1E0F00
3C0780
3C0780
3C0780
3C0780
3C0780
1E0F00
1F1F00
3FFF00
71F380
E001C0
4000E0
000040
ENDCHAR
STARTCHAR 2109
ENCODING 8757
SWIDTH 2400 0
DWIDTH 24 0
BBX 18 16 1 -2
BITMAP
03FFC0
33FFC0
FBC000
DFC000
CFC000
FFC000
7BFF80
03FF80
03C000
03C000
03C000
03C000
03C000
03C000
03C000
03C000
ENDCHAR
STARTCHAR 2030
ENCODING 8758
SWIDTH 2400 0
DWIDTH 24 0
BBX 19 16 1 -2
BITMAP
181000
3C3000
7E6000
EEE000
CEC000
CD8000
DF0000
FFF1C0
77F3C0
0DB760
1BB6C0
3BBEC0
337CC0
63E780
C1C700
400000
ENDCHAR
STARTCHAR 25C1
ENCODING 8759
SWIDTH 2400 0
DWIDTH 24 0
BBX 14 16 3 -2
BITMAP
0004
001C
007C
00CC
038C
0E0C
380C
F00C
700C
1C0C
0E0C
038C
00EC
003C
001C
0004
ENDCHAR
STARTCHAR 25C0
ENCODING 8760
SWIDTH 2400 0
DWIDTH 24 0
BBX 14 16 3 -2
BITMAP
0004
001C
003C
00FC
03FC
0FFC
3FFC
FFFC
7FFC
1FFC
07FC
03FC
00FC
003C
000C
0004
ENDCHAR
STARTCHAR 25B7
ENCODING 8761
SWIDTH 2400 0
DWIDTH 24 0
BBX 14 17 3 -2
BITMAP
8000
C000
F000
FC00
CE00
C380
C1E0
C070
C01C
C038
C0E0
C180
C700
DC00
F000
E000
8000
ENDCHAR
STARTCHAR 25B6
ENCODING 8762
SWIDTH 2400 0
DWIDTH 24 0
BBX 14 17 3 -2
BITMAP
8000
E000
F000
FC00
FF00
FF80
FFE0
FFF8
FFFC
FFF8
FFE0
FFC0
FF00
FC00
F800
E000
8000
ENDCHAR
STARTCHAR 2664
ENCODING 8763
SWIDTH 2400 0
DWIDTH 24 0
BBX 15 16 2 -3
BITMAP
0180
03C0
0660
0C30
1818
3008
200C
6006
4006
C006
C3C6
7FFE
3EFC
0640
07E0
07E0
ENDCHAR
STARTCHAR 2660
ENCODING 8764
SWIDTH 2400 0
DWIDTH 24 0
BBX 14 15 3 -2
BITMAP
0300
0780
1FC0
3FE0
3FF0
7FF8
FFF8
FFFC
FFFC
FFFC
FFF8
7FF8
3F80
0FC0
0FC0
ENDCHAR
STARTCHAR 2661
ENCODING 8765
SWIDTH 2400 0
DWIDTH 24 0
BBX 16 16 2 -2
BITMAP
3E7C
7FFE
63C6
C1C3
C183
4002
6006
6006
2004
300C
1818
0830
0420
0660
03C0
0180
ENDCHAR
STARTCHAR 2665
ENCODING 8766
SWIDTH 2400 0
DWIDTH 24 0
BBX 16 16 2 -2
BITMAP
3E7C
7FFE
7FFE
FFFF
7FFE
7FFE
7FFE
3FFC
3FFC
1FF8
1FF8
0FF0
07E0
03E0
03C0
0180
ENDCHAR
STARTCHAR 2667
ENCODING 8767
SWIDTH 2400 0
DWIDTH 24 0
BBX 17 17 2 -2
BITMAP
03E000
07F000
0E3800
0C1800
0C1800
0C1800
067000
7F7E00
FF7F00
C32180
C00180
C14180
C36380
FF7F00
7F5E00
03E000
07E000
ENDCHAR
STARTCHAR 2663
ENCODING 8768
SWIDTH 2400 0
DWIDTH 24 0
BBX 18 16 1 -2
BITMAP
01E000
03F800
07F800
07F800
07F800
03F800
3DEF00
7FFF80
FFFFC0
FFFFC0
FFFFC0
7FFF80
3FFF00
01E000
03E000
03E000
ENDCHAR
STARTCHAR 2299
ENCODING 8769
SWIDTH 2400 0
DWIDTH 24 0
BBX 18 17 1 -2
BITMAP
03F000
1C0C00
300300
60C180
47F080
CFF8C0
8FFC40
9FFC40
9FFC40
9FFC40
8FFC40
CFFCC0
47F880
61E180
300300
1C0C00
03F000
ENDCHAR
STARTCHAR 25C8
ENCODING 8770
SWIDTH 2400 0
DWIDTH 24 0
BBX 19 17 1 -2
BITMAP
004000
01E000
033000
061800
0CEC00
1BF600
37FB00
6FFD80
DFFE60
CFFCC0
27F900
13F200
09E400
04C800
031000
01E000
004000
ENDCHAR
STARTCHAR 25A3
ENCODING 8771
SWIDTH 2400 0
DWIDTH 24 0
BBX 17 16 2 -2
BITMAP
FFFF80
FFFF80
800080
9FFC80
9FFC80
9FFC80
9FFC80
9FFC80
9FFC80
9FFC80
9FFC80
9FFC80
9FFC80
9FFC80
800080
FFFF80
ENDCHAR
STARTCHAR 25D0
ENCODING 8772
SWIDTH 2400 0
DWIDTH 24 0
BBX 19 17 0 -2
BITMAP
03F800
0FC600
1FC180
3FC080
7FC040
7FC040
7FC020
FFC020
FFC020
FFC020
7FC020
7FC040
7FC040
3FC080
1FC180
0FC600
03F800
ENDCHAR
STARTCHAR 25D1
ENCODING 8773
SWIDTH 2400 0
DWIDTH 24 0
BBX 19 17 1 -2
BITMAP
03F800
0C7E00
307F00
207F80
407FC0
407FC0
807FC0
807FE0
807FE0
807FE0
807FC0
407FC0
407FC0
207F80
307F00
0C7E00
03F800
ENDCHAR
STARTCHAR 2592
ENCODING 8774
SWIDTH 2400 0
DWIDTH 24 0
BBX 18 16 1 -2
BITMAP
FFFFC0
A493C0
B6DBC0
8924C0
9B66C0
A69BC0
B6DBC0
9924C0
9B66C0
B6DBC0
B6DBC0
9924C0
9B66C0
B6DBC0
B6DBC0
FFFFC0
ENDCHAR
STARTCHAR 25A4
ENCODING 8775
SWIDTH 2400 0
DWIDTH 24 0
BBX 19 18 1 -3
BITMAP
FFFFE0
FFFFE0
FFFFE0
FFFFE0
C00060
FFFFE0
FFFFE0
C00060
FFFFE0
FFFFE0
FFFFE0
FFFFE0
C00060
FFFFE0
FFFFE0
C00060
FFFFE0
FFFFE0
ENDCHAR
STARTCHAR 25A5
ENCODING 8776
SWIDTH 2400 0
DWIDTH 24 0
BBX 19 18 1 -3
BITMAP
FFFFE0
FFFFE0
DEDB60
DEDB60
DEDB60
DEDB60
DEDB60
DEDB60
DEDB60
DEDB60
DEDB60
DEDB60
DEDB60
DEDB60
DEDB60
DEDB60
FFFFE0
FFFFE0
ENDCHAR
STARTCHAR 25A8
ENCODING 8777
SWIDTH 2400 0
DWIDTH 24 0
BBX 19 18 1 -3
BITMAP
FFFFE0
FFFFE0
D99CE0
F33960
E67260
CCECE0
D999E0
F33360
E66660
CCCCE0
D999E0
F33360
E66660
CDCCE0
D3B9E0
E77360
FFFFE0
FFFFE0
ENDCHAR
STARTCHAR 25A7
ENCODING 8778
SWIDTH 2400 0
DWIDTH 24 0
BBX 19 18 1 -3
BITMAP
FFFFE0
FFFFE0
E67360
D3B9E0
C9CCE0
E6E660
F37360
D999E0
CCCCE0
E66660
F33360
D999E0
CCECE0
E77660
F3BB60
D9CCE0
FFFFE0
FFFFE0
ENDCHAR
STARTCHAR 25A6
ENCODING 8779
SWIDTH 2400 0
DWIDTH 24 0
BBX 18 18 1 -3
BITMAP
FFFFC0
FFFFC0
DBDB40
FFFFC0
FFFFC0
FFFFC0
FFFFC0
DBDB40
FFFFC0
FFFFC0
DBDB40
FFFFC0
FFFFC0
FFFFC0
FFFFC0
DBDB40
DBDB40
FFFFC0
ENDCHAR
STARTCHAR 25A9
ENCODING 8780
SWIDTH 2400 0
DWIDTH 24 0
BBX 18 18 1 -3
BITMAP
FFFFC0
FFFFC0
FFFBC0
F3BBC0
FFEEC0
CEEEC0
FFBBC0
FBBBC0
FFEEC0
EEEEC0
FBBBC0
FBBBC0
CEEEC0
FEEEC0
F3BBC0
FFBBC0
FFFFC0
FFFFC0
ENDCHAR
STARTCHAR 2668
ENCODING 8781
SWIDTH 2400 0
DWIDTH 24 0
BBX 21 17 0 -2
BITMAP
006400
01EC00
03EC00
03FC00
07FC00
03EC00
03FC00
03FE00
03FE00
0FFEC0
3FEC70
73EC38
F3C818
F2C838
7E81F0
1FFFE0
03FF00
ENDCHAR
STARTCHAR 260F
ENCODING 8782
SWIDTH 2400 0
DWIDTH 24 0
BBX 20 14 0 -2
BITMAP
07FE00
3E03C0
6EF760
4AB530
DA4510
FEF6F0
050A00
0A0500
120480
120480
3108C0
20F040
3FFFC0
3FFFC0
ENDCHAR
STARTCHAR 260E
ENCODING 8783
SWIDTH 2400 0
DWIDTH 24 0
BBX 20 13 0 -1
BITMAP
07FF00
3FFFC0
7E0FE0
FA0DF0
FFFDF0
770EE0
0C0300
1C0380
1C0380
3E03C0
3F0FC0
3FFFC0
3FFFC0
ENDCHAR
STARTCHAR 261C
ENCODING 8784
SWIDTH 2400 0
DWIDTH 24 0
BBX 19 9 1 1
BITMAP
1FFEE0
E07BE0
FF80A0
0EF8A0
1F7CA0
0FB6A0
0FD3E0
03FFE0
01FC00
ENDCHAR
STARTCHAR 261E
ENCODING 8785
SWIDTH 2400 0
DWIDTH 24 0
BBX 19 9 0 1
BITMAP
EFFF00
FBC0E0
A03FE0
A3EE00
A7DF00
ADBE00
F97E00
FFF800
07F000
ENDCHAR
STARTCHAR 00B6
ENCODING 8786
SWIDTH 2400 0
DWIDTH 24 0
BBX 11 18 5 -3
BITMAP
1FE0
7FE0
7FE0
FFE0
FFE0
FFE0
FFE0
7FE0
3FE0
0FE0
0FE0
0FE0
0FE0
0FE0
0FE0
0FE0
0FE0
0FE0
ENDCHAR
STARTCHAR 2020
ENCODING 8787
SWIDTH 2400 0
DWIDTH 24 0
BBX 12 16 5 -2
BITMAP
0F00
0F00
0F00
0F00
FFF0
FFF0
0F00
0F00
0F00
0F00
0F00
0F00
0F00
0F00
0F00
0F00
ENDCHAR
STARTCHAR 2021
ENCODING 8788
SWIDTH 2400 0
DWIDTH 24 0
BBX 12 16 5 -2
BITMAP
0F00
0F00
FFF0
FFF0
0F00
0F00
FFF0
FFF0
0F00
0F00
0F00
0F00
0F00
0F00
0F00
0F00
ENDCHAR
STARTCHAR 2195
ENCODING 8789
SWIDTH 2400 0
DWIDTH 24 0
BBX 6 16 7 -1
BITMAP
10
30
78
FC
30
30
30
30
30
30
30
30
30
FC
78
30
ENDCHAR
STARTCHAR 2197
ENCODING 8790
SWIDTH 2400 0
DWIDTH 24 0
BBX 17 16 1 -2
BITMAP
001F80
000780
000780
000F80
001C80
003800
007000
00E000
01C000
038000
070000
0E0000
3C0000
700000
E00000
400000
ENDCHAR
STARTCHAR 2199
ENCODING 8791
SWIDTH 2400 0
DWIDTH 24 0
BBX 18 16 1 -2
BITMAP
000080
0001C0
000780
000F00
001E00
003C00
007000
00E000
01C000
038000
070000
4E0000
5C0000
780000
F00000
FE0000
ENDCHAR
STARTCHAR 2196
ENCODING 8792
SWIDTH 2400 0
DWIDTH 24 0
BBX 17 16 1 -2
BITMAP
E00000
FC0000
F00000
F80000
DC0000
8E0000
070000
018000
00E000
007000
003800
001C00
000E00
000700
000380
000100
ENDCHAR
STARTCHAR 2198
ENCODING 8793
SWIDTH 2400 0
DWIDTH 24 0
BBX 17 15 2 -2
BITMAP
C00000
E00000
700000
3C0000
1E0000
0F0000
038000
01C000
00E000
007000
003900
001D00
000F80
000F80
003F80
ENDCHAR
STARTCHAR 266D
ENCODING 8794
SWIDTH 2400 0
DWIDTH 24 0
BBX 10 16 7 -2
BITMAP
F000
F000
F000
F000
F000
F000
FF00
FF80
FBC0
F1C0
F1C0
F180
F380
F700
FC00
F000
ENDCHAR
STARTCHAR 2669
ENCODING 8795
SWIDTH 2400 0
DWIDTH 24 0
BBX 8 17 6 -3
BITMAP
0F
0F
0F
0F
0F
0F
0F
0F
0F
0F
0F
0F
0F
3F
7F
FE
70
ENDCHAR
STARTCHAR 266A
ENCODING 8796
SWIDTH 2400 0
DWIDTH 24 0
BBX 10 17 6 -2
BITMAP
2000
3800
3E00
3F00
3F80
3BC0
38C0
38C0
38C0
3980
3B80
3A00
3800
3800
F800
F000
F000
ENDCHAR
STARTCHAR 266C
ENCODING 8797
SWIDTH 2400 0
DWIDTH 24 0
BBX 17 17 3 -3
BITMAP
000780
0FFF80
1FC780
1C0780
1DFF80
1FFF80
1FC780
1C0780
1C0780
1C0780
1C0780
1C0F80
1C3F80
7C3F00
FC3E00
F80000
E00000
ENDCHAR
STARTCHAR 327F
ENCODING 8798
SWIDTH 2400 0
DWIDTH 24 0
BBX 18 16 1 -2
BITMAP
03F800
0FFE00
1E0F00
380380
300180
63DDC0
63F800
7FFFC0
7FFFC0
03DBC0
C3DF80
E00700
700E00
381C00
1FF800
07E000
ENDCHAR
STARTCHAR 321C
ENCODING 8799
SWIDTH 2400 0
DWIDTH 24 0
BBX 21 16 -1 -2
BITMAP
0800C0
1FFFE0
3BFFE0
7BFFF0
71FC70
F3CF78
F787F8
F30378
F00078
FFFFF8
FFFFF8
707870
7878F0
3878F0
3878E0
1800E0
ENDCHAR
STARTCHAR 2116
ENCODING 8800
SWIDTH 2400 0
DWIDTH 24 0
BBX 21 14 -1 0
BITMAP
F0C000
F0C000
F8C000
F8C7C0
FCCFC0
FCD860
F6D860
F6D870
F3D870
F3D860
F1DC60
F1CCE0
F1CFF8
F0C318
ENDCHAR
STARTCHAR 33C7
ENCODING 8801
SWIDTH 2400 0
DWIDTH 24 0
BBX 20 15 0 0
BITMAP
040000
1F8000
3FC000
70C000
600000
E00F00
E03FC0
E079E0
E0F0F0
60F0F0
60F0F0
70F0F0
71F9E0
3FBFE0
1F1FB0
ENDCHAR
STARTCHAR 2122
ENCODING 8802
SWIDTH 2400 0
DWIDTH 24 0
BBX 20 14 1 0
BITMAP
FFF070
FFF070
1EF8F0
1EF8F0
1EFCF0
1EFDF0
1EFDF0
1EFFF0
1EFFF0
1EFFF0
1EF7F0
1EF6F0
1EF6F0
1EF6F0
ENDCHAR
STARTCHAR 33C2
ENCODING 8803
SWIDTH 2400 0
DWIDTH 24 0
BBX 20 8 0 0
BITMAP
F83FE0
FC3FE0
8C3FE0
7C3FE0
FC3FE0
CC3FE0
FCBFF0
7CBFF0
ENDCHAR
STARTCHAR 33D8
ENCODING 8804
SWIDTH 2400 0
DWIDTH 24 0
BBX 19 11 1 -3
BITMAP
FFFE00
FFFF00
F3FF00
F1FF00
FFFF00
FFFF00
FEFF40
F3FF60
F00000
F00000
F00000
ENDCHAR
STARTCHAR 2121
ENCODING 8805
SWIDTH 2400 0
DWIDTH 24 0
BBX 18 14 1 0
BITMAP
FFC3C0
FFC3C0
1E03C0
1E03C0
1E73C0
1FFFC0
1F9FC0
1F8FC0
1FFFC0
1FFFC0
1F83C0
1FCFC0
1FFFC0
1EFBC0
ENDCHAR
STARTCHAR FF01
ENCODING 8993
SWIDTH 2400 0
DWIDTH 24 0
BBX 4 15 9 0
BITMAP
F0
F0
F0
F0
F0
F0
F0
F0
F0
F0
F0
F0
00
C0
C0
ENDCHAR
STARTCHAR FF02
ENCODING 8994
SWIDTH 2400 0
DWIDTH 24 0
BBX 8 5 7 11
BITMAP
FF
FF
FF
FF
77
ENDCHAR
STARTCHAR FF03
ENCODING 8995
SWIDTH 2400 0
DWIDTH 24 0
BBX 13 15 3 0
BITMAP
0E00
0E70
0E70
0E70
FFF8
FFF8
1CE0
1CE0
1CC0
FFF8
FFF8
39C0
39C0
3180
7380
ENDCHAR
STARTCHAR FF04
ENCODING 8996
SWIDTH 2400 0
DWIDTH 24 0
BBX 12 15 3 0
BITMAP
0F00
1F80
7FC0
FFE0
EF40
FF00
7F80
1FE0
0FF0
6F70
EF70
7FF0
3FE0
0F00
0F00
ENDCHAR
STARTCHAR FF05
ENCODING 8997
SWIDTH 2400 0
DWIDTH 24 0
BBX 18 15 1 0
BITMAP
781C00
FC1800
FE3800
F63000
F67000
FC6000
7CE000
01DF00
01FF80
03FBC0
03FBC0
077BC0
077F80
0E3F00
0E0000
ENDCHAR
STARTCHAR FF06
ENCODING 8998
SWIDTH 2400 0
DWIDTH 24 0
BBX 13 15 4 0
BITMAP
1E00
3F80
7180
7180
7B80
3F80
1E00
3E00
7F30
F3F0
E3F0
C1E0
E1F0
FFF8
7F10
ENDCHAR
STARTCHAR FF07
ENCODING 8999
SWIDTH 2400 0
DWIDTH 24 0
BBX 4 6 7 10
BITMAP
F0
F0
F0
F0
F0
60
ENDCHAR
STARTCHAR FF08
ENCODING 9000
SWIDTH 2400 0
DWIDTH 24 0
BBX 6 20 10 -4
BITMAP
1C
18
38
78
70
70
F0
F0
F0
F0
F0
F0
F0
F0
F0
70
78
38
38
1C
ENDCHAR
STARTCHAR FF09
ENCODING 9001
SWIDTH 2400 0
DWIDTH 24 0
BBX 6 20 2 -4
BITMAP
E0
60
70
78
38
38
3C
3C
3C
3C
3C
3C
3C
3C
3C
38
78
70
70
E0
ENDCHAR
STARTCHAR FF0A
ENCODING 9002
SWIDTH 2400 0
DWIDTH 24 0
BBX 8 7 6 3
BITMAP
18
18
18
FF
7E
3C
66
ENDCHAR
STARTCHAR FF0B
ENCODING 9003
SWIDTH 2400 0
DWIDTH 24 0
BBX 10 10 5 1
BITMAP
0C00
0C00
0C00
0C00
FFC0
FFC0
0C00
0C00
0C00
0C00
ENDCHAR
STARTCHAR FF0C
ENCODING 9004
SWIDTH 2400 0
DWIDTH 24 0
BBX 4 4 4 -3
BITMAP
E0
F0
20
40
ENDCHAR
STARTCHAR FF0D
ENCODING 9005
SWIDTH 2400 0
DWIDTH 24 0
BBX 8 2 6 5
BITMAP
FF
FF
ENDCHAR
STARTCHAR FF0E
ENCODING 9006
SWIDTH 2400 0
DWIDTH 24 0
BBX 4 3 4 -2
BITMAP
70
F0
70
ENDCHAR
STARTCHAR FF0F
ENCODING 9007
SWIDTH 2400 0
DWIDTH 24 0
BBX 7 14 6 0
BITMAP
0E
0E
0C
1C
1C
18
18
38
30
30
70
60
60
E0
ENDCHAR
STARTCHAR FF10
ENCODING 9008
SWIDTH 2400 0
DWIDTH 24 0
BBX 11 14 4 0
BITMAP
1F00
3F80
7BC0
71C0
F1E0
F1E0
F1E0
F1E0
F1E0
F1E0
71C0
7BC0
3F80
1F00
ENDCHAR
STARTCHAR FF11
ENCODING 9009
SWIDTH 2400 0
DWIDTH 24 0
BBX 7 14 6 0
BITMAP
1E
3E
FE
FE
9E
1E
1E
1E
1E
1E
1E
1E
1E
1E
ENDCHAR
STARTCHAR FF12
ENCODING 9010
SWIDTH 2400 0
DWIDTH 24 0
BBX 11 14 4 0
BITMAP
1F00
3FC0
71E0
70E0
00E0
01C0
03C0
0780
0F00
1E00
3C00
7800
7FE0
FFE0
ENDCHAR
STARTCHAR FF13
ENCODING 9011
SWIDTH 2400 0
DWIDTH 24 0
BBX 10 14 5 0
BITMAP
3E00
7F00
E380
6380
0380
1F00
1F00
1F80
03C0
01C0
E1C0
E380
7F00
3E00
ENDCHAR
STARTCHAR FF14
ENCODING 9012
SWIDTH 2400 0
DWIDTH 24 0
BBX 13 14 4 0
BITMAP
03E0
03E0
07E0
0FE0
0FE0
1DE0
39E0
79E0
71E0
FFF8
FFF8
01E0
01E0
01E0
ENDCHAR
STARTCHAR FF15
ENCODING 9013
SWIDTH 2400 0
DWIDTH 24 0
BBX 11 14 4 0
BITMAP
7FC0
7FC0
7000
7000
7F00
FF80
E3C0
01E0
01E0
01E0
E1E0
E3C0
7F80
3E00
ENDCHAR
STARTCHAR FF16
ENCODING 9014
SWIDTH 2400 0
DWIDTH 24 0
BBX 11 14 4 0
BITMAP
1F00
3FC0
79E0
70E0
F000
FF00
FFC0
F3C0
F1E0
F1E0
F1E0
79E0
7FC0
1F00
ENDCHAR
STARTCHAR FF17
ENCODING 9015
SWIDTH 2400 0
DWIDTH 24 0
BBX 10 14 5 0
BITMAP
FFC0
FFC0
0380
0700
0700
0E00
0C00
1C00
1C00
3800
3800
3800
3800
3000
ENDCHAR
STARTCHAR FF18
ENCODING 9016
SWIDTH 2400 0
DWIDTH 24 0
BBX 12 14 4 0
BITMAP
1F80
7FE0
71E0
71E0
71E0
7FE0
3FC0
7FE0
F0F0
F0F0
F0F0
F9F0
7FE0
1F80
ENDCHAR
STARTCHAR FF19
ENCODING 9017
SWIDTH 2400 0
DWIDTH 24 0
BBX 12 14 3 0
BITMAP
0780
1FE0
3CE0
3CF0
3CF0
3CF0
3CF0
1FF0
0FF0
00F0
20E0
F1E0
7FC0
3F00
ENDCHAR
STARTCHAR FF1A
ENCODING 9018
SWIDTH 2400 0
DWIDTH 24 0
BBX 4 12 8 0
BITMAP
F0
F0
60
00
00
00
00
00
00
60
F0
F0
ENDCHAR
STARTCHAR FF1B
ENCODING 9019
SWIDTH 2400 0
DWIDTH 24 0
BBX 4 13 8 -1
BITMAP
F0
F0
60
00
00
00
00
00
00
60
F0
F0
60
ENDCHAR
STARTCHAR FF1C
ENCODING 9020
SWIDTH 2400 0
DWIDTH 24 0
BBX 13 12 3 0
BITMAP
0008
0078
01F8
07E0
1F80
FE00
FC00
1F00
07E0
01F8
0078
0018
ENDCHAR
STARTCHAR FF1D
ENCODING 9021
SWIDTH 2400 0
DWIDTH 24 0
BBX 10 6 5 3
BITMAP
FFC0
FFC0
0000
0000
FFC0
FFC0
ENDCHAR
STARTCHAR FF1E
ENCODING 9022
SWIDTH 2400 0
DWIDTH 24 0
BBX 13 12 3 0
BITMAP
C000
F000
FC00
1F80
07E0
01F8
01F8
07E0
1F80
7E00
F800
C000
ENDCHAR
STARTCHAR FF1F
ENCODING 9023
SWIDTH 2400 0
DWIDTH 24 0
BBX 11 14 4 0
BITMAP
1F80
3FC0
79E0
E0E0
00E0
01E0
03C0
0780
0F00
0E00
0E00
0E00
0E00
0E00
ENDCHAR
STARTCHAR FF20
ENCODING 9024
SWIDTH 2400 0
DWIDTH 24 0
BBX 17 14 2 0
BITMAP
03F800
1FFE00
3E0F00
7DF700
7BF780
F6E780
F4E780
F4EF80
F7FF00
77FF00
7BFF80
3E0780
0FFF00
03F800
ENDCHAR
STARTCHAR FF21
ENCODING 9025
SWIDTH 2400 0
DWIDTH 24 0
BBX 15 14 2 0
BITMAP
03C0
03C0
07C0
07E0
0E60
0E70
1C70
1C38
3FF8
3FFC
381C
781E
700E
F00E
ENDCHAR
STARTCHAR FF22
ENCODING 9026
SWIDTH 2400 0
DWIDTH 24 0
BBX 12 14 4 0
BITMAP
FFC0
FFE0
FFE0
F070
F020
F060
FFC0
FFE0
F1F0
F0F0
F0F0
F0F0
FFE0
FF80
ENDCHAR
STARTCHAR FF23
ENCODING 9027
SWIDTH 2400 0
DWIDTH 24 0
BBX 14 14 2 0
BITMAP
07E0
1FF8
3C38
781C
F000
F000
F000
F000
F000
F018
781C
3C38
1FF8
0FE0
ENDCHAR
STARTCHAR FF24
ENCODING 9028
SWIDTH 2400 0
DWIDTH 24 0
BBX 14 14 4 0
BITMAP
FFC0
FFF0
F0F8
F078
F03C
F03C
F03C
F03C
F03C
F03C
F078
F0F8
FFF0
FFC0
ENDCHAR
STARTCHAR FF25
ENCODING 9029
SWIDTH 2400 0
DWIDTH 24 0
BBX 13 14 4 0
BITMAP
FFF0
FFF0
F000
F000
F000
F000
FFF0
FFF0
F000
F000
F000
F000
FFF8
FFF8
ENDCHAR
STARTCHAR FF26
ENCODING 9030
SWIDTH 2400 0
DWIDTH 24 0
BBX 11 14 5 0
BITMAP
FFE0
FFE0
F000
F000
F000
F000
FFC0
FFC0
F000
F000
F000
F000
F000
F000
ENDCHAR
STARTCHAR FF27
ENCODING 9031
SWIDTH 2400 0
DWIDTH 24 0
BBX 14 15 2 -1
BITMAP
07E0
1FF8
3C3C
781C
F000
F000
F000
F1FC
F1FC
F03C
783C
783C
3FFC
1FF0
0100
ENDCHAR
STARTCHAR FF28
ENCODING 9032
SWIDTH 2400 0
DWIDTH 24 0
BBX 13 14 4 0
BITMAP
F078
F078
F078
F078
F078
F078
FFF8
FFF8
F078
F078
F078
F078
F078
F078
ENDCHAR
STARTCHAR FF29
ENCODING 9033
SWIDTH 2400 0
DWIDTH 24 0
BBX 4 14 7 0
BITMAP
F0
F0
F0
F0
F0
F0
F0
F0
F0
F0
F0
F0
F0
F0
ENDCHAR
STARTCHAR FF2A
ENCODING 9034
SWIDTH 2400 0
DWIDTH 24 0
BBX 13 14 3 0
BITMAP
3FF8
3FF8
03C0
03C0
03C0
03C0
03C0
03C0
03C0
43C0
E3C0
E780
FF80
7F00
ENDCHAR
STARTCHAR FF2B
ENCODING 9035
SWIDTH 2400 0
DWIDTH 24 0
BBX 14 14 4 0
BITMAP
F038
F070
F0E0
F1C0
F780
FF00
FF00
FF80
F9C0
F1E0
F0E0
F070
F038
F03C
ENDCHAR
STARTCHAR FF2C
ENCODING 9036
SWIDTH 2400 0
DWIDTH 24 0
BBX 12 14 3 0
BITMAP
F000
F000
F000
F000
F000
F000
F000
F000
F000
F000
F000
F000
FFF0
FFF0
ENDCHAR
STARTCHAR FF2D
ENCODING 9037
SWIDTH 2400 0
DWIDTH 24 0
BBX 14 14 2 0
BITMAP
F03C
F03C
F03C
F87C
F87C
F87C
FCFC
FCFC
F4BC
F7BC
F7BC
F7BC
F7BC
F33C
ENDCHAR
STARTCHAR FF2E
ENCODING 9038
SWIDTH 2400 0
DWIDTH 24 0
BBX 13 14 4 0
BITMAP
E078
F078
F078
F878
FC78
F478
F678
F378
F178
F1F8
F0F8
F0F8
F078
F038
ENDCHAR
STARTCHAR FF2F
ENCODING 9039
SWIDTH 2400 0
DWIDTH 24 0
BBX 14 14 4 0
BITMAP
0FC0
3FF0
70F8
6078
C03C
C03C
803C
803C
C03C
C07C
6078
70F8
3FF0
0FC0
ENDCHAR
STARTCHAR FF30
ENCODING 9040
SWIDTH 2400 0
DWIDTH 24 0
BBX 12 14 3 0
BITMAP
FF80
FFE0
F1F0
F0F0
F0F0
F0F0
F1F0
FFE0
FF80
F000
F000
F000
F000
F000
ENDCHAR
STARTCHAR FF31
ENCODING 9041
SWIDTH 2400 0
DWIDTH 24 0
BBX 15 15 3 -1
BITMAP
0FE0
3FF8
7C7C
783C
F01E
F01E
F01E
F01E
F09E
F0DE
79FC
7CFC
3FFE
0FFE
0004
ENDCHAR
STARTCHAR FF32
ENCODING 9042
SWIDTH 2400 0
DWIDTH 24 0
BBX 12 14 4 0
BITMAP
FF80
FFE0
F1F0
F0F0
F0F0
F0F0
FFE0
FFC0
F3C0
F1E0
F1E0
F1E0
F1E0
F1E0
ENDCHAR
STARTCHAR FF33
ENCODING 9043
SWIDTH 2400 0
DWIDTH 24 0
BBX 13 14 3 0
BITMAP
1FC0
3FE0
70F0
7060
7800
3F00
1FE0
03F0
0070
3038
F038
7870
3FF0
1FE0
ENDCHAR
STARTCHAR FF34
ENCODING 9044
SWIDTH 2400 0
DWIDTH 24 0
BBX 14 14 2 0
BITMAP
FFFC
FFFC
0780
0780
0780
0780
0780
0780
0780
0780
0780
0780
0780
0780
ENDCHAR
STARTCHAR FF35
ENCODING 9045
SWIDTH 2400 0
DWIDTH 24 0
BBX 13 14 4 0
BITMAP
F078
F078
F078
F078
F078
F078
F078
F078
F078
F078
F078
78F0
7FF0
1FE0
ENDCHAR
STARTCHAR FF36
ENCODING 9046
SWIDTH 2400 0
DWIDTH 24 0
BBX 13 14 3 0
BITMAP
E038
7038
7030
7070
3870
38E0
38E0
1CE0
1DC0
0DC0
0FC0
0F80
0780
0700
ENDCHAR
STARTCHAR FF37
ENCODING 9047
SWIDTH 2400 0
DWIDTH 24 0
BBX 14 14 3 0
BITMAP
E78C
E79C
E79C
E79C
679C
7798
77F8
7EF8
3CF8
3CF0
3CF0
3CF0
1CF0
1860
ENDCHAR
STARTCHAR FF38
ENCODING 9048
SWIDTH 2400 0
DWIDTH 24 0
BBX 13 14 3 0
BITMAP
7038
7870
38F0
1CE0
1FC0
0FC0
0780
0780
0FC0
1FC0
1CE0
38F0
7078
F038
ENDCHAR
STARTCHAR FF39
ENCODING 9049
SWIDTH 2400 0
DWIDTH 24 0
BBX 15 14 1 0
BITMAP
F00E
781E
3C3C
1E78
0E70
0FF0
07E0
03C0
03C0
03C0
03C0
03C0
03C0
03C0
ENDCHAR
STARTCHAR FF3A
ENCODING 9050
SWIDTH 2400 0
DWIDTH 24 0
BBX 12 14 4 0
BITMAP
FFF0
FFF0
00E0
01C0
0380
0700
0F00
1E00
1C00
3800
7000
E000
FFF0
FFF0
ENDCHAR
STARTCHAR FF3B
ENCODING 9051
SWIDTH 2400 0
DWIDTH 24 0
BBX 6 20 7 -4
BITMAP
7C
FC
FC
F0
F0
F0
F0
F0
F0
F0
F0
F0
F0
F0
F0
F0
F0
FC
FC
7C
ENDCHAR
STARTCHAR FFE6
ENCODING 9052
SWIDTH 2400 0
DWIDTH 24 0
BBX 16 14 2 0
BITMAP
61C6
63C6
FFFF
FFFF
FFCE
33EC
336C
FFFF
FFFF
1E6C
1E68
1E78
1E38
1C38
ENDCHAR
STARTCHAR FF3D
ENCODING 9053
SWIDTH 2400 0
DWIDTH 24 0
BBX 6 20 5 -4
BITMAP
F0
FC
FC
3C
3C
3C
3C
3C
3C
3C
3C
3C
3C
3C
3C
3C
3C
FC
FC
F8
ENDCHAR
STARTCHAR FF3E
ENCODING 9054
SWIDTH 2400 0
DWIDTH 24 0
BBX 10 4 5 12
BITMAP
1C00
3E00
7F00
E3C0
ENDCHAR
STARTCHAR FF3F
ENCODING 9055
SWIDTH 2400 0
DWIDTH 24 0
BBX 12 2 4 -3
BITMAP
FFF0
FFF0
ENDCHAR
STARTCHAR FF40
ENCODING 9056
SWIDTH 2400 0
DWIDTH 24 0
BBX 4 4 3 12
BITMAP
E0
70
30
10
ENDCHAR
STARTCHAR FF41
ENCODING 9057
SWIDTH 2400 0
DWIDTH 24 0
BBX 10 11 4 0
BITMAP
0800
7F00
FF80
E3C0
0FC0
7FC0
FBC0
E3C0
E7C0
FFC0
7FC0
ENDCHAR
STARTCHAR FF42
ENCODING 9058
SWIDTH 2400 0
DWIDTH 24 0
BBX 11 14 5 0
BITMAP
F000
F000
F000
F000
FF80
FFC0
F1E0
F1E0
F1E0
F1E0
F1E0
FBC0
FF80
E000
ENDCHAR
STARTCHAR FF43
ENCODING 9059
SWIDTH 2400 0
DWIDTH 24 0
BBX 11 10 5 0
BITMAP
1F80
7FC0
78E0
F000
F000
F000
F0E0
78E0
7FE0
1FC0
ENDCHAR
STARTCHAR FF44
ENCODING 9060
SWIDTH 2400 0
DWIDTH 24 0
BBX 12 14 3 0
BITMAP
00F0
00F0
00F0
00F0
3FF0
7FF0
79F0
F0F0
F0F0
F0F0
F0F0
79F0
7FF0
3FF0
ENDCHAR
STARTCHAR FF45
ENCODING 9061
SWIDTH 2400 0
DWIDTH 24 0
BBX 10 11 5 -1
BITMAP
3E00
7F80
F780
E380
FFC0
FFC0
E000
E380
FF80
7F00
1E00
ENDCHAR
STARTCHAR FF46
ENCODING 9062
SWIDTH 2400 0
DWIDTH 24 0
BBX 10 14 4 0
BITMAP
0FC0
1FC0
1E00
1E00
FFC0
FFC0
1E00
1E00
1E00
1E00
1E00
1E00
1E00
1E00
ENDCHAR
STARTCHAR FF47
ENCODING 9063
SWIDTH 2400 0
DWIDTH 24 0
BBX 11 14 5 -4
BITMAP
3FE0
7FE0
FBE0
F1E0
F1E0
F1E0
FBE0
7FE0
1DE0
C1E0
E1E0
FFC0
7F80
0C00
ENDCHAR
STARTCHAR FF48
ENCODING 9064
SWIDTH 2400 0
DWIDTH 24 0
BBX 11 14 5 0
BITMAP
F000
F000
F000
F000
FFC0
FFE0
F1E0
F1E0
F1E0
F1E0
F1E0
F1E0
F1E0
F1E0
ENDCHAR
STARTCHAR FF49
ENCODING 9065
SWIDTH 2400 0
DWIDTH 24 0
BBX 4 14 7 0
BITMAP
30
70
70
00
F0
F0
F0
F0
F0
F0
F0
F0
F0
F0
ENDCHAR
STARTCHAR FF4A
ENCODING 9066
SWIDTH 2400 0
DWIDTH 24 0
BBX 6 17 7 -3
BITMAP
38
38
38
00
3C
3C
3C
3C
3C
3C
3C
3C
3C
3C
FC
F8
F0
ENDCHAR
STARTCHAR FF4B
ENCODING 9067
SWIDTH 2400 0
DWIDTH 24 0
BBX 11 14 4 0
BITMAP
F000
F000
F000
F000
F1E0
F3C0
F700
FE00
FF00
FF00
F380
F3C0
F1C0
F0E0
ENDCHAR
STARTCHAR FF4C
ENCODING 9068
SWIDTH 2400 0
DWIDTH 24 0
BBX 4 14 7 0
BITMAP
F0
F0
F0
F0
F0
F0
F0
F0
F0
F0
F0
F0
F0
F0
ENDCHAR
STARTCHAR FF4D
ENCODING 9069
SWIDTH 2400 0
DWIDTH 24 0
BBX 15 10 3 0
BITMAP
EC30
FFFC
FFFE
FF1E
FF1E
FF1E
FF1E
FF1E
FF1E
FF1E
ENDCHAR
STARTCHAR FF4E
ENCODING 9070
SWIDTH 2400 0
DWIDTH 24 0
BBX 11 10 5 0
BITMAP
FF80
FFC0
FBE0
F1E0
F1E0
F1E0
F1E0
F1E0
F1E0
F1E0
ENDCHAR
STARTCHAR FF4F
ENCODING 9071
SWIDTH 2400 0
DWIDTH 24 0
BBX 12 11 3 -1
BITMAP
1F80
3FC0
79E0
F0F0
F0F0
F0F0
F0F0
F9F0
7FE0
3FC0
0F00
ENDCHAR
STARTCHAR FF50
ENCODING 9072
SWIDTH 2400 0
DWIDTH 24 0
BBX 11 13 5 -3
BITMAP
FF80
FFC0
FBE0
F1E0
F1E0
F1E0
F1E0
FFC0
FF80
F200
F000
F000
F000
ENDCHAR
STARTCHAR FF51
ENCODING 9073
SWIDTH 2400 0
DWIDTH 24 0
BBX 10 13 5 -3
BITMAP
3FC0
7FC0
F3C0
F3C0
F3C0
F3C0
F3C0
7FC0
7FC0
03C0
03C0
03C0
03C0
ENDCHAR
STARTCHAR FF52
ENCODING 9074
SWIDTH 2400 0
DWIDTH 24 0
BBX 8 10 7 0
BITMAP
FF
FF
FF
F0
F0
F0
F0
F0
F0
F0
ENDCHAR
STARTCHAR FF53
ENCODING 9075
SWIDTH 2400 0
DWIDTH 24 0
BBX 9 11 5 -1
BITMAP
7F00
FF80
E380
F000
7E00
1F80
0380
E380
FF80
7F00
0C00
ENDCHAR
STARTCHAR FF54
ENCODING 9076
SWIDTH 2400 0
DWIDTH 24 0
BBX 8 13 6 0
BITMAP
3C
3C
3C
FF
FF
3C
3C
3C
3C
3C
3C
3F
1F
ENDCHAR
STARTCHAR FF55
ENCODING 9077
SWIDTH 2400 0
DWIDTH 24 0
BBX 11 10 5 0
BITMAP
F1E0
F1E0
F1E0
F1E0
F1E0
F1E0
F1E0
F1E0
FFE0
3FE0
ENDCHAR
STARTCHAR FF56
ENCODING 9078
SWIDTH 2400 0
DWIDTH 24 0
BBX 12 10 4 0
BITMAP
E0F0
F0E0
71E0
71C0
39C0
3B80
1F80
1F00
0F00
0E00
ENDCHAR
STARTCHAR FF57
ENCODING 9079
SWIDTH 2400 0
DWIDTH 24 0
BBX 12 10 4 0
BITMAP
CE70
EE70
EE60
6F60
6FE0
7BC0
7BC0
3BC0
39C0
3980
ENDCHAR
STARTCHAR FF58
ENCODING 9080
SWIDTH 2400 0
DWIDTH 24 0
BBX 11 10 4 0
BITMAP
F1E0
79C0
3F80
1F80
0F00
1F00
1F80
3BC0
79C0
F0E0
ENDCHAR
STARTCHAR FF59
ENCODING 9081
SWIDTH 2400 0
DWIDTH 24 0
BBX 11 12 4 -2
BITMAP
F0E0
71E0
39C0
39C0
1F80
1F80
0F80
0F00
0700
0E00
7E00
7C00
ENDCHAR
STARTCHAR FF5A
ENCODING 9082
SWIDTH 2400 0
DWIDTH 24 0
BBX 10 10 5 0
BITMAP
FF80
FF80
0700
0E00
1E00
3C00
7800
7000
FFC0
FFC0
ENDCHAR
STARTCHAR FF5B
ENCODING 9083
SWIDTH 2400 0
DWIDTH 24 0
BBX 5 19 7 -3
BITMAP
18
38
78
70
70
70
70
70
70
E0
E0
70
70
70
70
70
70
78
38
ENDCHAR
STARTCHAR FF5C
ENCODING 9084
SWIDTH 2400 0
DWIDTH 24 0
BBX 4 14 7 0
BITMAP
F0
F0
F0
F0
F0
F0
F0
F0
F0
F0
F0
F0
F0
F0
ENDCHAR
STARTCHAR FF5D
ENCODING 9085
SWIDTH 2400 0
DWIDTH 24 0
BBX 7 20 5 -4
BITMAP
E0
F8
FC
3C
3C
3C
3C
3C
3C
3E
3E
3C
3C
3C
3C
3C
3C
FC
FC
E0
ENDCHAR
STARTCHAR FFE3
ENCODING 9086
SWIDTH 2400 0
DWIDTH 24 0
BBX 11 4 4 4
BITMAP
1000
FFE0
FFE0
0380
ENDCHAR
STARTCHAR 3131
ENCODING 9249
SWIDTH 2400 0
DWIDTH 24 0
BBX 15 14 2 0
BITMAP
FFFE
FFFE
001E
001E
001E
001E
001E
001E
001E
001E
001E
001E
001E
001E
ENDCHAR
STARTCHAR 3132
ENCODING 9250
SWIDTH 2400 0
DWIDTH 24 0
BBX 15 14 3 0
BITMAP
FFFE
FFFE
0F1E
0F1E
0F1E
0F1E
0F1E
0F1E
0F1E
0F1E
0F1E
0F1E
0F1E
0F1E
ENDCHAR
STARTCHAR 3133
ENCODING 9251
SWIDTH 2400 0
DWIDTH 24 0
BBX 19 14 0 0
BITMAP
FF1E00
FF1E00
0F1E00
0F1E00
0F1E00
0F1E00
0F1E00
0F1F00
0F3F00
0F3F80
0F7BC0
0FF1E0
0FE1C0
0F4000
ENDCHAR
STARTCHAR 3134
ENCODING 9252
SWIDTH 2400 0
DWIDTH 24 0
BBX 15 14 3 0
BITMAP
F000
F000
F000
F000
F000
F000
F000
F000
F000
F000
F000
F000
FFFE
7FFE
ENDCHAR
STARTCHAR 3135
ENCODING 9253
SWIDTH 2400 0
DWIDTH 24 0
BBX 17 14 2 0
BITMAP
F0FF00
F0FF00
F03C00
F03C00
F03C00
F03C00
F03C00
F03C00
F03C00
F03E00
F07E00
F1FF80
FEE780
7E8180
ENDCHAR
STARTCHAR 3136
ENCODING 9254
SWIDTH 2400 0
DWIDTH 24 0
BBX 15 14 2 0
BITMAP
F038
F1FE
F1FE
F03E
F07C
F0FE
F0FE
F0FE
F0FE
F0FE
F0FE
F07C
FE7C
7E38
ENDCHAR
STARTCHAR 3137
ENCODING 9255
SWIDTH 2400 0
DWIDTH 24 0
BBX 14 14 2 0
BITMAP
FFFC
FFFC
F000
F000
F000
F000
F000
F000
F000
F000
F000
F000
FFFC
7FFC
ENDCHAR
STARTCHAR 3138
ENCODING 9256
SWIDTH 2400 0
DWIDTH 24 0
BBX 16 14 2 0
BITMAP
FFFF
FFFF
F0F0
F0F0
F0F0
F0F0
F0F0
F0F0
F0F0
F0F0
F0F0
F0F0
FFFF
7F7F
ENDCHAR
STARTCHAR 3139
ENCODING 9257
SWIDTH 2400 0
DWIDTH 24 0
BBX 14 14 3 0
BITMAP
FFFC
FFFC
003C
003C
003C
003C
FFFC
FFFC
F000
F000
F000
F000
FFFC
7FFC
ENDCHAR
STARTCHAR 313A
ENCODING 9258
SWIDTH 2400 0
DWIDTH 24 0
BBX 16 14 2 0
BITMAP
FFFF
FFFF
0F0F
0F0F
0F0F
0F0F
FF0F
FF0F
F00F
F00F
F00F
F00F
FF8F
7F8F
ENDCHAR
STARTCHAR 313B
ENCODING 9259
SWIDTH 2400 0
DWIDTH 24 0
BBX 16 14 2 0
BITMAP
FFFF
FFFF
0FFF
0FFF
0FFF
0FFF
FFFF
FFFF
F0FF
F0FF
F0FF
F0FF
FFFF
7FFF
ENDCHAR
STARTCHAR 313C
ENCODING 9260
SWIDTH 2400 0
DWIDTH 24 0
BBX 16 14 2 0
BITMAP
FFFF
FFFF
0FFF
0FFF
0FFF
0FFF
FFFF
FFFF
F0FF
F0FF
F0FF
F0FF
FFFF
7FFF
ENDCHAR
STARTCHAR 313D
ENCODING 9261
SWIDTH 2400 0
DWIDTH 24 0
BBX 19 14 1 0
BITMAP
FE1E00
FE1E00
0E1E00
0E1E00
0E1E00
0E1E00
FE1E00
FE1F00
E03F00
E03F80
E07BC0
E0F1E0
FFE0C0
FF4000
ENDCHAR
STARTCHAR 313E
ENCODING 9262
SWIDTH 2400 0
DWIDTH 24 0
BBX 16 14 2 0
BITMAP
FFFF
FFFF
0FF0
0FF0
0FF0
0FF0
FFFF
FFFF
F0F0
F0F0
F0F0
F0F0
FFFF
7FFF
ENDCHAR
STARTCHAR 313F
ENCODING 9263
SWIDTH 2400 0
DWIDTH 24 0
BBX 16 14 1 0
BITMAP
FF7F
FF7F
0F3F
0F3F
0F3F
0F3F
FF3F
FF3F
F03F
F03F
F03F
F03F
FF7F
7F7F
ENDCHAR
STARTCHAR 3140
ENCODING 9264
SWIDTH 2400 0
DWIDTH 24 0
BBX 18 14 1 0
BITMAP
FF0E00
FF0E00
0F7FC0
0F7FC0
0F3B80
0F3B80
7F7BC0
7F7BC0
787BC0
787BC0
787BC0
783B80
7FBF80
3F8E00
ENDCHAR
STARTCHAR 3141
ENCODING 9265
SWIDTH 2400 0
DWIDTH 24 0
BBX 16 14 2 0
BITMAP
FFFF
FFFF
F00F
F00F
F00F
F00F
F00F
F00F
F00F
F00F
F00F
F00F
FFFF
7FFF
ENDCHAR
STARTCHAR 3142
ENCODING 9266
SWIDTH 2400 0
DWIDTH 24 0
BBX 16 14 2 0
BITMAP
F00F
F00F
F00F
F00F
FFFF
FFFF
F00F
F00F
F00F
F00F
F00F
F00F
FFFF
7FFF
ENDCHAR
STARTCHAR 3143
ENCODING 9267
SWIDTH 2400 0
DWIDTH 24 0
BBX 17 14 2 0
BITMAP
FFF780
FFF780
FFF780
FFF780
FFFF80
FFFF80
FFF780
FFF780
FFF780
FFF780
FFF780
FFF780
FFFF80
7F7F80
ENDCHAR
STARTCHAR 3144
ENCODING 9268
SWIDTH 2400 0
DWIDTH 24 0
BBX 19 14 1 0
BITMAP
FF1E00
FF1E00
FF1E00
FF1E00
FF1E00
FF1E00
FF1E00
FF1F00
FF3F00
FF3F80
FF7B80
FFF3E0
FF61C0
7F4000
ENDCHAR
STARTCHAR 3145
ENCODING 9269
SWIDTH 2400 0
DWIDTH 24 0
BBX 13 14 4 0
BITMAP
0F00
0F00
0F00
0F00
0F00
0F00
0F00
1F80
1FC0
3FC0
7DE0
F8F8
7070
4020
ENDCHAR
STARTCHAR 3146
ENCODING 9270
SWIDTH 2400 0
DWIDTH 24 0
BBX 17 14 2 0
BITMAP
1E7800
1E7800
1E7800
1E7800
1E7800
1E7800
1E7800
1F7C00
3FFC00
3FFE00
7FEF00
F3C780
678300
030000
ENDCHAR
STARTCHAR 3147
ENCODING 9271
SWIDTH 2400 0
DWIDTH 24 0
BBX 16 13 2 0
BITMAP
07E0
1FF8
3C3E
781E
F00F
F00F
F00F
F00F
F00F
781E
7C3E
3FF8
0FE0
ENDCHAR
STARTCHAR 3148
ENCODING 9272
SWIDTH 2400 0
DWIDTH 24 0
BBX 13 14 4 0
BITMAP
FFF0
FFF0
0F00
0F00
0F00
0F00
0F00
0F00
1F80
3FC0
7FE0
FDF8
F0F0
4030
ENDCHAR
STARTCHAR 3149
ENCODING 9273
SWIDTH 2400 0
DWIDTH 24 0
BBX 16 14 2 0
BITMAP
7FFE
7FFE
1E78
1E78
1E78
1E78
1E78
1E78
1F78
3FFC
7FFE
FBEF
73C7
4180
ENDCHAR
STARTCHAR 314A
ENCODING 9274
SWIDTH 2400 0
DWIDTH 24 0
BBX 14 14 3 0
BITMAP
0780
0780
FFFC
FFFC
0780
0780
0780
0780
0780
0FC0
3FE0
FFFC
7878
6018
ENDCHAR
STARTCHAR 314B
ENCODING 9275
SWIDTH 2400 0
DWIDTH 24 0
BBX 15 14 2 0
BITMAP
7FFE
7FFE
001E
001E
001E
001E
FFFE
FFFE
001E
001E
001E
001E
001E
001E
ENDCHAR
STARTCHAR 314C
ENCODING 9276
SWIDTH 2400 0
DWIDTH 24 0
BBX 15 14 3 0
BITMAP
FFFE
FFFE
F000
F000
F000
F000
FFFE
FFFE
F000
F000
F000
F000
FFFE
7FFE
ENDCHAR
STARTCHAR 314D
ENCODING 9277
SWIDTH 2400 0
DWIDTH 24 0
BBX 16 14 2 0
BITMAP
FFFF
FFFF
3C3C
3C3C
3C3C
3C3C
3C3C
3C3C
3C3C
3C3C
3C3C
3C3C
FFFF
FFFF
ENDCHAR
STARTCHAR 314E
ENCODING 9278
SWIDTH 2400 0
DWIDTH 24 0
BBX 16 14 3 0
BITMAP
0780
0780
FFFF
FFFF
7FFC
7C7C
F83E
F01E
F01E
F01E
F83C
7C7C
3FF8
0FE0
ENDCHAR
STARTCHAR 314F
ENCODING 9279
SWIDTH 2400 0
DWIDTH 24 0
BBX 6 13 8 1
BITMAP
F0
F0
F0
F0
F0
FC
FC
F0
F0
F0
F0
F0
F0
ENDCHAR
STARTCHAR 3150
ENCODING 9280
SWIDTH 2400 0
DWIDTH 24 0
BBX 10 14 5 0
BITMAP
F3C0
F3C0
F3C0
F3C0
F3C0
FFC0
FFC0
F3C0
F3C0
F3C0
F3C0
F3C0
F3C0
F3C0
ENDCHAR
STARTCHAR 3151
ENCODING 9281
SWIDTH 2400 0
DWIDTH 24 0
BBX 6 14 7 0
BITMAP
F0
F0
F0
F0
FC
FC
F0
F0
FC
FC
F0
F0
F0
F0
ENDCHAR
STARTCHAR 3152
ENCODING 9282
SWIDTH 2400 0
DWIDTH 24 0
BBX 10 14 5 0
BITMAP
F3C0
F3C0
F3C0
F3C0
FFC0
FFC0
F3C0
FFC0
FFC0
F3C0
F3C0
F3C0
F3C0
F3C0
ENDCHAR
STARTCHAR 3153
ENCODING 9283
SWIDTH 2400 0
DWIDTH 24 0
BBX 7 13 6 1
BITMAP
1E
1E
1E
1E
1E
FE
FE
1E
1E
1E
1E
1E
1E
ENDCHAR
STARTCHAR 3154
ENCODING 9284
SWIDTH 2400 0
DWIDTH 24 0
BBX 11 14 5 0
BITMAP
1FE0
1FE0
1FE0
1FE0
1FE0
FFE0
FFE0
1FE0
1FE0
1FE0
1FE0
1FE0
1FE0
1FE0
ENDCHAR
STARTCHAR 3155
ENCODING 9285
SWIDTH 2400 0
DWIDTH 24 0
BBX 7 14 7 0
BITMAP
1E
1E
1E
FE
FE
1E
1E
1E
FE
FE
1E
1E
1E
1E
ENDCHAR
STARTCHAR 3156
ENCODING 9286
SWIDTH 2400 0
DWIDTH 24 0
BBX 12 14 4 0
BITMAP
1EF0
1EF0
1EF0
FEF0
FEF0
1EF0
1EF0
1EF0
FEF0
FEF0
1EF0
1EF0
1EF0
1EF0
ENDCHAR
STARTCHAR 3157
ENCODING 9287
SWIDTH 2400 0
DWIDTH 24 0
BBX 16 9 2 0
BITMAP
03C0
03C0
03C0
03C0
03C0
03C0
03C0
FFFF
FFFF
ENDCHAR
STARTCHAR 3158
ENCODING 9288
SWIDTH 2400 0
DWIDTH 24 0
BBX 19 15 0 -1
BITMAP
000780
000780
000780
000780
078780
0787E0
0787E0
078780
078780
078780
078780
FFFF80
FFFF80
000780
000780
ENDCHAR
STARTCHAR 3159
ENCODING 9289
SWIDTH 2400 0
DWIDTH 24 0
BBX 17 15 1 -1
BITMAP
007F80
007F80
007F80
007F80
1E7F80
1E7F80
1E7F80
1E7F80
1E7F80
1E7F80
1E7F80
FFFF80
FFFF80
007F80
007F80
ENDCHAR
STARTCHAR 315A
ENCODING 9290
SWIDTH 2400 0
DWIDTH 24 0
BBX 17 15 1 -1
BITMAP
000780
000780
000780
000780
000780
078780
078780
078780
078780
078780
078780
078780
FFFF80
FFFF80
000780
ENDCHAR
STARTCHAR 315B
ENCODING 9291
SWIDTH 2400 0
DWIDTH 24 0
BBX 16 9 2 0
BITMAP
1E78
1E78
1E78
1E78
1E78
1E78
1E78
FFFF
FFFF
ENDCHAR
STARTCHAR 315C
ENCODING 9292
SWIDTH 2400 0
DWIDTH 24 0
BBX 16 9 2 -1
BITMAP
FFFF
FFFF
03C0
03C0
03C0
03C0
03C0
03C0
03C0
ENDCHAR
STARTCHAR 315D
ENCODING 9293
SWIDTH 2400 0
DWIDTH 24 0
BBX 15 15 3 -1
BITMAP
001E
001E
001E
001E
001E
001E
FFFE
FFFE
0F1E
0F1E
0FFE
0FFE
0F1E
0F1E
0F1E
ENDCHAR
STARTCHAR 315E
ENCODING 9294
SWIDTH 2400 0
DWIDTH 24 0
BBX 18 15 1 -1
BITMAP
003FC0
003FC0
003FC0
003FC0
003FC0
003FC0
FFFFC0
FFFFC0
0F3FC0
0F3FC0
0FFFC0
0FFFC0
0F3FC0
0F3FC0
0F3FC0
ENDCHAR
STARTCHAR 315F
ENCODING 9295
SWIDTH 2400 0
DWIDTH 24 0
BBX 14 15 3 -1
BITMAP
003C
003C
003C
003C
003C
003C
003C
FFFC
FFFC
0F3C
0F3C
0F3C
0F3C
0F3C
0F3C
ENDCHAR
STARTCHAR 3160
ENCODING 9296
SWIDTH 2400 0
DWIDTH 24 0
BBX 16 9 2 -1
BITMAP
FFFF
FFFF
1E78
1E78
1E78
1E78
1E78
1E78
1E78
ENDCHAR
STARTCHAR 3161
ENCODING 9297
SWIDTH 2400 0
DWIDTH 24 0
BBX 15 2 3 0
BITMAP
FFFE
FFFE
ENDCHAR
STARTCHAR 3162
ENCODING 9298
SWIDTH 2400 0
DWIDTH 24 0
BBX 16 15 3 -1
BITMAP
000F
000F
000F
000F
000F
000F
000F
000F
000F
FFFF
FFFF
000F
000F
000F
000F
ENDCHAR
STARTCHAR 3163
ENCODING 9299
SWIDTH 2400 0
DWIDTH 24 0
BBX 4 15 8 -1
BITMAP
F0
F0
F0
F0
F0
F0
F0
F0
F0
F0
F0
F0
F0
F0
F0
ENDCHAR
STARTCHAR 3164
ENCODING 9300
SWIDTH 2400 0
DWIDTH 24 0
BBX 0 0 0 0
BITMAP
ENDCHAR
STARTCHAR 3165
ENCODING 9301
SWIDTH 2400 0
DWIDTH 24 0
BBX 14 14 3 0
BITMAP
F1E0
F1E0
F1E0
F1E0
F1E0
F1E0
F1E0
F1E0
F1E0
F1E0
F1E0
F1E0
FFFC
7EFC
ENDCHAR
STARTCHAR 3166
ENCODING 9302
SWIDTH 2400 0
DWIDTH 24 0
BBX 16 14 2 0
BITMAP
F0FF
F0FF
F0F0
F0F0
F0F0
F0F0
F0F0
F0F0
F0F0
F0F0
F0F0
F0F0
FEFF
7E7F
ENDCHAR
STARTCHAR 3167
ENCODING 9303
SWIDTH 2400 0
DWIDTH 24 0
BBX 18 14 2 0
BITMAP
F03C00
F03C00
F03C00
F03C00
F03C00
F03C00
F03C00
F03E00
F07E00
F07F00
F0F780
F1E7C0
FFC380
7E8000
ENDCHAR
STARTCHAR 3168
ENCODING 9304
SWIDTH 2400 0
DWIDTH 24 0
BBX 16 14 2 0
BITMAP
F010
F010
F010
F038
F038
F038
F07C
F06C
F06C
F0EE
F0EE
F0C6
FFFF
7FFF
ENDCHAR
STARTCHAR 3169
ENCODING 9305
SWIDTH 2400 0
DWIDTH 24 0
BBX 21 14 -1 0
BITMAP
FEFDE0
FEFDE0
1E3DE0
1E3DE0
1E3DE0
1E3DE0
FE3DE0
FE3DE0
F03DF0
F03DF0
F03FF8
F03FF8
FE3F98
7E3D08
ENDCHAR
STARTCHAR 316A
ENCODING 9306
SWIDTH 2400 0
DWIDTH 24 0
BBX 16 14 2 0
BITMAP
FFFF
FFFF
0FF0
0FF0
0FF0
0FF0
FFF0
FFF0
F0F0
F0F0
F0F0
F0F0
FFFF
7F7F
ENDCHAR
STARTCHAR 316B
ENCODING 9307
SWIDTH 2400 0
DWIDTH 24 0
BBX 20 14 -1 0
BITMAP
FFFFC0
FFFFC0
1FFFC0
1FFFC0
1FFFC0
1FFFC0
FFFFC0
FFFFC0
F3FFE0
F3FFE0
F3FFE0
F3FFF0
FFFF30
FFFE20
ENDCHAR
STARTCHAR 316C
ENCODING 9308
SWIDTH 2400 0
DWIDTH 24 0
BBX 17 14 2 0
BITMAP
FF0000
FF0800
0F1800
0F1800
0F1C00
0F1C00
FF3C00
FF3E00
F03E00
F07600
F07700
F06700
FFFF00
7FFF80
ENDCHAR
STARTCHAR 316D
ENCODING 9309
SWIDTH 2400 0
DWIDTH 24 0
BBX 19 14 1 0
BITMAP
FFFF80
FFFF80
0F3C00
0F3C00
0F7F00
0F7FC0
FFFBC0
FFF1E0
F0F1E0
F0F1E0
F0F1E0
F07BC0
FF7F80
7F1F00
ENDCHAR
STARTCHAR 316E
ENCODING 9310
SWIDTH 2400 0
DWIDTH 24 0
BBX 18 14 1 0
BITMAP
FFF3C0
FFF3C0
F7F3C0
F7F3C0
F7FFC0
F7FFC0
F7F3C0
F7F3C0
F7F3C0
F7F3C0
F7F3C0
F7F3C0
FFFFC0
7FFFC0
ENDCHAR
STARTCHAR 316F
ENCODING 9311
SWIDTH 2400 0
DWIDTH 24 0
BBX 19 14 1 0
BITMAP
FF8F00
FF8F00
F78F00
F78F00
F78F00
F78F00
F78F00
F78F80
F79F80
F79FC0
F7BDC0
F7F9E0
FFB0E0
7FA040
ENDCHAR
STARTCHAR 3170
ENCODING 9312
SWIDTH 2400 0
DWIDTH 24 0
BBX 18 14 1 0
BITMAP
FF8000
FF8400
F78C00
F78C00
F78E00
F78E00
F79E00
F79F00
F79F00
F7BB00
F7BB80
F7B380
FFFF80
7FFFC0
ENDCHAR
STARTCHAR 3171
ENCODING 9313
SWIDTH 2400 0
DWIDTH 24 0
BBX 15 16 3 -1
BITMAP
FFFE
FFFE
F01E
F01E
FFFE
7FFE
0000
0380
0FE0
1E78
3C3C
3C3C
3C3C
3E7C
1FF8
07E0
ENDCHAR
STARTCHAR 3172
ENCODING 9314
SWIDTH 2400 0
DWIDTH 24 0
BBX 16 14 2 0
BITMAP
FF7F
FF7F
FF0F
FF0F
FF0F
FF0F
FF0F
FF0F
FF0F
FF0F
FF0F
FF0F
FF0F
7F0F
ENDCHAR
STARTCHAR 3173
ENCODING 9315
SWIDTH 2400 0
DWIDTH 24 0
BBX 16 14 2 0
BITMAP
FF7F
FF7F
FF70
FF70
FF70
FF70
FF70
FF70
FF70
FF70
FF70
FF70
FF7F
FF3F
ENDCHAR
STARTCHAR 3174
ENCODING 9316
SWIDTH 2400 0
DWIDTH 24 0
BBX 19 14 1 0
BITMAP
FFFFE0
FFFFE0
FFF1E0
FFF1E0
FFF1E0
FFF1E0
FFF1E0
FFF1E0
FFF9E0
FFF9E0
FFFDE0
FFFFE0
FFCDE0
7F85E0
ENDCHAR
STARTCHAR 3175
ENCODING 9317
SWIDTH 2400 0
DWIDTH 24 0
BBX 20 14 -1 0
BITMAP
FF7BF0
FF7BF0
FF7BC0
FF7BC0
FF7BC0
FF7BC0
FF7BC0
FF7BC0
FF7FC0
FF7FC0
FFFFC0
FFEFC0
FFEFF0
7FC5F0
ENDCHAR
STARTCHAR 3176
ENCODING 9318
SWIDTH 2400 0
DWIDTH 24 0
BBX 18 14 1 0
BITMAP
F7FF80
F7FF80
F79E00
F79E00
FF9E00
FF9E00
F79E00
F79E00
F79E00
F79F00
F7BF80
F7FFC0
FFF3C0
7FC0C0
ENDCHAR
STARTCHAR 3177
ENCODING 9319
SWIDTH 2400 0
DWIDTH 24 0
BBX 16 14 2 0
BITMAP
FFFF
FFFF
FFF0
FFF0
FFF0
FFF0
FFFF
FFFF
FFF0
FFF0
FFF0
FFF0
FFFF
FF7F
ENDCHAR
STARTCHAR 3178
ENCODING 9320
SWIDTH 2400 0
DWIDTH 24 0
BBX 15 17 3 -1
BITMAP
F01E
F01E
FFFE
FFFE
F01E
F01E
FFFE
7FFE
0000
0380
0FE0
1E78
3C3C
3C3C
3E7C
1FF8
0FE0
ENDCHAR
STARTCHAR 3179
ENCODING 9321
SWIDTH 2400 0
DWIDTH 24 0
BBX 16 17 2 -1
BITMAP
FFFF
FFFF
FFFF
FFFF
FFFF
FFFF
FFFF
FFFF
0000
01C0
07F0
0E38
1E3C
1E3C
1E3C
0FF8
07E0
ENDCHAR
STARTCHAR 317A
ENCODING 9322
SWIDTH 2400 0
DWIDTH 24 0
BBX 16 14 2 0
BITMAP
1EFF
1EFF
1E0F
1E0F
1E0F
1E0F
1E0F
1F0F
3F0F
3F8F
7BCF
F3EF
E1CF
400F
ENDCHAR
STARTCHAR 317B
ENCODING 9323
SWIDTH 2400 0
DWIDTH 24 0
BBX 18 14 1 0
BITMAP
1E1E00
1E1E00
1E1E00
1E1E00
1E1E00
1E1E00
1E1E00
1F1E00
3F1E00
3F9E00
7BDE00
F1FE00
E1DFC0
401FC0
ENDCHAR
STARTCHAR 317C
ENCODING 9324
SWIDTH 2400 0
DWIDTH 24 0
BBX 18 14 1 0
BITMAP
1E3FC0
1E3FC0
1E3C00
1E3C00
1E3C00
1E3C00
1E3C00
1F3C00
3F3C00
3FBC00
7BBC00
F3FC00
E1FFC0
401FC0
ENDCHAR
STARTCHAR 317D
ENCODING 9325
SWIDTH 2400 0
DWIDTH 24 0
BBX 18 14 1 0
BITMAP
1E7BC0
1E7BC0
1E7BC0
1E7BC0
1E7FC0
1E7FC0
1E7BC0
1F7BC0
3F7BC0
3FFBC0
7FFBC0
F3FBC0
E1FFC0
40BFC0
ENDCHAR
STARTCHAR 317E
ENCODING 9326
SWIDTH 2400 0
DWIDTH 24 0
BBX 19 14 0 0
BITMAP
1E3FC0
1E3FC0
1E0F00
1E0F00
1E0F00
1E0F00
1E0F00
1E0F00
3F0F00
3F0F80
7F9FC0
F3FFE0
E1B9E0
40B060
ENDCHAR
STARTCHAR 317F
ENCODING 9327
SWIDTH 2400 0
DWIDTH 24 0
BBX 14 13 3 0
BITMAP
0300
0300
0780
0780
0FC0
0FC0
1CE0
1CE0
3C70
3870
7838
7FF8
FFFC
ENDCHAR
STARTCHAR 3180
ENCODING 9328
SWIDTH 2400 0
DWIDTH 24 0
BBX 20 14 -1 0
BITMAP
0F87C0
3FCFF0
79FE70
70FC30
F0FC30
F0FC30
F0FC30
F0FC30
F0FC30
F0FC30
70FC30
79FE70
3FCFF0
0F03C0
ENDCHAR
STARTCHAR 3181
ENCODING 9329
SWIDTH 2400 0
DWIDTH 24 0
BBX 14 12 3 0
BITMAP
0780
0780
3C60
7878
7038
F03C
F03C
F03C
F87C
7878
3FF0
0FC0
ENDCHAR
STARTCHAR 3182
ENCODING 9330
SWIDTH 2400 0
DWIDTH 24 0
BBX 19 14 1 0
BITMAP
3C0F00
3C0F00
7B8F00
71CF00
F1CF00
F1EF00
F1EF00
F1EF80
F1FF80
F1FFC0
F1FFC0
7BF9E0
3FB0E0
1F2040
ENDCHAR
STARTCHAR 3183
ENCODING 9331
SWIDTH 2400 0
DWIDTH 24 0
BBX 18 14 1 0
BITMAP
3C0400
3C0400
7F0600
738E00
F38E00
F3CF00
F3DF00
F3DF00
F3DF00
F3DB80
F3FB80
7FB980
3F3FC0
1E7FC0
ENDCHAR
STARTCHAR 3184
ENCODING 9332
SWIDTH 2400 0
DWIDTH 24 0
BBX 16 16 2 -1
BITMAP
FFFF
FFFF
3C3C
3C3C
FFFF
FFFF
0000
0000
01C0
07F8
0F3C
1E1E
1E1E
1F3E
0FFC
07F0
ENDCHAR
STARTCHAR 3185
ENCODING 9333
SWIDTH 2400 0
DWIDTH 24 0
BBX 20 12 0 0
BITMAP
7F9FE0
7F9FE0
0C0F00
0C0F00
339CC0
73BCE0
F3FCF0
F3FCF0
F3FCF0
73BCF0
7F9FE0
3F0FC0
ENDCHAR
STARTCHAR 3186
ENCODING 9334
SWIDTH 2400 0
DWIDTH 24 0
BBX 15 13 3 0
BITMAP
FFFE
FFFE
0000
0000
0780
0FE0
1FF8
3E7C
3C3C
3C3C
3E7C
1FF8
0FE0
ENDCHAR
STARTCHAR 3187
ENCODING 9335
SWIDTH 2400 0
DWIDTH 24 0
BBX 18 15 1 -1
BITMAP
000F00
000F00
000F00
000F00
000FC0
000FC0
1FEF00
1FEF00
1FEFC0
1FEFC0
1FEF00
1FEF00
FFFF00
FFFF00
000F00
ENDCHAR
STARTCHAR 3188
ENCODING 9336
SWIDTH 2400 0
DWIDTH 24 0
BBX 18 15 2 -1
BITMAP
003FC0
003FC0
003FC0
003FC0
003FC0
3FFFC0
3FFFC0
3FFFC0
3FFFC0
3FFFC0
3FFFC0
3FFFC0
FFFFC0
FFFFC0
003FC0
ENDCHAR
STARTCHAR 3189
ENCODING 9337
SWIDTH 2400 0
DWIDTH 24 0
BBX 16 15 2 -1
BITMAP
000F
000F
000F
000F
000F
3DEF
3DEF
3DEF
3DEF
3DEF
3DEF
3DEF
FFFF
FFFF
000F
ENDCHAR
STARTCHAR 318A
ENCODING 9338
SWIDTH 2400 0
DWIDTH 24 0
BBX 18 15 0 -1
BITMAP
0003C0
0003C0
0003C0
0003C0
0003C0
0003C0
FFFFC0
FFFFC0
1EF3C0
1EFFC0
1EFFC0
1EF3C0
1EFFC0
1EFFC0
1EF3C0
ENDCHAR
STARTCHAR 318B
ENCODING 9339
SWIDTH 2400 0
DWIDTH 24 0
BBX 18 15 1 -1
BITMAP
001FC0
001FC0
001FC0
001FC0
001FC0
001FC0
FFFFC0
FFFFC0
7F9FC0
7FFFC0
7FFFC0
7F9FC0
7FFFC0
7FFFC0
7F9FC0
ENDCHAR
STARTCHAR 318C
ENCODING 9340
SWIDTH 2400 0
DWIDTH 24 0
BBX 17 15 2 -1
BITMAP
000780
000780
000780
000780
000780
000780
FFFF80
FFFF80
1EF780
1EF780
1EF780
1EF780
1EF780
1EF780
1EF780
ENDCHAR
STARTCHAR 318D
ENCODING 9341
SWIDTH 2400 0
DWIDTH 24 0
BBX 4 4 8 4
BITMAP
F0
F0
F0
F0
ENDCHAR
STARTCHAR 318E
ENCODING 9342
SWIDTH 2400 0
DWIDTH 24 0
BBX 10 15 5 -1
BITMAP
03C0
03C0
03C0
03C0
03C0
03C0
E3C0
F3C0
F3C0
E3C0
03C0
03C0
03C0
03C0
03C0
ENDCHAR
STARTCHAR 2170
ENCODING 9505
SWIDTH 2400 0
DWIDTH 24 0
BBX 2 14 9 0
BITMAP
C0
C0
C0
00
C0
C0
C0
C0
C0
C0
C0
C0
C0
C0
ENDCHAR
STARTCHAR 2171
ENCODING 9506
SWIDTH 2400 0
DWIDTH 24 0
BBX 8 14 6 0
BITMAP
C6
E7
C6
00
C6
C6
C6
C6
C6
C6
C6
C6
C6
C6
ENDCHAR
STARTCHAR 2172
ENCODING 9507
SWIDTH 2400 0
DWIDTH 24 0
BBX 10 14 5 0
BITMAP
CDC0
DDC0
CC80
0000
CDC0
CDC0
CDC0
CDC0
CDC0
CDC0
CDC0
CDC0
CDC0
CDC0
ENDCHAR
STARTCHAR 2173
ENCODING 9508
SWIDTH 2400 0
DWIDTH 24 0
BBX 13 14 4 0
BITMAP
C000
E000
4000
0000
EC38
EE30
EE30
E670
E760
E760
E3E0
E3C0
E3C0
E1C0
ENDCHAR
STARTCHAR 2174
ENCODING 9509
SWIDTH 2400 0
DWIDTH 24 0
BBX 11 10 5 0
BITMAP
C0E0
E0C0
61C0
7180
3380
3B80
1B00
1F00
1E00
0E00
ENDCHAR
STARTCHAR 2175
ENCODING 9510
SWIDTH 2400 0
DWIDTH 24 0
BBX 13 14 4 0
BITMAP
0030
0038
0030
0000
C3B0
E330
E330
6730
7630
7630
3E30
3C30
1C30
1C30
ENDCHAR
STARTCHAR 2176
ENCODING 9511
SWIDTH 2400 0
DWIDTH 24 0
BBX 16 14 2 0
BITMAP
0037
0077
0032
0000
E3B7
E3B7
6337
7337
7737
3637
3E37
1E37
1E37
1C37
ENDCHAR
STARTCHAR 2177
ENCODING 9512
SWIDTH 2400 0
DWIDTH 24 0
BBX 18 14 1 0
BITMAP
006EC0
007FC0
002480
000000
C3FFC0
E37FC0
E37FC0
677FC0
767FC0
767FC0
3E7FC0
3C7FC0
3C7FC0
1C7FC0
ENDCHAR
STARTCHAR 2178
ENCODING 9513
SWIDTH 2400 0
DWIDTH 24 0
BBX 15 14 2 0
BITMAP
3000
7000
3000
0000
F70E
F38E
F1DC
F0F8
F0F0
F0F0
F0F8
F1DC
F38E
F70E
ENDCHAR
STARTCHAR 2179
ENCODING 9514
SWIDTH 2400 0
DWIDTH 24 0
BBX 10 10 5 0
BITMAP
E1C0
71C0
3B80
3F00
1E00
1E00
1F00
3B80
73C0
E1C0
ENDCHAR
STARTCHAR 2160
ENCODING 9520
SWIDTH 2400 0
DWIDTH 24 0
BBX 4 14 9 0
BITMAP
F0
F0
F0
F0
F0
F0
F0
F0
F0
F0
F0
F0
F0
F0
ENDCHAR
STARTCHAR 2161
ENCODING 9521
SWIDTH 2400 0
DWIDTH 24 0
BBX 10 14 6 0
BITMAP
F3C0
F3C0
F3C0
F3C0
F3C0
F3C0
F3C0
F3C0
F3C0
F3C0
F3C0
F3C0
F3C0
F3C0
ENDCHAR
STARTCHAR 2162
ENCODING 9522
SWIDTH 2400 0
DWIDTH 24 0
BBX 13 14 4 0
BITMAP
F7F8
F7F8
F7F8
F7F8
F7F8
F7F8
F7F8
F7F8
F7F8
F7F8
F7F8
F7F8
F7F8
F7F8
ENDCHAR
STARTCHAR 2163
ENCODING 9523
SWIDTH 2400 0
DWIDTH 24 0
BBX 13 14 4 0
BITMAP
FC38
FC30
FE30
FE70
F670
F660
F660
F760
F3E0
F3C0
F3C0
F3C0
F3C0
F180
ENDCHAR
STARTCHAR 2164
ENCODING 9524
SWIDTH 2400 0
DWIDTH 24 0
BBX 10 14 5 0
BITMAP
E1C0
61C0
61C0
7180
7380
3380
3300
3B00
3F00
1E00
1E00
1E00
1E00
0C00
ENDCHAR
STARTCHAR 2165
ENCODING 9525
SWIDTH 2400 0
DWIDTH 24 0
BBX 14 14 4 0
BITMAP
C3BC
E3BC
E33C
633C
673C
773C
763C
363C
363C
3E3C
3E3C
1C3C
1C3C
1C3C
ENDCHAR
STARTCHAR 2166
ENCODING 9526
SWIDTH 2400 0
DWIDTH 24 0
BBX 16 14 3 0
BITMAP
C37F
C37F
E77F
E77F
E67F
667F
6E7F
7E7F
7C7F
3C7F
3C7F
3C7F
387F
187F
ENDCHAR
STARTCHAR 2167
ENCODING 9527
SWIDTH 2400 0
DWIDTH 24 0
BBX 20 14 1 0
BITMAP
E3FEF0
E3FEF0
63FEF0
63FEF0
77FEF0
77FEF0
76FEF0
36FEF0
3EFEF0
3EFEF0
3CFEF0
1CFEF0
1CFEF0
1CFEF0
ENDCHAR
STARTCHAR 2168
ENCODING 9528
SWIDTH 2400 0
DWIDTH 24 0
BBX 17 14 1 0
BITMAP
F70380
F70700
F38E00
F1CE00
F1DC00
F0F800
F07800
F07800
F0F800
F0FC00
F1CE00
F38E00
F38700
F70780
ENDCHAR
STARTCHAR 2169
ENCODING 9529
SWIDTH 2400 0
DWIDTH 24 0
BBX 12 14 4 0
BITMAP
F070
7070
38E0
3DC0
1DC0
0F80
0F00
0700
0F80
1DC0
1DC0
38E0
7070
7070
ENDCHAR
STARTCHAR 0391
ENCODING 9537
SWIDTH 2400 0
DWIDTH 24 0
BBX 14 14 3 0
BITMAP
0100
0300
0380
0780
07C0
0EC0
0CE0
1C60
1FF0
3FF0
3838
7018
701C
E01C
ENDCHAR
STARTCHAR 0392
ENCODING 9538
SWIDTH 2400 0
DWIDTH 24 0
BBX 13 14 4 0
BITMAP
FFC0
FFF0
F070
F070
F070
F070
FFE0
FFF0
F0F8
F078
F078
F0F8
FFF0
FFC0
ENDCHAR
STARTCHAR 0393
ENCODING 9539
SWIDTH 2400 0
DWIDTH 24 0
BBX 11 14 5 0
BITMAP
FFE0
FFE0
E000
E000
E000
E000
E000
E000
E000
E000
E000
E000
E000
E000
ENDCHAR
STARTCHAR 0394
ENCODING 9540
SWIDTH 2400 0
DWIDTH 24 0
BBX 12 14 5 0
BITMAP
0010
0030
0030
0070
00F0
01F0
03F0
06F0
0CF0
1CF0
18F0
30F0
7FF0
FFF0
ENDCHAR
STARTCHAR 0395
ENCODING 9541
SWIDTH 2400 0
DWIDTH 24 0
BBX 13 14 4 0
BITMAP
FFF0
FFF0
F000
F000
F000
F000
FFF0
FFF0
F000
F000
F000
F000
FFF8
FFF8
ENDCHAR
STARTCHAR 0396
ENCODING 9542
SWIDTH 2400 0
DWIDTH 24 0
BBX 13 14 4 0
BITMAP
FFF8
FFF8
00F0
01E0
03E0
03C0
0780
0F00
1E00
1E00
3C00
7800
FFF8
FFF8
ENDCHAR
STARTCHAR 0397
ENCODING 9543
SWIDTH 2400 0
DWIDTH 24 0
BBX 12 14 4 0
BITMAP
E070
E070
E070
E070
E070
E070
FFF0
FFF0
E070
E070
E070
E070
E070
E070
ENDCHAR
STARTCHAR 0398
ENCODING 9544
SWIDTH 2400 0
DWIDTH 24 0
BBX 15 14 3 0
BITMAP
0FE0
3FF8
7C7C
783C
F01E
F01E
FFFE
FFFE
F01E
F01E
783C
787C
3FF8
0FE0
ENDCHAR
STARTCHAR 0399
ENCODING 9545
SWIDTH 2400 0
DWIDTH 24 0
BBX 4 14 8 0
BITMAP
F0
F0
F0
F0
F0
F0
F0
F0
F0
F0
F0
F0
F0
F0
ENDCHAR
STARTCHAR 039A
ENCODING 9546
SWIDTH 2400 0
DWIDTH 24 0
BBX 14 14 4 0
BITMAP
F03C
F078
F1F0
F3E0
F780
FF00
FF00
FB80
F3C0
F1C0
F1E0
F0E0
F0F0
F078
ENDCHAR
STARTCHAR 039B
ENCODING 9547
SWIDTH 2400 0
DWIDTH 24 0
BBX 12 14 4 0
BITMAP
0200
0200
0700
0700
0F00
0F80
1F80
1DC0
3DC0
39E0
78E0
70E0
70F0
F070
ENDCHAR
STARTCHAR 039C
ENCODING 9548
SWIDTH 2400 0
DWIDTH 24 0
BBX 15 14 2 0
BITMAP
F03E
F03E
F87E
F87E
F87E
FC7E
FCFE
ECDE
EEDE
EFDE
EFDE
E79E
E79E
E79E
ENDCHAR
STARTCHAR 039D
ENCODING 9549
SWIDTH 2400 0
DWIDTH 24 0
BBX 14 14 3 0
BITMAP
F03C
F83C
F83C
FC3C
F63C
F63C
F33C
F1BC
F1FC
F0FC
F07C
F03C
F03C
F01C
ENDCHAR
STARTCHAR 039E
ENCODING 9550
SWIDTH 2400 0
DWIDTH 24 0
BBX 11 13 5 0
BITMAP
FFE0
FFE0
0000
0000
0000
0000
7F80
7F80
0000
0000
0000
FFE0
FFE0
ENDCHAR
STARTCHAR 039F
ENCODING 9551
SWIDTH 2400 0
DWIDTH 24 0
BBX 15 14 3 0
BITMAP
0FE0
3FF8
7C7C
783C
F01E
F01E
F01E
F01E
F01E
F01E
783C
7C7C
3FF8
0FE0
ENDCHAR
STARTCHAR 03A0
ENCODING 9552
SWIDTH 2400 0
DWIDTH 24 0
BBX 13 14 4 0
BITMAP
FFF8
FFF8
F078
F078
F078
F078
F078
F078
F078
F078
F078
F078
F078
F078
ENDCHAR
STARTCHAR 03A1
ENCODING 9553
SWIDTH 2400 0
DWIDTH 24 0
BBX 12 14 5 0
BITMAP
FF80
FFE0
F1E0
F070
F070
F0E0
FFE0
FFC0
F000
F000
F000
F000
F000
F000
ENDCHAR
STARTCHAR 03A3
ENCODING 9554
SWIDTH 2400 0
DWIDTH 24 0
BBX 13 14 4 0
BITMAP
FFF0
7FF0
3800
1C00
0E00
0700
0380
0380
0700
0E00
1C00
3800
7FF8
FFF8
ENDCHAR
STARTCHAR 03A4
ENCODING 9555
SWIDTH 2400 0
DWIDTH 24 0
BBX 13 14 4 0
BITMAP
FFF8
FFF8
0F00
0F00
0F00
0F00
0F00
0F00
0F00
0F00
0F00
0F00
0F00
0F00
ENDCHAR
STARTCHAR 03A5
ENCODING 9556
SWIDTH 2400 0
DWIDTH 24 0
BBX 15 14 2 0
BITMAP
003C
1FFE
7FFE
F7C6
6780
0780
0780
0780
0780
0780
0780
0780
0780
0780
ENDCHAR
STARTCHAR 03A6
ENCODING 9557
SWIDTH 2400 0
DWIDTH 24 0
BBX 15 14 2 0
BITMAP
03C0
03C0
1FF8
7FFC
7BDC
F3DE
F3DE
F3DE
F3DE
7BFC
3FFC
1FF0
03C0
03C0
ENDCHAR
STARTCHAR 03A7
ENCODING 9558
SWIDTH 2400 0
DWIDTH 24 0
BBX 12 14 4 0
BITMAP
F070
78F0
38E0
3DC0
1FC0
1F80
0F00
0F00
1F80
1F80
3DC0
79E0
70E0
F0F0
ENDCHAR
STARTCHAR 03A8
ENCODING 9559
SWIDTH 2400 0
DWIDTH 24 0
BBX 14 14 3 0
BITMAP
6338
FB7C
FB7C
3B70
3B30
3B70
3B70
3FE0
0FC0
0300
0300
0300
0300
0300
ENDCHAR
STARTCHAR 03A9
ENCODING 9560
SWIDTH 2400 0
DWIDTH 24 0
BBX 14 13 3 1
BITMAP
0FC0
3FF0
7878
F03C
F03C
F03C
F03C
7C7C
3FF8
0FF0
0FF0
7FFC
7FFC
ENDCHAR
STARTCHAR 03B1
ENCODING 9569
SWIDTH 2400 0
DWIDTH 24 0
BBX 11 9 5 0
BITMAP
1980
7FC0
FFC0
E780
C380
C380
E7E0
FFE0
3880
ENDCHAR
STARTCHAR 03B2
ENCODING 9570
SWIDTH 2400 0
DWIDTH 24 0
BBX 12 15 5 -1
BITMAP
1F00
7FC0
F0C0
F0E0
F0E0
F7C0
F7E0
F060
F070
F0E0
FFE0
FFC0
F780
F000
F000
ENDCHAR
STARTCHAR 03B3
ENCODING 9571
SWIDTH 2400 0
DWIDTH 24 0
BBX 8 9 6 0
BITMAP
F7
FF
9F
1E
0E
1C
1C
1C
38
ENDCHAR
STARTCHAR 03B4
ENCODING 9572
SWIDTH 2400 0
DWIDTH 24 0
BBX 11 14 5 0
BITMAP
3F80
7FC0
70E0
7040
7000
7C00
3F80
7FC0
71C0
60E0
E0C0
71C0
7FC0
3F00
ENDCHAR
STARTCHAR 03B5
ENCODING 9573
SWIDTH 2400 0
DWIDTH 24 0
BBX 7 9 7 0
BITMAP
7C
FE
E0
F8
F8
C0
FE
FC
78
ENDCHAR
STARTCHAR 03B6
ENCODING 9574
SWIDTH 2400 0
DWIDTH 24 0
BBX 9 17 6 -2
BITMAP
3B00
3F80
3F00
3E00
3C00
7800
F000
E000
E000
E000
7C00
7F00
1F80
0380
0380
1F80
1F00
ENDCHAR
STARTCHAR 03B7
ENCODING 9575
SWIDTH 2400 0
DWIDTH 24 0
BBX 12 10 3 -1
BITMAP
7BC0
FFE0
5EF0
1EF0
1EF0
1EF0
1EF0
1EF0
1EF0
00F0
ENDCHAR
STARTCHAR 03B8
ENCODING 9576
SWIDTH 2400 0
DWIDTH 24 0
BBX 15 14 3 0
BITMAP
0FC0
3FF0
7838
701C
F01C
E01E
FFFE
FFFE
E01E
F01C
701C
7878
1FF0
0FE0
ENDCHAR
STARTCHAR 03B9
ENCODING 9577
SWIDTH 2400 0
DWIDTH 24 0
BBX 5 8 8 0
BITMAP
70
E0
E0
E0
E0
F8
F8
70
ENDCHAR
STARTCHAR 03BA
ENCODING 9578
SWIDTH 2400 0
DWIDTH 24 0
BBX 10 8 6 0
BITMAP
F3C0
F3C0
F700
FE00
FF00
F700
F3C0
F3C0
ENDCHAR
STARTCHAR 03BB
ENCODING 9579
SWIDTH 2400 0
DWIDTH 24 0
BBX 12 15 4 0
BITMAP
1F00
1F80
0780
0780
0780
0780
0780
0780
0F80
1FC0
3DC0
39E0
F0F0
E070
4000
ENDCHAR
STARTCHAR 03BC
ENCODING 9580
SWIDTH 2400 0
DWIDTH 24 0
BBX 13 10 5 -1
BITMAP
F3C0
F3C0
F3C0
F3C0
F3C0
F3D0
FFF8
FF70
F000
F000
ENDCHAR
STARTCHAR 03BD
ENCODING 9581
SWIDTH 2400 0
DWIDTH 24 0
BBX 10 9 6 0
BITMAP
E180
E1C0
F3C0
7380
7780
7700
7E00
7E00
3C00
ENDCHAR
STARTCHAR 03BE
ENCODING 9582
SWIDTH 2400 0
DWIDTH 24 0
BBX 10 17 5 -2
BITMAP
3800
3800
3FC0
3FC0
3800
3800
3F80
3F80
7000
F000
7000
7F00
3F80
01C0
0B80
1F80
0F00
ENDCHAR
STARTCHAR 03BF
ENCODING 9583
SWIDTH 2400 0
DWIDTH 24 0
BBX 9 8 6 0
BITMAP
7E00
7F00
E380
E380
E380
E780
7F00
3E00
ENDCHAR
STARTCHAR 03C0
ENCODING 9584
SWIDTH 2400 0
DWIDTH 24 0
BBX 12 8 5 0
BITMAP
FFE0
FFE0
3F80
3F80
3F80
3FE0
7FF0
7BE0
ENDCHAR
STARTCHAR 03C1
ENCODING 9585
SWIDTH 2400 0
DWIDTH 24 0
BBX 10 10 6 -2
BITMAP
3F80
FFC0
E3C0
E1C0
E3C0
FFC0
FF80
F000
F000
F000
ENDCHAR
STARTCHAR 03C3
ENCODING 9586
SWIDTH 2400 0
DWIDTH 24 0
BBX 11 8 5 1
BITMAP
0FE0
3FE0
7FE0
E380
E380
E380
FF00
7E00
ENDCHAR
STARTCHAR 03C4
ENCODING 9587
SWIDTH 2400 0
DWIDTH 24 0
BBX 11 8 5 0
BITMAP
FFE0
FFE0
1E00
1E00
1E00
1EC0
1FE0
0F80
ENDCHAR
STARTCHAR 03C5
ENCODING 9588
SWIDTH 2400 0
DWIDTH 24 0
BBX 10 8 6 0
BITMAP
E3C0
E3C0
E3C0
E780
EF80
FF00
FC00
F000
ENDCHAR
STARTCHAR 03C6
ENCODING 9589
SWIDTH 2400 0
DWIDTH 24 0
BBX 12 10 5 -2
BITMAP
47C0
EFF0
EF70
EF70
EF70
FFF0
7FE0
3F80
0700
0F00
ENDCHAR
STARTCHAR 03C7
ENCODING 9590
SWIDTH 2400 0
DWIDTH 24 0
BBX 11 10 5 0
BITMAP
F8C0
F9C0
3F80
1F00
1E00
1E00
3F00
7700
E7E0
43E0
ENDCHAR
STARTCHAR 03C8
ENCODING 9591
SWIDTH 2400 0
DWIDTH 24 0
BBX 13 13 5 0
BITMAP
0F00
0F00
0F00
4F20
EF70
CF38
CF38
EF70
7FF0
3FE0
0F00
0F00
0F00
ENDCHAR
STARTCHAR 03C9
ENCODING 9592
SWIDTH 2400 0
DWIDTH 24 0
BBX 15 9 3 0
BITMAP
3018
7B38
739C
E39C
E38E
E38E
E79C
FFFC
7DF0
ENDCHAR
STARTCHAR 2500
ENCODING 9761
SWIDTH 2400 0
DWIDTH 24 0
BBX 20 2 0 5
BITMAP
FFFFF0
FFFFF0
ENDCHAR
STARTCHAR 2502
ENCODING 9762
SWIDTH 2400 0
DWIDTH 24 0
BBX 2 20 9 -4
BITMAP
C0
C0
C0
C0
C0
C0
C0
C0
C0
C0
C0
C0
C0
C0
C0
C0
C0
C0
C0
C0
ENDCHAR
STARTCHAR 250C
ENCODING 9763
SWIDTH 2400 0
DWIDTH 24 0
BBX 11 11 9 -4
BITMAP
FFE0
FFE0
C000
C000
C000
C000
C000
C000
C000
C000
C000
ENDCHAR
STARTCHAR 2510
ENCODING 9764
SWIDTH 2400 0
DWIDTH 24 0
BBX 11 11 0 -4
BITMAP
FFE0
FFE0
0060
0060
0060
0060
0060
0060
0060
0060
0060
ENDCHAR
STARTCHAR 2518
ENCODING 9765
SWIDTH 2400 0
DWIDTH 24 0
BBX 11 11 0 5
BITMAP
0060
0060
0060
0060
0060
0060
0060
0060
0060
FFE0
FFE0
ENDCHAR
STARTCHAR 2514
ENCODING 9766
SWIDTH 2400 0
DWIDTH 24 0
BBX 11 11 9 5
BITMAP
C000
C000
C000
C000
C000
C000
C000
C000
C000
FFE0
FFE0
ENDCHAR
STARTCHAR 251C
ENCODING 9767
SWIDTH 2400 0
DWIDTH 24 0
BBX 11 20 9 -4
BITMAP
C000
C000
C000
C000
C000
C000
C000
C000
C000
FFE0
FFE0
C000
C000
C000
C000
C000
C000
C000
C000
C000
ENDCHAR
STARTCHAR 252C
ENCODING 9768
SWIDTH 2400 0
DWIDTH 24 0
BBX 20 11 0 -4
BITMAP
FFFFF0
FFFFF0
006000
006000
006000
006000
006000
006000
006000
006000
006000
ENDCHAR
STARTCHAR 2524
ENCODING 9769
SWIDTH 2400 0
DWIDTH 24 0
BBX 11 20 0 -4
BITMAP
0060
0060
0060
0060
0060
0060
0060
0060
0060
FFE0
FFE0
0060
0060
0060
0060
0060
0060
0060
0060
0060
ENDCHAR
STARTCHAR 2534
ENCODING 9770
SWIDTH 2400 0
DWIDTH 24 0
BBX 20 11 0 5
BITMAP
006000
006000
006000
006000
006000
006000
006000
006000
006000
FFFFF0
FFFFF0
ENDCHAR
STARTCHAR 253C
ENCODING 9771
SWIDTH 2400 0
DWIDTH 24 0
BBX 20 20 0 -4
BITMAP
006000
006000
006000
006000
006000
006000
006000
006000
006000
FFFFF0
FFFFF0
006000
006000
006000
006000
006000
006000
006000
006000
006000
ENDCHAR
STARTCHAR 2501
ENCODING 9772
SWIDTH 2400 0
DWIDTH 24 0
BBX 20 2 0 5
BITMAP
FFFFF0
FFFFF0
ENDCHAR
STARTCHAR 2503
ENCODING 9773
SWIDTH 2400 0
DWIDTH 24 0
BBX 2 20 9 -4
BITMAP
C0
C0
C0
C0
C0
C0
C0
C0
C0
C0
C0
C0
C0
C0
C0
C0
C0
C0
C0
C0
ENDCHAR
STARTCHAR 250F
ENCODING 9774
SWIDTH 2400 0
DWIDTH 24 0
BBX 11 11 9 -4
BITMAP
FFE0
FFE0
C000
C000
C000
C000
C000
C000
C000
C000
C000
ENDCHAR
STARTCHAR 2513
ENCODING 9775
SWIDTH 2400 0
DWIDTH 24 0
BBX 11 11 0 -4
BITMAP
FFE0
FFE0
0060
0060
0060
0060
0060
0060
0060
0060
0060
ENDCHAR
STARTCHAR 251B
ENCODING 9776
SWIDTH 2400 0
DWIDTH 24 0
BBX 11 11 0 5
BITMAP
0060
0060
0060
0060
0060
0060
0060
0060
0060
FFE0
FFE0
ENDCHAR
STARTCHAR 2517
ENCODING 9777
SWIDTH 2400 0
DWIDTH 24 0
BBX 11 11 9 5
BITMAP
C000
C000
C000
C000
C000
C000
C000
C000
C000
FFE0
FFE0
ENDCHAR
STARTCHAR 2523
ENCODING 9778
SWIDTH 2400 0
DWIDTH 24 0
BBX 11 20 9 -4
BITMAP
C000
C000
C000
C000
C000
C000
C000
C000
C000
FFE0
FFE0
C000
C000
C000
C000
C000
C000
C000
C000
C000
ENDCHAR
STARTCHAR 2533
ENCODING 9779
SWIDTH 2400 0
DWIDTH 24 0
BBX 21 11 -2 -4
BITMAP
FFFFF8
FFFFF8
007800
007800
007800
007800
007800
007800
007800
007800
007800
ENDCHAR
STARTCHAR 252B
ENCODING 9780
SWIDTH 2400 0
DWIDTH 24 0
BBX 11 20 0 -4
BITMAP
0060
0060
0060
0060
0060
0060
0060
0060
0060
FFE0
FFE0
0060
0060
0060
0060
0060
0060
0060
0060
0060
ENDCHAR
STARTCHAR 253B
ENCODING 9781
SWIDTH 2400 0
DWIDTH 24 0
BBX 20 11 0 5
BITMAP
006000
006000
006000
006000
006000
006000
006000
006000
006000
FFFFF0
FFFFF0
ENDCHAR
STARTCHAR 254B
ENCODING 9782
SWIDTH 2400 0
DWIDTH 24 0
BBX 21 20 -2 -4
BITMAP
007800
007800
007800
007800
007800
007800
007800
007800
007800
FFFFF8
FFFFF8
007800
007800
007800
007800
007800
007800
007800
007800
007800
ENDCHAR
STARTCHAR 2520
ENCODING 9783
SWIDTH 2400 0
DWIDTH 24 0
BBX 11 20 9 -4
BITMAP
C000
C000
C000
C000
C000
C000
C000
C000
C000
FFE0
FFE0
C000
C000
C000
C000
C000
C000
C000
C000
C000
ENDCHAR
STARTCHAR 252F
ENCODING 9784
SWIDTH 2400 0
DWIDTH 24 0
BBX 20 11 0 -4
BITMAP
FFFFF0
FFFFF0
006000
006000
006000
006000
006000
006000
006000
006000
006000
ENDCHAR
STARTCHAR 2528
ENCODING 9785
SWIDTH 2400 0
DWIDTH 24 0
BBX 11 20 0 -4
BITMAP
0060
0060
0060
0060
0060
0060
0060
0060
0060
FFE0
FFE0
0060
0060
0060
0060
0060
0060
0060
0060
0060
ENDCHAR
STARTCHAR 2537
ENCODING 9786
SWIDTH 2400 0
DWIDTH 24 0
BBX 20 11 0 5
BITMAP
006000
006000
006000
006000
006000
006000
006000
006000
006000
FFFFF0
FFFFF0
ENDCHAR
STARTCHAR 253F
ENCODING 9787
SWIDTH 2400 0
DWIDTH 24 0
BBX 20 20 0 -4
BITMAP
006000
006000
006000
006000
006000
006000
006000
006000
006000
FFFFF0
FFFFF0
006000
006000
006000
006000
006000
006000
006000
006000
006000
ENDCHAR
STARTCHAR 251D
ENCODING 9788
SWIDTH 2400 0
DWIDTH 24 0
BBX 11 20 9 -4
BITMAP
C000
C000
C000
C000
C000
C000
C000
C000
C000
FFE0
FFE0
C000
C000
C000
C000
C000
C000
C000
C000
C000
ENDCHAR
STARTCHAR 2530
ENCODING 9789
SWIDTH 2400 0
DWIDTH 24 0
BBX 21 11 -2 -4
BITMAP
FFFFF8
FFFFF8
007800
007800
007800
007800
007800
007800
007800
007800
007800
ENDCHAR
STARTCHAR 2525
ENCODING 9790
SWIDTH 2400 0
DWIDTH 24 0
BBX 11 20 0 -4
BITMAP
0060
0060
0060
0060
0060
0060
0060
0060
0060
FFE0
FFE0
0060
0060
0060
0060
0060
0060
0060
0060
0060
ENDCHAR
STARTCHAR 2538
ENCODING 9791
SWIDTH 2400 0
DWIDTH 24 0
BBX 20 11 0 5
BITMAP
006000
006000
006000
006000
006000
006000
006000
006000
006000
FFFFF0
FFFFF0
ENDCHAR
STARTCHAR 2542
ENCODING 9792
SWIDTH 2400 0
DWIDTH 24 0
BBX 21 20 -2 -4
BITMAP
007800
007800
007800
007800
007800
007800
007800
007800
007800
FFFFF8
FFFFF8
007800
007800
007800
007800
007800
007800
007800
007800
007800
ENDCHAR
STARTCHAR 2512
ENCODING 9793
SWIDTH 2400 0
DWIDTH 24 0
BBX 13 11 -2 -4
BITMAP
FFF8
FFF8
0078
0078
0078
0078
0078
0078
0078
0078
0078
ENDCHAR
STARTCHAR 2511
ENCODING 9794
SWIDTH 2400 0
DWIDTH 24 0
BBX 11 11 0 -4
BITMAP
FFE0
FFE0
0060
0060
0060
0060
0060
0060
0060
0060
0060
ENDCHAR
STARTCHAR 251A
ENCODING 9795
SWIDTH 2400 0
DWIDTH 24 0
BBX 11 11 0 5
BITMAP
0060
0060
0060
0060
0060
0060
0060
0060
0060
FFE0
FFE0
ENDCHAR
STARTCHAR 2519
ENCODING 9796
SWIDTH 2400 0
DWIDTH 24 0
BBX 11 20 0 -4
BITMAP
0060
0060
0060
0060
0060
0060
0060
0060
0060
FFE0
FFE0
0060
0060
0060
0060
0060
0060
0060
0060
0060
ENDCHAR
STARTCHAR 2516
ENCODING 9797
SWIDTH 2400 0
DWIDTH 24 0
BBX 11 11 9 5
BITMAP
C000
C000
C000
C000
C000
C000
C000
C000
C000
FFE0
FFE0
ENDCHAR
STARTCHAR 2515
ENCODING 9798
SWIDTH 2400 0
DWIDTH 24 0
BBX 11 11 9 5
BITMAP
C000
C000
C000
C000
C000
C000
C000
C000
C000
FFE0
FFE0
ENDCHAR
STARTCHAR 250E
ENCODING 9799
SWIDTH 2400 0
DWIDTH 24 0
BBX 11 11 9 -4
BITMAP
FFE0
FFE0
C000
C000
C000
C000
C000
C000
C000
C000
C000
ENDCHAR
STARTCHAR 250D
ENCODING 9800
SWIDTH 2400 0
DWIDTH 24 0
BBX 11 11 9 -4
BITMAP
FFE0
FFE0
C000
C000
C000
C000
C000
C000
C000
C000
C000
ENDCHAR
STARTCHAR 251E
ENCODING 9801
SWIDTH 2400 0
DWIDTH 24 0
BBX 11 20 9 -4
BITMAP
C000
C000
C000
C000
C000
C000
C000
C000
C000
FFE0
FFE0
C000
C000
C000
C000
C000
C000
C000
C000
C000
ENDCHAR
STARTCHAR 251F
ENCODING 9802
SWIDTH 2400 0
DWIDTH 24 0
BBX 11 20 9 -4
BITMAP
C000
C000
C000
C000
C000
C000
C000
C000
C000
FFE0
FFE0
C000
C000
C000
C000
C000
C000
C000
C000
C000
ENDCHAR
STARTCHAR 2521
ENCODING 9803
SWIDTH 2400 0
DWIDTH 24 0
BBX 11 20 9 -4
BITMAP
C000
C000
C000
C000
C000
C000
C000
C000
C000
FFE0
FFE0
C000
C000
C000
C000
C000
C000
C000
C000
C000
ENDCHAR
STARTCHAR 2522
ENCODING 9804
SWIDTH 2400 0
DWIDTH 24 0
BBX 11 20 9 -4
BITMAP
C000
C000
C000
C000
C000
C000
C000
C000
C000
FFE0
FFE0
C000
C000
C000
C000
C000
C000
C000
C000
C000
ENDCHAR
STARTCHAR 2526
ENCODING 9805
SWIDTH 2400 0
DWIDTH 24 0
BBX 11 20 0 -4
BITMAP
0060
0060
0060
0060
0060
0060
0060
0060
0060
FFE0
FFE0
0060
0060
0060
0060
0060
0060
0060
0060
0060
ENDCHAR
STARTCHAR 2527
ENCODING 9806
SWIDTH 2400 0
DWIDTH 24 0
BBX 11 20 0 -4
BITMAP
0060
0060
0060
0060
0060
0060
0060
0060
0060
FFE0
FFE0
0060
0060
0060
0060
0060
0060
0060
0060
0060
ENDCHAR
STARTCHAR 2529
ENCODING 9807
SWIDTH 2400 0
DWIDTH 24 0
BBX 11 20 0 -4
BITMAP
0060
0060
0060
0060
0060
0060
0060
0060
0060
FFE0
FFE0
0060
0060
0060
0060
0060
0060
0060
0060
0060
ENDCHAR
STARTCHAR 252A
ENCODING 9808
SWIDTH 2400 0
DWIDTH 24 0
BBX 11 20 0 -4
BITMAP
0060
0060
0060
0060
0060
0060
0060
0060
0060
FFE0
FFE0
0060
0060
0060
0060
0060
0060
0060
0060
0060
ENDCHAR
STARTCHAR 252D
ENCODING 9809
SWIDTH 2400 0
DWIDTH 24 0
BBX 20 11 0 -4
BITMAP
FFFFF0
FFFFF0
006000
006000
006000
006000
006000
006000
006000
006000
006000
ENDCHAR
STARTCHAR 252E
ENCODING 9810
SWIDTH 2400 0
DWIDTH 24 0
BBX 20 11 0 -4
BITMAP
FFFFF0
FFFFF0
006000
006000
006000
006000
006000
006000
006000
006000
006000
ENDCHAR
STARTCHAR 2531
ENCODING 9811
SWIDTH 2400 0
DWIDTH 24 0
BBX 20 11 0 -4
BITMAP
FFFFF0
FFFFF0
006000
006000
006000
006000
006000
006000
006000
006000
006000
ENDCHAR
STARTCHAR 2532
ENCODING 9812
SWIDTH 2400 0
DWIDTH 24 0
BBX 20 11 0 -4
BITMAP
FFFFF0
FFFFF0
006000
006000
006000
006000
006000
006000
006000
006000
006000
ENDCHAR
STARTCHAR 2535
ENCODING 9813
SWIDTH 2400 0
DWIDTH 24 0
BBX 20 11 0 5
BITMAP
006000
006000
006000
006000
006000
006000
006000
006000
006000
FFFFF0
FFFFF0
ENDCHAR
STARTCHAR 2536
ENCODING 9814
SWIDTH 2400 0
DWIDTH 24 0
BBX 20 11 0 5
BITMAP
006000
006000
006000
006000
006000
006000
006000
006000
006000
FFFFF0
FFFFF0
ENDCHAR
STARTCHAR 2539
ENCODING 9815
SWIDTH 2400 0
DWIDTH 24 0
BBX 20 11 0 5
BITMAP
006000
006000
006000
006000
006000
006000
006000
006000
006000
FFFFF0
FFFFF0
ENDCHAR
STARTCHAR 253A
ENCODING 9816
SWIDTH 2400 0
DWIDTH 24 0
BBX 20 11 0 5
BITMAP
006000
006000
006000
006000
006000
006000
006000
006000
006000
FFFFF0
FFFFF0
ENDCHAR
STARTCHAR 253D
ENCODING 9817
SWIDTH 2400 0
DWIDTH 24 0
BBX 20 20 0 -4
BITMAP
006000
006000
006000
006000
006000
006000
006000
006000
006000
FFFFF0
FFFFF0
006000
006000
006000
006000
006000
006000
006000
006000
006000
ENDCHAR
STARTCHAR 253E
ENCODING 9818
SWIDTH 2400 0
DWIDTH 24 0
BBX 20 20 0 -4
BITMAP
006000
006000
006000
006000
006000
006000
006000
006000
006000
FFFFF0
FFFFF0
006000
006000
006000
006000
006000
006000
006000
006000
006000
ENDCHAR
STARTCHAR 2540
ENCODING 9819
SWIDTH 2400 0
DWIDTH 24 0
BBX 21 20 -2 -4
BITMAP
007800
007800
007800
007800
007800
007800
007800
007800
007800
FFFFF8
FFFFF8
001800
001800
001800
001800
001800
001800
001800
001800
001800
ENDCHAR
STARTCHAR 2541
ENCODING 9820
SWIDTH 2400 0
DWIDTH 24 0
BBX 21 20 -2 -4
BITMAP
001800
001800
001800
001800
001800
001800
001800
001800
001800
FFFFF8
FFFFF8
007800
007800
007800
007800
007800
007800
007800
007800
007800
ENDCHAR
STARTCHAR 2543
ENCODING 9821
SWIDTH 2400 0
DWIDTH 24 0
BBX 21 20 -2 -4
BITMAP
007800
007800
007800
007800
007800
007800
007800
007800
007800
FFFFF8
FFFFF8
001800
001800
001800
001800
001800
001800
001800
001800
001800
ENDCHAR
STARTCHAR 2544
ENCODING 9822
SWIDTH 2400 0
DWIDTH 24 0
BBX 21 20 -2 -4
BITMAP
007800
007800
007800
007800
007800
007800
007800
007800
007800
FFFFF8
FFFFF8
001800
001800
001800
001800
001800
001800
001800
001800
001800
ENDCHAR
STARTCHAR 2545
ENCODING 9823
SWIDTH 2400 0
DWIDTH 24 0
BBX 21 20 -2 -4
BITMAP
001800
001800
001800
001800
001800
001800
001800
001800
001800
FFFFF8
FFFFF8
007800
007800
007800
007800
007800
007800
007800
007800
007800
ENDCHAR
STARTCHAR 2546
ENCODING 9824
SWIDTH 2400 0
DWIDTH 24 0
BBX 21 20 -2 -4
BITMAP
001800
001800
001800
001800
001800
001800
001800
001800
001800
FFFFF8
FFFFF8
007800
007800
007800
007800
007800
007800
007800
007800
007800
ENDCHAR
STARTCHAR 2547
ENCODING 9825
SWIDTH 2400 0
DWIDTH 24 0
BBX 21 20 -2 -4
BITMAP
007800
007800
007800
007800
007800
007800
007800
007800
007800
FFFFF8
FFFFF8
001800
001800
001800
001800
001800
001800
001800
001800
001800
ENDCHAR
STARTCHAR 2548
ENCODING 9826
SWIDTH 2400 0
DWIDTH 24 0
BBX 21 20 -2 -4
BITMAP
001800
001800
001800
001800
001800
001800
001800
001800
001800
FFFFF8
FFFFF8
007800
007800
007800
007800
007800
007800
007800
007800
007800
ENDCHAR
STARTCHAR 2549
ENCODING 9827
SWIDTH 2400 0
DWIDTH 24 0
BBX 21 20 -2 -4
BITMAP
007800
007800
007800
007800
007800
007800
007800
007800
007800
FFFFF8
FFFFF8
007800
007800
007800
007800
007800
007800
007800
007800
007800
ENDCHAR
STARTCHAR 254A
ENCODING 9828
SWIDTH 2400 0
DWIDTH 24 0
BBX 21 20 -2 -4
BITMAP
007800
007800
007800
007800
007800
007800
007800
007800
007800
FFFFF8
FFFFF8
007800
007800
007800
007800
007800
007800
007800
007800
007800
ENDCHAR
STARTCHAR 3395
ENCODING 10017
SWIDTH 2400 0
DWIDTH 24 0
BBX 17 17 1 -3
BITMAP
000200
000700
000F80
000F80
000F80
0CDE80
199F00
199F00
3B9E00
331C00
333900
66FB00
7FFF00
FF8E00
C00000
C00000
800000
ENDCHAR
STARTCHAR 3396
ENCODING 10018
SWIDTH 2400 0
DWIDTH 24 0
BBX 18 13 1 0
BITMAP
0001C0
0003C0
0007C0
F306C0
FF86C0
DFC780
DDC780
DDCF00
DDCF00
DDCE80
DDFFC0
DDD780
DDC700
ENDCHAR
STARTCHAR 3397
ENCODING 10019
SWIDTH 2400 0
DWIDTH 24 0
BBX 19 13 0 0
BITMAP
03C1C0
03C3E0
03C3E0
03C3C0
3FC7C0
7FC7C0
C3C7C0
C3C780
C3C780
C3C700
E7CEE0
7FDFC0
3FC380
ENDCHAR
STARTCHAR 2113
ENCODING 10020
SWIDTH 2400 0
DWIDTH 24 0
BBX 8 14 6 0
BITMAP
06
0F
1F
1B
1B
1F
1E
3E
3C
3C
3A
F7
5E
1C
ENDCHAR
STARTCHAR 3398
ENCODING 10021
SWIDTH 2400 0
DWIDTH 24 0
BBX 15 14 3 0
BITMAP
0008
C01C
C03E
C03E
CE7C
DC6C
F86C
F078
F078
F870
D8E0
CDEE
CDFC
C638
ENDCHAR
STARTCHAR 33C4
ENCODING 10022
SWIDTH 2400 0
DWIDTH 24 0
BBX 19 10 0 0
BITMAP
060300
1F8FC0
7FBFC0
F1F8E0
F07800
F07800
F1F8E0
79BCC0
3F9FC0
0E0700
ENDCHAR
STARTCHAR 33A3
ENCODING 10023
SWIDTH 2400 0
DWIDTH 24 0
BBX 20 14 0 0
BITMAP
000060
0000B0
000070
000030
0000F0
FEFFE0
FFFFC0
DBDBC0
DBDBC0
DBDBC0
DBDBC0
DBDBC0
DBDBC0
DBDBC0
ENDCHAR
STARTCHAR 33A4
ENCODING 10024
SWIDTH 2400 0
DWIDTH 24 0
BBX 20 14 0 0
BITMAP
0000E0
0000B0
000070
000030
3EF3F0
7EFFE0
67FFC0
60FFC0
E0FFC0
E0FFC0
60FFC0
67FFC0
7EFFC0
3CFFC0
ENDCHAR
STARTCHAR 33A5
ENCODING 10025
SWIDTH 2400 0
DWIDTH 24 0
BBX 17 14 1 0
BITMAP
000780
000680
000380
000080
000780
FFF300
F77800
F27800
F27800
F27800
F27800
F27800
F27800
F27800
ENDCHAR
STARTCHAR 33A6
ENCODING 10026
SWIDTH 2400 0
DWIDTH 24 0
BBX 19 14 0 0
BITMAP
F001E0
F00020
F000E0
F00020
F380E0
F7FF80
FEFFC0
FCFFC0
FCFFC0
FEFFC0
F6FFC0
F7FFC0
F3FFC0
F3FFC0
ENDCHAR
STARTCHAR 3399
ENCODING 10027
SWIDTH 2400 0
DWIDTH 24 0
BBX 19 13 0 0
BITMAP
1F0000
3C0000
3C0000
FFC000
FFFFE0
3DFFE0
3DEF60
3DEF60
3DEF60
3DEF60
3DEF60
3DEF60
3DEF60
ENDCHAR
STARTCHAR 339A
ENCODING 10028
SWIDTH 2400 0
DWIDTH 24 0
BBX 20 10 0 0
BITMAP
E0E000
FFFFF0
F7FFF0
F7F7F0
F7F7F0
F7F7F0
F7F7F0
F7F7F0
F7F7F0
F7F7F0
ENDCHAR
STARTCHAR 339B
ENCODING 10029
SWIDTH 2400 0
DWIDTH 24 0
BBX 20 12 0 -2
BITMAP
040000
0CDFE0
0CDFF0
1DDB70
199B70
1B9B70
331B70
335B70
7FDB70
7F9B70
600000
E00000
ENDCHAR
STARTCHAR 339C
ENCODING 10030
SWIDTH 2400 0
DWIDTH 24 0
BBX 20 10 1 0
BITMAP
FBE000
FFFFE0
FFFEF0
FFFEF0
FFFEF0
FFFEF0
FFFEF0
FFFEF0
FFFEF0
FFFEF0
ENDCHAR
STARTCHAR 339D
ENCODING 10031
SWIDTH 2400 0
DWIDTH 24 0
BBX 18 10 1 0
BITMAP
09C000
3FFF80
77FFC0
E7EFC0
C1EFC0
C1EFC0
E1EFC0
E7EFC0
7FEFC0
3DEFC0
ENDCHAR
STARTCHAR 339E
ENCODING 10032
SWIDTH 2400 0
DWIDTH 24 0
BBX 19 14 0 0
BITMAP
F00000
F00000
F00000
F00000
F3F080
F7FFE0
F6FFE0
FCFFE0
FCFFE0
FEFFE0
F6FFE0
F3FFE0
F3FFE0
F1FFE0
ENDCHAR
STARTCHAR 339F
ENCODING 10033
SWIDTH 2400 0
DWIDTH 24 0
BBX 20 14 0 0
BITMAP
0000E0
0001B0
000030
0000F0
0000F0
FFFF00
FFFF80
DBB780
DBB780
DBB780
DBB780
DBB780
DBB780
DBB780
ENDCHAR
STARTCHAR 33A0
ENCODING 10034
SWIDTH 2400 0
DWIDTH 24 0
BBX 20 15 0 -1
BITMAP
0000E0
0000F0
0001B0
0000E0
00F6F0
00FF00
3EFB00
7FDB00
60DB00
E0DB00
E0DB00
E0DB00
E3DB00
7EDB00
7E0000
ENDCHAR
STARTCHAR 33A1
ENCODING 10035
SWIDTH 2400 0
DWIDTH 24 0
BBX 17 13 1 0
BITMAP
000780
000780
000180
E06780
FFFF80
FF3C00
FF3C00
FF3C00
FF3C00
FF3C00
FF3C00
FF3C00
FF3C00
ENDCHAR
STARTCHAR 33A2
ENCODING 10036
SWIDTH 2400 0
DWIDTH 24 0
BBX 20 14 0 0
BITMAP
E00060
E000F0
E001B0
E00060
E600F0
ECFFC0
FCFFC0
F8FEC0
F8FEC0
F8FEC0
ECFEC0
ECFEC0
E6FEC0
E7FEC0
ENDCHAR
STARTCHAR 33CA
ENCODING 10037
SWIDTH 2400 0
DWIDTH 24 0
BBX 16 14 2 0
BITMAP
F000
F000
F000
F000
F000
FF3C
FFFE
F7E6
F7BE
F7FE
F7E6
F7EE
F7FE
F7FF
ENDCHAR
STARTCHAR 338D
ENCODING 10038
SWIDTH 2400 0
DWIDTH 24 0
BBX 20 13 0 -3
BITMAP
000010
0847F0
0CCFE0
0CCCC0
198CC0
198F80
398E00
334FC0
3FEFF0
7FCC30
600FF0
E007C0
C00000
ENDCHAR
STARTCHAR 338E
ENCODING 10039
SWIDTH 2400 0
DWIDTH 24 0
BBX 18 12 1 -2
BITMAP
000DC0
FF9FC0
FFB300
FFB300
FFBF00
FFBE00
FFBC00
FFBF80
FFB1C0
FFB0C0
003F80
000E00
ENDCHAR
STARTCHAR 338F
ENCODING 10040
SWIDTH 2400 0
DWIDTH 24 0
BBX 16 15 2 -2
BITMAP
F000
F000
F000
F000
F3BF
F77F
FE66
FE66
F67C
F760
F37E
F3FF
F1E3
007F
003E
ENDCHAR
STARTCHAR 33CF
ENCODING 10041
SWIDTH 2400 0
DWIDTH 24 0
BBX 19 14 1 0
BITMAP
F00000
F00000
F00F00
F00F00
F03FC0
F3BFC0
F70F00
FE0F00
FE0F00
F70F00
F70F00
F38F60
F18FE0
F1C7C0
ENDCHAR
STARTCHAR 3388
ENCODING 10042
SWIDTH 2400 0
DWIDTH 24 0
BBX 21 13 0 0
BITMAP
000018
000018
000018
003C18
3E7E18
7EEE18
671618
E07E18
E0EE18
60C618
67E618
7EFFD8
3C7FD8
ENDCHAR
STARTCHAR 3389
ENCODING 10043
SWIDTH 2400 0
DWIDTH 24 0
BBX 21 13 -2 0
BITMAP
F00008
F00008
F00008
F00008
F771C8
FFFBE8
FFDB68
FFC1E8
FFC3E8
FFC5E8
F7DDE8
F7FFF8
F3F3F8
ENDCHAR
STARTCHAR 33C8
ENCODING 10044
SWIDTH 2400 0
DWIDTH 24 0
BBX 20 14 -1 0
BITMAP
03DF80
03DFE0
03DE20
03DE10
1BDE20
7FDE20
7FDFE0
F3DFE0
F3DE10
F3DE10
F3DE10
F3DE10
7FDFE0
3FDFC0
ENDCHAR
STARTCHAR 33A7
ENCODING 10045
SWIDTH 2400 0
DWIDTH 24 0
BBX 20 16 0 -3
BITMAP
000C00
000C00
000C00
000800
E01BC0
FF9FE0
FF9E70
DD9700
DDB3E0
DDB0F0
DDB630
DDA7F0
DDE3E0
006000
006000
006000
ENDCHAR
STARTCHAR 33A8
ENCODING 10046
SWIDTH 2400 0
DWIDTH 24 0
BBX 20 17 0 -3
BITMAP
0000F0
0009B0
001860
0018F0
0018F0
001780
FF3780
FF3CC0
DB3700
DB2380
DB21C0
DB6CC0
DB67C0
DB4780
004000
00C000
00C000
ENDCHAR
STARTCHAR 33B0
ENCODING 10047
SWIDTH 2400 0
DWIDTH 24 0
BBX 16 13 2 -3
BITMAP
001C
FC3E
FE63
FA73
F13C
F11E
F103
FA63
FE3F
FC1E
F000
F000
F000
ENDCHAR
STARTCHAR 33B1
ENCODING 10048
SWIDTH 2400 0
DWIDTH 24 0
BBX 16 10 2 0
BITMAP
003C
FE7E
FF63
FF63
FF7C
FF1E
FF67
FF67
FF7E
FF3C
ENDCHAR
STARTCHAR 33B2
ENCODING 10049
SWIDTH 2400 0
DWIDTH 24 0
BBX 18 12 1 -3
BITMAP
0EE000
0CC700
1CCF80
198CC0
198CC0
338F80
3343C0
7FFCC0
7FCFC0
600000
C00000
C00000
ENDCHAR
STARTCHAR 33B3
ENCODING 10050
SWIDTH 2400 0
DWIDTH 24 0
BBX 19 9 0 0
BITMAP
FFCF80
FFCDC0
FEDCE0
FECF00
FEC7C0
FEC0C0
FEDCC0
FECFC0
FEC780
ENDCHAR
STARTCHAR 33B4
ENCODING 10051
SWIDTH 2400 0
DWIDTH 24 0
BBX 18 16 1 -2
BITMAP
00C0C0
00C180
006180
006180
F46180
FF3300
FFB300
F1B300
F1BB00
F19E00
F19E00
F99E00
FF8E00
FE0C00
F00000
F00000
ENDCHAR
STARTCHAR 33B5
ENCODING 10052
SWIDTH 2400 0
DWIDTH 24 0
BBX 17 14 2 0
BITMAP
030180
018300
018300
018300
F6C600
FFC600
FFC600
F7E600
F7EC00
F7EC00
F7BC00
F7B800
F7B800
F7B800
ENDCHAR
STARTCHAR 33B6
ENCODING 10053
SWIDTH 2400 0
DWIDTH 24 0
BBX 18 16 1 -3
BITMAP
0030C0
0030C0
0018C0
0018C0
0CF8C0
1CC980
18CD80
198D80
398D80
338500
734700
7FE700
FFC700
E18000
C00000
C00000
ENDCHAR
STARTCHAR 33B7
ENCODING 10054
SWIDTH 2400 0
DWIDTH 24 0
BBX 17 14 2 0
BITMAP
018180
00C180
00C300
00C300
E06300
FFE300
FFE600
FFF600
FFF600
FFF600
FFFC00
FFDC00
FFDC00
FFD800
ENDCHAR
STARTCHAR 33B8
ENCODING 10055
SWIDTH 2400 0
DWIDTH 24 0
BBX 17 14 2 0
BITMAP
F18180
F18300
F1C300
F0C300
F0C300
F3E600
F76600
FE6600
FC7600
FE3C00
F63C00
F33C00
F39C00
F19800
ENDCHAR
STARTCHAR 33B9
ENCODING 10056
SWIDTH 2400 0
DWIDTH 24 0
BBX 18 14 1 0
BITMAP
0030C0
E3B0C0
E3B180
E39980
E39980
E39980
F79980
F78F00
F78F00
F78F00
F78F00
FF8600
D78600
D78600
ENDCHAR
STARTCHAR 3380
ENCODING 10057
SWIDTH 2400 0
DWIDTH 24 0
BBX 18 16 1 -3
BITMAP
000C00
000E00
001E00
001E00
FC1E00
FE1B00
F93B00
F13F00
F13F80
F13180
FA7180
FE6180
FC61C0
F00000
F00000
F00000
ENDCHAR
STARTCHAR 3381
ENCODING 10058
SWIDTH 2400 0
DWIDTH 24 0
BBX 19 13 0 0
BITMAP
000700
000700
000780
EE0F80
FF8D80
FF8D80
F79DC0
F79FC0
F79FC0
F7B8C0
F7B0E0
F7B060
F7F060
ENDCHAR
STARTCHAR 3382
ENCODING 10059
SWIDTH 2400 0
DWIDTH 24 0
BBX 20 15 0 -2
BITMAP
000380
000380
000380
0007C0
0CE6C0
0CC6C0
0CCEC0
19CFE0
198FE0
3B8C60
335C60
3FF870
6FD870
600000
C00000
ENDCHAR
STARTCHAR 3383
ENCODING 10060
SWIDTH 2400 0
DWIDTH 24 0
BBX 20 13 -1 0
BITMAP
000180
0003C0
0003C0
F183C0
FFC7C0
FFE6E0
F6E660
F6E660
F6EFE0
F6EFF0
F6EC30
F6FC30
F6FC30
ENDCHAR
STARTCHAR 3384
ENCODING 10061
SWIDTH 2400 0
DWIDTH 24 0
BBX 19 13 1 0
BITMAP
C00E00
C00E00
C00F00
C01F00
CE1B00
DC1B80
F81B80
F83980
F83F80
FC31C0
FC70C0
F660C0
F760E0
ENDCHAR
STARTCHAR 33BA
ENCODING 10062
SWIDTH 2400 0
DWIDTH 24 0
BBX 18 15 1 -2
BITMAP
019CC0
019C80
00DD80
00DD80
FCDD80
FEDD80
F95D00
F17500
F17700
F17700
FA7700
FE3600
FC3600
C00000
C00000
ENDCHAR
STARTCHAR 33BB
ENCODING 10063
SWIDTH 2400 0
DWIDTH 24 0
BBX 20 13 -1 0
BITMAP
00C630
00C730
006730
006730
FF6730
FFEFE0
F7BDE0
F7BDE0
F7BDE0
F7BDE0
F79CE0
F798C0
F798C0
ENDCHAR
STARTCHAR 33BC
ENCODING 10064
SWIDTH 2400 0
DWIDTH 24 0
BBX 20 15 0 -2
BITMAP
006330
003760
003760
003760
0CF760
0DD760
1D9D40
199DC0
1B9DC0
331DC0
338D80
3FCD80
7F8D80
600000
C00000
ENDCHAR
STARTCHAR 33BD
ENCODING 10065
SWIDTH 2400 0
DWIDTH 24 0
BBX 20 13 -1 0
BITMAP
003330
003330
0037B0
C037B0
FFF7A0
FFD7E0
FFDFE0
FFDFE0
FFDEE0
FFDCE0
FFCCE0
FFCCE0
FFCCC0
ENDCHAR
STARTCHAR 33BE
ENCODING 10066
SWIDTH 2400 0
DWIDTH 24 0
BBX 18 14 1 0
BITMAP
F00000
F18CC0
F0CCC0
F0DCC0
F0DD80
F3DD80
F6DF80
FC5F80
FC7F80
F67780
F77380
F37300
F3B300
F1B300
ENDCHAR
STARTCHAR 33BF
ENCODING 10067
SWIDTH 2400 0
DWIDTH 24 0
BBX 20 13 0 0
BITMAP
C36770
C76760
E76760
E73760
E73760
E73760
EF37E0
FF35E0
FF15E0
FB1DC0
DB1DC0
DB1CC0
DB1CC0
ENDCHAR
STARTCHAR 3390
ENCODING 10068
SWIDTH 2400 0
DWIDTH 24 0
BBX 18 13 1 0
BITMAP
F3C000
F3C000
F3C000
F3FFC0
FFFF80
FFC380
F3C700
F3C600
F3CE00
F3DC00
F3D800
F3FFC0
F3FFC0
ENDCHAR
STARTCHAR 3391
ENCODING 10069
SWIDTH 2400 0
DWIDTH 24 0
BBX 20 13 0 0
BITMAP
C19800
C19800
C19800
C19800
CD9BF0
D9FBE0
F1F8E0
F198C0
F199C0
D99980
D99B80
DD9BF0
CD9FF0
ENDCHAR
STARTCHAR 3392
ENCODING 10070
SWIDTH 2400 0
DWIDTH 24 0
BBX 20 13 0 0
BITMAP
C3BC00
E3BC00
E7BC00
E7BC00
E7BFF0
E7FFE0
FFFC60
FFBCE0
FFBCC0
FBBCC0
DBBDC0
DBBDF0
DBBDF0
ENDCHAR
STARTCHAR 3393
ENCODING 10071
SWIDTH 2400 0
DWIDTH 24 0
BBX 20 13 0 0
BITMAP
3FFE00
7FFE00
F3FE00
F3FE00
F1FFF0
F1FFE0
FFFE60
FFFEC0
FFFEC0
FFFF80
FFFF80
FFFFF0
7FFFF0
ENDCHAR
STARTCHAR 3394
ENCODING 10072
SWIDTH 2400 0
DWIDTH 24 0
BBX 20 13 0 0
BITMAP
FE7800
FE7800
367800
367800
367BF0
37FBE0
37F8E0
3678C0
3679C0
367980
367980
367BF0
367BF0
ENDCHAR
STARTCHAR 2126
ENCODING 10073
SWIDTH 2400 0
DWIDTH 24 0
BBX 14 14 3 0
BITMAP
0FC0
1FE0
3870
7038
6018
6018
6018
7038
3CF0
DEEC
C6CC
C6CC
FEFC
FEFC
ENDCHAR
STARTCHAR 33C0
ENCODING 10074
SWIDTH 2400 0
DWIDTH 24 0
BBX 20 13 0 0
BITMAP
E01F80
E03FE0
E07060
E06070
E76030
EE6030
FC7060
FC38E0
EC1DC0
CE6DF0
C66DF0
C37DF0
C3FDF0
ENDCHAR
STARTCHAR 33C1
ENCODING 10075
SWIDTH 2400 0
DWIDTH 24 0
BBX 20 13 0 0
BITMAP
E1DF80
E1FFE0
E1F060
E3E030
F3E030
F3E030
F3F060
FFF9E0
FFDDC0
FFEDB0
FFEDB0
FFFDF0
FFFDF0
ENDCHAR
STARTCHAR 338A
ENCODING 10076
SWIDTH 2400 0
DWIDTH 24 0
BBX 19 16 2 -3
BITMAP
007FE0
007FE0
007800
007800
E07800
FF7F80
F7FF80
C3F800
C3F800
C3F800
E3F800
FFF800
FF7800
F00000
F00000
F00000
ENDCHAR
STARTCHAR 338B
ENCODING 10077
SWIDTH 2400 0
DWIDTH 24 0
BBX 18 13 0 0
BITMAP
007FC0
007FC0
007800
007800
FF7F80
FFFF80
F3F800
F3F800
F3F800
F3F800
F3F800
F3F800
F3F800
ENDCHAR
STARTCHAR 338C
ENCODING 10078
SWIDTH 2400 0
DWIDTH 24 0
BBX 19 16 1 -3
BITMAP
007FE0
007FE0
007800
007800
0CF800
1DFF80
19FF80
19F800
337800
337800
77F800
7FF800
FFF800
C00000
C00000
C00000
ENDCHAR
STARTCHAR 33D6
ENCODING 10079
SWIDTH 2400 0
DWIDTH 24 0
BBX 21 13 -1 0
BITMAP
000078
000078
000078
000078
FFEF78
FFFFF8
FFFFF8
FFFFF8
FFFFF8
FFFFF8
FFFFF8
FFFFF8
FFEF78
ENDCHAR
STARTCHAR 33C5
ENCODING 10080
SWIDTH 2400 0
DWIDTH 24 0
BBX 20 14 0 0
BITMAP
0000F0
0000F0
0000F0
0000F0
001FF0
003FF0
1F3DF0
71F8F0
F078F0
F078F0
F1F8F0
79BDF0
3F9FF0
1F0FF0
ENDCHAR
STARTCHAR 33AD
ENCODING 10081
SWIDTH 2400 0
DWIDTH 24 0
BBX 20 14 0 0
BITMAP
0000F0
0000F0
0000F0
0000F0
0000F0
DDE3F0
FFF7F0
E337F0
C1F7F0
C3F7F0
C337F0
C337F0
C3FFF0
C1FDF0
ENDCHAR
STARTCHAR 33AE
ENCODING 10082
SWIDTH 2400 0
DWIDTH 24 0
BBX 20 16 0 -2
BITMAP
000030
000C30
060C60
FF3C60
FDFCC0
FFECC0
FFFD80
FFBD80
F68F00
0002E0
0007F0
000DC0
000CE0
0019E0
0019E0
001040
ENDCHAR
STARTCHAR 33AF
ENCODING 10083
SWIDTH 2400 0
DWIDTH 24 0
BBX 20 15 0 -2
BITMAP
001860
C71860
FF78C0
EF78C0
CFD9F0
CBFB70
CFFB60
001E70
0004C0
000DE0
0019E0
0019E0
003360
0063E0
0060C0
ENDCHAR
STARTCHAR 33DB
ENCODING 10084
SWIDTH 2400 0
DWIDTH 24 0
BBX 14 9 3 0
BITMAP
7FDC
EFFC
E7E0
7BC0
3FC0
0FC0
C7C0
FFC0
3BC0
ENDCHAR
STARTCHAR 33A9
ENCODING 10085
SWIDTH 2400 0
DWIDTH 24 0
BBX 19 14 1 0
BITMAP
FE0000
FF8000
F1C000
F0C000
F0CC00
F1FF80
FFF3C0
FF03C0
F03FC0
F07FC0
F063C0
F063C0
F07FE0
F03CE0
ENDCHAR
STARTCHAR 33AA
ENCODING 10086
SWIDTH 2400 0
DWIDTH 24 0
BBX 20 14 0 0
BITMAP
C3C000
E3F800
E3F800
E3FC00
E3FC00
FFFF80
FBFFE0
F3FDE0
F3C7E0
FBCFE0
FBDDE0
FFDDE0
FFDFF0
FFCFF0
ENDCHAR
STARTCHAR 33AB
ENCODING 10087
SWIDTH 2400 0
DWIDTH 24 0
BBX 20 13 0 0
BITMAP
C7FC00
E7FE00
E7F300
E7F300
E7F380
E7F7E0
EFFF60
FFFDE0
FFF3E0
FFF760
DBF760
DBF3F0
DBF3F0
ENDCHAR
STARTCHAR 33AC
ENCODING 10088
SWIDTH 2400 0
DWIDTH 24 0
BBX 20 14 0 -1
BITMAP
7FF000
FFF800
CFFC00
CFFC00
C3FC00
C3FFC0
DFFF60
DFF1E0
CFC7E0
CFC5E0
CFC5E0
FFC7F0
7FC3F0
3FC000
ENDCHAR
STARTCHAR 33DD
ENCODING 10089
SWIDTH 2400 0
DWIDTH 24 0
BBX 20 13 0 0
BITMAP
C67C00
EEFC00
6EFC00
6EFC00
6EFFC0
6FFFE0
7FFCF0
3BFCF0
3BFCF0
3BBCF0
3BBCE0
39BFE0
39BF80
ENDCHAR
STARTCHAR 33D0
ENCODING 10090
SWIDTH 2400 0
DWIDTH 24 0
BBX 16 14 3 0
BITMAP
F000
F000
F000
F000
F08C
FFFF
FFFF
FFFF
FFFF
FFFF
FFFF
FFFF
FFFF
FFFF
ENDCHAR
STARTCHAR 33D3
ENCODING 10091
SWIDTH 2400 0
DWIDTH 24 0
BBX 15 14 2 0
BITMAP
F000
F000
F000
F000
F000
F71C
F3B8
F1F0
F0F0
F0E0
F1F0
F3B8
F31C
F70E
ENDCHAR
STARTCHAR 33C3
ENCODING 10092
SWIDTH 2400 0
DWIDTH 24 0
BBX 19 16 0 -3
BITMAP
FF0000
FFC000
F3C000
F3C000
F3C7E0
FF8FE0
FFDF20
F1FE20
F0FE20
F0FE20
F0FE20
FFEFE0
FFCFE0
0001E0
0001E0
0001E0
ENDCHAR
STARTCHAR 33C9
ENCODING 10093
SWIDTH 2400 0
DWIDTH 24 0
BBX 18 18 1 -3
BITMAP
0F0000
3FC000
79C000
71E000
F1E000
F00000
F030C0
FFD9C0
FFD980
F79D80
F78F80
778F00
778700
3F8700
1D8600
001E00
001E00
000C00
ENDCHAR
STARTCHAR 33DC
ENCODING 10094
SWIDTH 2400 0
DWIDTH 24 0
BBX 18 13 1 0
BITMAP
3E0000
770000
E18000
E00000
7031C0
7E3180
1FB980
01DB80
00DF00
00CF00
61CF00
7F8E00
3F0600
ENDCHAR
STARTCHAR 33C6
ENCODING 10095
SWIDTH 2400 0
DWIDTH 24 0
BBX 20 15 0 -2
BITMAP
010000
716000
F96000
DB6000
CF6010
C37DF0
C37B60
C37360
C273E0
CA79C0
FA7BC0
7A69F0
226F30
0603F0
0001E0
ENDCHAR
STARTCHAR 00C6
ENCODING 10273
SWIDTH 2400 0
DWIDTH 24 0
BBX 15 13 3 0
BITMAP
07FE
07FE
0F80
0F80
1F80
1FFC
3FFC
3F80
3380
7380
7380
E3FE
E3FE
ENDCHAR
STARTCHAR 00D0
ENCODING 10274
SWIDTH 2400 0
DWIDTH 24 0
BBX 13 13 4 0
BITMAP
1F80
1FE0
1EF0
1E78
FFF8
FFF8
1E78
1E78
1E78
1E78
1EF0
1FE0
1FC0
ENDCHAR
STARTCHAR 00AA
ENCODING 10275
SWIDTH 2400 0
DWIDTH 24 0
BBX 11 11 5 0
BITMAP
1F00
3F80
2180
1F80
3F80
6380
7FC0
3CC0
0000
FFE0
FFE0
ENDCHAR
STARTCHAR 0126
ENCODING 10276
SWIDTH 2400 0
DWIDTH 24 0
BBX 17 14 2 0
BITMAP
3C1E00
3C1E00
3C1E00
FFFF80
FFFF80
3C1E00
3FFE00
3FFE00
3C1E00
3C1E00
3C1E00
3C1E00
3C1E00
3C1E00
ENDCHAR
STARTCHAR 0132
ENCODING 10278
SWIDTH 2400 0
DWIDTH 24 0
BBX 12 16 4 -2
BITMAP
F070
F070
F070
F070
F070
F070
F070
F070
F070
F070
F070
F070
F070
F770
07F0
03E0
ENDCHAR
STARTCHAR 013F
ENCODING 10280
SWIDTH 2400 0
DWIDTH 24 0
BBX 13 14 5 0
BITMAP
F000
F000
F000
F000
F000
F0F0
F0F0
F060
F000
F000
F000
F000
FFF8
FFF8
ENDCHAR
STARTCHAR 0141
ENCODING 10281
SWIDTH 2400 0
DWIDTH 24 0
BBX 15 14 2 0
BITMAP
1E00
1E00
1E40
1FE0
1FE0
7F00
FE00
5E00
1E00
1E00
1E00
1E00
1FFE
1FFE
ENDCHAR
STARTCHAR 00D8
ENCODING 10282
SWIDTH 2400 0
DWIDTH 24 0
BBX 15 14 3 -1
BITMAP
0008
07DE
3FFC
7FF8
F8FC
F1DE
F39E
F31E
FF1E
7E3C
3FFC
7FF0
E7C0
4000
ENDCHAR
STARTCHAR 0152
ENCODING 10283
SWIDTH 2400 0
DWIDTH 24 0
BBX 15 13 3 0
BITMAP
1FFE
3FFE
78FE
F840
F020
F03E
F03E
F020
F020
F840
78C0
3FFE
1FFE
ENDCHAR
STARTCHAR 00BA
ENCODING 10284
SWIDTH 2400 0
DWIDTH 24 0
BBX 9 10 6 0
BITMAP
0C00
3F00
7700
7300
7300
3F00
1E00
0000
FF80
FF80
ENDCHAR
STARTCHAR 00DE
ENCODING 10285
SWIDTH 2400 0
DWIDTH 24 0
BBX 11 14 5 -1
BITMAP
F000
F000
FF00
FFC0
F3C0
F1E0
F1E0
F1E0
F1E0
F3E0
FFC0
FF80
F000
F000
ENDCHAR
STARTCHAR 0166
ENCODING 10286
SWIDTH 2400 0
DWIDTH 24 0
BBX 14 14 4 0
BITMAP
FFFC
FFFC
0780
0780
0780
0780
7FF8
7FF8
0380
0380
0380
0380
0780
0780
ENDCHAR
STARTCHAR 014A
ENCODING 10287
SWIDTH 2400 0
DWIDTH 24 0
BBX 11 14 6 0
BITMAP
F000
F000
F000
F000
F300
FFC0
FFC0
F0E0
F0E0
F0E0
F0E0
F1C0
F380
F100
ENDCHAR
STARTCHAR 3260
ENCODING 10289
SWIDTH 2400 0
DWIDTH 24 0
BBX 20 18 0 -3
BITMAP
01FE00
07FF80
1F03E0
3E01F0
7FFFF0
7FFF70
F00F30
F00F30
F00F30
F00F30
F00F30
F00F30
780F70
7C0FF0
3E01F0
1F03E0
07FF80
01FE00
ENDCHAR
STARTCHAR 3261
ENCODING 10290
SWIDTH 2400 0
DWIDTH 24 0
BBX 20 18 0 -3
BITMAP
01FE00
07FF80
1F03E0
3E01F0
7F00F0
7F0070
FF0030
FF0030
FF0030
FF0030
FF0030
FF0030
7FFE70
7FFEF0
3E01F0
1F03E0
07FF80
01FE00
ENDCHAR
STARTCHAR 3262
ENCODING 10291
SWIDTH 2400 0
DWIDTH 24 0
BBX 20 18 0 -3
BITMAP
01FE00
07FF80
1F03E0
3E01F0
7FFEF0
7FFE70
F78030
F78030
F78030
F78030
F78030
F78030
7FFE70
7FFEF0
3E01F0
1F03E0
07FF80
01FE00
ENDCHAR
STARTCHAR 3263
ENCODING 10292
SWIDTH 2400 0
DWIDTH 24 0
BBX 20 18 -1 -3
BITMAP
00FE00
07FFC0
1F83F0
3E00F0
7FFF70
7FFF30
F00F10
F00F10
F7FF10
F7FF10
F78010
F78010
7FFF30
3FFF70
3E00F0
0F83E0
07FFC0
00FE00
ENDCHAR
STARTCHAR 3264
ENCODING 10293
SWIDTH 2400 0
DWIDTH 24 0
BBX 20 18 0 -3
BITMAP
01FE00
07FF80
1F03E0
3E01F0
7FFFF0
7FFF70
F78F30
F78F30
F78F30
F78F30
F78F30
F78F30
7FFF70
7FFFF0
3E01F0
1F03E0
07FF80
01FE00
ENDCHAR
STARTCHAR 3265
ENCODING 10294
SWIDTH 2400 0
DWIDTH 24 0
BBX 20 18 0 -3
BITMAP
01FE00
07FF80
1F03E0
3E01F0
7F9EF0
7F9E70
F79E30
F7FE30
F7FE30
F79E30
F79E30
F79E30
7FFE70
7FFEF0
3E01F0
1F03E0
07FF80
01FE00
ENDCHAR
STARTCHAR 3266
ENCODING 10295
SWIDTH 2400 0
DWIDTH 24 0
BBX 20 18 0 -3
BITMAP
01FE00
07FF80
1F03E0
3EF1F0
7CF0F0
78F070
F0F030
F0F030
F0F030
F0F030
F1F830
F7FE30
7F9F70
7E06F0
3E01F0
1F03E0
07FF80
01FE00
ENDCHAR
STARTCHAR 3267
ENCODING 10296
SWIDTH 2400 0
DWIDTH 24 0
BBX 20 18 0 -3
BITMAP
01FE00
07FF80
1F03E0
3E01F0
7CFCF0
7BFE70
F78F30
FF07B0
FF07B0
FF07B0
FF07B0
F78F30
7BFE70
7DF8F0
3E01F0
1F03E0
07FF80
01FE00
ENDCHAR
STARTCHAR 3268
ENCODING 10297
SWIDTH 2400 0
DWIDTH 24 0
BBX 20 18 0 -3
BITMAP
01FE00
07FF80
1F03E0
3E01F0
7FFEF0
7FFE70
F1E030
F1E030
F1E030
F1E030
F1F030
F7F830
7FFE70
3E1CF0
3E05F0
0F03C0
07FF80
00FC00
ENDCHAR
STARTCHAR 3269
ENCODING 10298
SWIDTH 2400 0
DWIDTH 24 0
BBX 20 18 0 -3
BITMAP
01FE00
07FF80
1F03E0
3E79F0
7C78F0
7FFFF0
F7FFB0
F07830
F07830
F07830
F0FC30
F1FE30
7FFFF0
7FC7F0
3E01F0
1F03E0
07FF80
01FE00
ENDCHAR
STARTCHAR 326A
ENCODING 10299
SWIDTH 2400 0
DWIDTH 24 0
BBX 20 18 -1 -3
BITMAP
00FE00
07FFC0
0F83E0
3E00F0
7FFF70
7BFF30
F00F10
F00F10
F3FF10
F3FF10
F00F10
F00F10
780F30
7C0F70
3E00F0
0F83E0
07FFC0
00FE00
ENDCHAR
STARTCHAR 326B
ENCODING 10300
SWIDTH 2400 0
DWIDTH 24 0
BBX 20 18 0 -3
BITMAP
01FE00
07FF80
1F03E0
3E01F0
7FFEF0
7FFE70
F78030
F78030
F7FE30
F7FE30
F78030
F78030
7FFE70
7FFEF0
3E01F0
1F03E0
07FF80
01FE00
ENDCHAR
STARTCHAR 326C
ENCODING 10301
SWIDTH 2400 0
DWIDTH 24 0
BBX 20 18 0 -3
BITMAP
01FE00
07FF80
1F03E0
3E01F0
7FFFF0
7FFFF0
F79E30
F79E30
F79E30
F79E30
F79E30
F79E30
7FFFF0
7FFFF0
3E01F0
1F03E0
07FF80
01FE00
ENDCHAR
STARTCHAR 326D
ENCODING 10302
SWIDTH 2400 0
DWIDTH 24 0
BBX 20 18 -1 -3
BITMAP
00FE00
07FFC0
0F01E0
3C7870
787830
77FFD0
F7FFD0
F3FF90
F7EF90
F783D0
F783D0
F783F0
7BC7B0
7DFFF0
3EFEF0
0F83E0
07FFC0
00FE00
ENDCHAR
STARTCHAR 326E
ENCODING 10303
SWIDTH 2400 0
DWIDTH 24 0
BBX 20 18 0 -3
BITMAP
01FE00
07FF80
1F03E0
3E0FF0
7FEFF0
7FEF70
F1EF30
F1EFF0
F1EFF0
F3CF30
F7CF30
FF8F30
7E0F70
7C0FF0
3E01F0
1F03E0
07FF80
01FE00
ENDCHAR
STARTCHAR 326F
ENCODING 10304
SWIDTH 2400 0
DWIDTH 24 0
BBX 20 18 0 -3
BITMAP
01FE00
07FF80
1F03E0
3E01F0
7C0FF0
7F8F70
F78F30
F78F30
F78FF0
F78FF0
F78F30
F7FF30
7FFF70
7C0FF0
3E0FF0
1F03E0
07FF80
01FE00
ENDCHAR
STARTCHAR 3270
ENCODING 10305
SWIDTH 2400 0
DWIDTH 24 0
BBX 20 18 -1 -3
BITMAP
00FE00
07FFC0
1F83F0
3E00F0
7FFFF0
7BFFB0
F3C790
F3C790
F3C7F0
F3C7F0
F3C790
F3FF90
7BFFB0
7C07F0
3E00F0
0F83E0
07FFC0
00FE00
ENDCHAR
STARTCHAR 3271
ENCODING 10306
SWIDTH 2400 0
DWIDTH 24 0
BBX 20 18 0 -3
BITMAP
01FE00
07FF80
1F03E0
3C00F0
7FFE70
7FFE70
F1FE30
F7FE30
F7FFB0
F79FB0
F79E30
F7FE70
7FFE70
3C1EF0
3E01F0
0F87C0
07FF80
00FC00
ENDCHAR
STARTCHAR 3272
ENCODING 10307
SWIDTH 2400 0
DWIDTH 24 0
BBX 20 18 0 -3
BITMAP
01FC00
07FF00
1F07C0
3C01E0
7FEFF0
7FEFF0
FFEF70
FFEF70
FFEFF0
FFEFF0
FFEF70
FFEF70
7FEFF0
780FF0
3C01E0
1F07C0
07FF00
01FC00
ENDCHAR
STARTCHAR 3273
ENCODING 10308
SWIDTH 2400 0
DWIDTH 24 0
BBX 20 18 0 -3
BITMAP
01F800
0FFF00
1F0F80
3C03C0
7FFDE0
7FFDE0
FFFCF0
FFFCF0
FFFFF0
FFFFF0
FFFCF0
FFFCF0
7FFDE0
781DE0
3C03C0
1F0F80
0FFF00
01F800
ENDCHAR
STARTCHAR 3274
ENCODING 10309
SWIDTH 2400 0
DWIDTH 24 0
BBX 20 18 2 -3
BITMAP
01FC00
07FF00
0C1F80
1007C0
3E7BE0
5E79E0
9E79F0
9E78F0
9E7EF0
BE7EF0
7FF8F0
7BF8F0
60F9E0
207BE0
1007C0
081F80
07FE00
00F800
ENDCHAR
STARTCHAR 3275
ENCODING 10310
SWIDTH 2400 0
DWIDTH 24 0
BBX 20 18 0 -3
BITMAP
01FC00
07FF00
1F07C0
3C03E0
7BE7F0
7FF6F0
FF7E70
FF7E70
FF7FF0
FF7FF0
FF7E70
F7F670
7BE6F0
7806E0
3C01E0
1F0780
07FF00
00F800
ENDCHAR
STARTCHAR 3276
ENCODING 10311
SWIDTH 2400 0
DWIDTH 24 0
BBX 20 18 0 -3
BITMAP
01F800
0FFF00
1F0F80
3C03C0
7FFDE0
7FF5E0
F1ECF0
F1ECF0
F1EFF0
F1EFF0
F7F4F0
FF34F0
7C15E0
780DE0
3C03C0
1F0F80
0FFF00
01F800
ENDCHAR
STARTCHAR 3277
ENCODING 10312
SWIDTH 2400 0
DWIDTH 24 0
BBX 20 18 0 -3
BITMAP
01FC00
07FF00
1F07C0
3C01E0
7F87F0
7FE6F0
FFE670
F78670
F787F0
F787F0
FFE670
FFF670
7866F0
7806E0
3C07E0
1F07C0
07FF00
00F800
ENDCHAR
STARTCHAR 3278
ENCODING 10313
SWIDTH 2400 0
DWIDTH 24 0
BBX 20 18 0 -3
BITMAP
01FC00
07FF00
1F07C0
3C01E0
7FE7F0
7FE6F0
F06670
F7E7F0
F7E7F0
F0E670
F1E670
F7C670
7F06F0
7807F0
3C07E0
1F07C0
0FFF80
03FE00
ENDCHAR
STARTCHAR 3279
ENCODING 10314
SWIDTH 2400 0
DWIDTH 24 0
BBX 19 18 3 -3
BITMAP
03F800
0FFE00
183F00
207F80
FF7FC0
FF7BC0
F079E0
FF7FE0
FF7FE0
F079E0
F079E0
FFF9E0
FFFBC0
407FC0
207F80
183F00
0FFE00
03F800
ENDCHAR
STARTCHAR 327A
ENCODING 10315
SWIDTH 2400 0
DWIDTH 24 0
BBX 20 18 -1 -3
BITMAP
00FE00
07FFC0
1F83F0
3E00F0
7C0F70
7FFF30
FFFF10
F7FF10
F7FFD0
F7FFD0
F7FF10
FFFF10
7FFF30
3C0F70
1E00F0
0F03E0
07FF80
00FC00
ENDCHAR
STARTCHAR 327B
ENCODING 10316
SWIDTH 2400 0
DWIDTH 24 0
BBX 20 16 0 -3
BITMAP
03FC00
0FFF00
1F9180
3FFDC0
7FFFE0
F7EFF0
FE7EF0
FE7FF0
FE7FF0
F7EEF0
F7EFF0
780FE0
3C0DC0
1F1180
0FFF00
03FC00
ENDCHAR
STARTCHAR 24D0
ENCODING 10317
SWIDTH 2400 0
DWIDTH 24 0
BBX 20 18 -1 -3
BITMAP
00FE00
07FFC0
1F83E0
3E00F0
7DFC70
7BFE30
F10E10
F0FE10
F1FE10
F38610
F30E10
F3BF10
7BFF30
3CE070
3E00F0
0F83E0
07FFC0
00FE00
ENDCHAR
STARTCHAR 24D1
ENCODING 10318
SWIDTH 2400 0
DWIDTH 24 0
BBX 20 18 0 -3
BITMAP
01FE00
07FF80
1F03E0
3FC1F0
7FC0F0
7BC070
F3FC30
F3FE30
F3DE30
F3DE30
F3DE30
F3DE30
7BFC70
7FFCF0
3F81F0
1F03E0
07FF80
01FE00
ENDCHAR
STARTCHAR 24D2
ENCODING 10319
SWIDTH 2400 0
DWIDTH 24 0
BBX 20 18 0 -3
BITMAP
01FE00
07FF80
1F03E0
3E01F0
7CF0F0
7BFC70
F39C30
F30030
F70030
F70030
F70630
F38E30
7BFC70
7CF8F0
3E01F0
1F03E0
07FF80
01FE00
ENDCHAR
STARTCHAR 24D3
ENCODING 10320
SWIDTH 2400 0
DWIDTH 24 0
BBX 20 18 0 -3
BITMAP
01FE00
07FF80
1F03E0
3E3DF0
7C3CF0
783C70
F1FC30
F3FC30
F7BC30
F7BC30
F7BC30
F7BC30
7FBC70
7FFCF0
3FFDF0
1F03E0
07FF80
01FE00
ENDCHAR
STARTCHAR 24D4
ENCODING 10321
SWIDTH 2400 0
DWIDTH 24 0
BBX 20 18 0 -3
BITMAP
01FE00
07FF80
1F03E0
3E01F0
7CF0F0
7BFC70
F71C30
F70E30
F7FE30
F7FE30
F70E30
F70E30
7BFC70
7CF8F0
3E01F0
1F03E0
07FF80
01FE00
ENDCHAR
STARTCHAR 24D5
ENCODING 10322
SWIDTH 2400 0
DWIDTH 24 0
BBX 20 18 0 -3
BITMAP
01FE00
07FF80
1F03E0
3E71F0
7DF8F0
79E070
F1E030
FFFC30
FFFC30
F1E030
F1E030
F1E030
79E070
7DE0F0
3FE1F0
1F03E0
07FF80
01FE00
ENDCHAR
STARTCHAR 24D6
ENCODING 10323
SWIDTH 2400 0
DWIDTH 24 0
BBX 20 18 0 -3
BITMAP
01FE00
07FF80
1F03E0
3E01F0
7CFFF0
7BFF70
F78F30
F78F30
F78F30
F78F30
F3FF30
F0FF30
7B0F70
7FFEF0
3FFDF0
1F03E0
07FF80
01FE00
ENDCHAR
STARTCHAR 24D7
ENCODING 10324
SWIDTH 2400 0
DWIDTH 24 0
BBX 20 18 0 -3
BITMAP
01FE00
07FF80
1F03E0
3E01F0
7F00F0
7F0070
FF7C30
FFFE30
FF8F30
FF0F30
FF0F30
FF0F30
7F0F70
7F0FF0
3E01F0
1F03E0
07FF80
01FE00
ENDCHAR
STARTCHAR 24D8
ENCODING 10325
SWIDTH 2400 0
DWIDTH 24 0
BBX 20 18 0 -3
BITMAP
01FE00
07FF80
1F03E0
3E61F0
7CF0F0
786070
F07830
F07830
F07830
F07830
F07830
F07830
787870
7C78F0
3E79F0
1F03E0
07FF80
01FE00
ENDCHAR
STARTCHAR 24D9
ENCODING 10326
SWIDTH 2400 0
DWIDTH 24 0
BBX 20 18 2 -3
BITMAP
01FC00
07FF00
0C1F80
10E7C0
20E3E0
40C1E0
80E0F0
80E0F0
80F0F0
80F0F0
80F0F0
80F0F0
40F1E0
23F3E0
13E7C0
0F9F80
07FF00
01FC00
ENDCHAR
STARTCHAR 24DA
ENCODING 10327
SWIDTH 2400 0
DWIDTH 24 0
BBX 20 18 0 -3
BITMAP
01FE00
07FF80
1F03E0
3E01F0
7F00F0
7F0070
FF1E30
FF7C30
FFF030
FFF030
FFF030
FF3830
7F1C70
7F1EF0
3E01F0
1F03E0
07FF80
01FE00
ENDCHAR
STARTCHAR 24DB
ENCODING 10328
SWIDTH 2400 0
DWIDTH 24 0
BBX 20 18 0 -3
BITMAP
01FE00
07FF80
1F03E0
3E01F0
7C78F0
787870
F07830
F07830
F07830
F07830
F07830
F07830
787870
7C78F0
3E01F0
1F03E0
07FF80
01FE00
ENDCHAR
STARTCHAR 24DC
ENCODING 10329
SWIDTH 2400 0
DWIDTH 24 0
BBX 20 18 0 -3
BITMAP
01FE00
07FF80
1F03E0
3E01F0
7C00F0
7FBE70
FFFF30
FE7F30
FE7F30
FE7F30
FE7F30
FE7F30
7E7F70
7C0FF0
3E01F0
1F03E0
07FF80
01FE00
ENDCHAR
STARTCHAR 24DD
ENCODING 10330
SWIDTH 2400 0
DWIDTH 24 0
BBX 20 18 0 -3
BITMAP
01FE00
07FF80
1F03E0
3E01F0
7C00F0
7BFC70
F3FF30
F3CF30
F3CF30
F3CF30
F3CF30
F3CF30
7BCF70
7C00F0
3E01F0
1F03E0
07FF80
01FE00
ENDCHAR
STARTCHAR 24DE
ENCODING 10331
SWIDTH 2400 0
DWIDTH 24 0
BBX 20 18 0 -3
BITMAP
01FE00
07FF80
1F03E0
3E01F0
7CFCF0
7BFE70
F78F30
FF07B0
FF07B0
FF07B0
FF07B0
F78F30
7BFE70
7DFCF0
3E01F0
1F03E0
07FF80
01FE00
ENDCHAR
STARTCHAR 24DF
ENCODING 10332
SWIDTH 2400 0
DWIDTH 24 0
BBX 20 18 -1 -3
BITMAP
00FE00
07FFC0
1F83E0
3E00F0
7FFF70
7BFFB0
F3C3D0
F3C3D0
F3C3D0
F3C3D0
F3FF90
F3FF90
7BC030
7FC070
3FC0F0
0F83E0
07FFC0
00FE00
ENDCHAR
STARTCHAR 24E0
ENCODING 10333
SWIDTH 2400 0
DWIDTH 24 0
BBX 20 18 0 -3
BITMAP
01FE00
07FF80
1F03E0
3FDFF0
7FFEF0
7F3E70
FE1E30
FE1E30
FE1E30
FF1E30
F7FE30
F3FE30
781E70
7C1EF0
3E1FF0
1F03E0
07FF80
01FE00
ENDCHAR
STARTCHAR 24E1
ENCODING 10334
SWIDTH 2400 0
DWIDTH 24 0
BBX 20 18 0 -3
BITMAP
01FE00
07FF80
1F03E0
3E01F0
7F98F0
7FFE70
F7EF30
F7C730
F78030
F78030
F78030
F78030
7F8070
7F80F0
3E01F0
1F03E0
07FF80
01FE00
ENDCHAR
STARTCHAR 24E2
ENCODING 10335
SWIDTH 2400 0
DWIDTH 24 0
BBX 20 18 2 -3
BITMAP
01FC00
07FF00
0C1F80
1007C0
23C3E0
47F1E0
8E70F0
8E00F0
8FC0F0
87E0F0
9C70F0
9E70F0
4FF1E0
27E3E0
1187C0
081F80
07FF00
01FC00
ENDCHAR
STARTCHAR 24E3
ENCODING 10336
SWIDTH 2400 0
DWIDTH 24 0
BBX 20 18 0 -3
BITMAP
01FE00
07FF80
1F03E0
3FE1F0
7DE0F0
79E070
FFFC30
FFFC30
F1E030
F1E030
F1E030
F1E030
79FE70
7DFCF0
3EF9F0
1F03E0
07FF80
01FE00
ENDCHAR
STARTCHAR 24E4
ENCODING 10337
SWIDTH 2400 0
DWIDTH 24 0
BBX 20 18 0 -3
BITMAP
01FE00
07FF80
1F03E0
3E01F0
7FCFF0
7BCF70
F3CF30
F3CF30
F3CF30
F3CF30
F3CF30
F3FF30
79FF70
7C00F0
3E01F0
1F03E0
07FF80
01FE00
ENDCHAR
STARTCHAR 24E5
ENCODING 10338
SWIDTH 2400 0
DWIDTH 24 0
BBX 20 18 0 -3
BITMAP
01FE00
07FF80
1F03E0
3E01F0
7C00F0
7E0770
FE0630
F70E30
F71C30
F39C30
F1B830
F1F830
78F070
7CF0F0
3E61F0
1F03E0
07FF80
01FE00
ENDCHAR
STARTCHAR 24E6
ENCODING 10339
SWIDTH 2400 0
DWIDTH 24 0
BBX 20 18 2 -3
BITMAP
01FC00
07FF00
0C1F80
1007C0
2003E0
39DDE0
D9D8F0
99D8F0
9FD8F0
8FF8F0
8F78F0
8F70F0
4771E0
2773E0
1007C0
0C1F80
07FF00
01FC00
ENDCHAR
STARTCHAR 24E7
ENCODING 10340
SWIDTH 2400 0
DWIDTH 24 0
BBX 20 16 0 -3
BITMAP
01FE00
07FF80
190DE0
3F9EF0
7BDC70
79F870
F0F830
F0F030
F0F030
F0F830
79F870
7BDC70
3F9CF0
190FE0
07FF80
01FE00
ENDCHAR
STARTCHAR 24E8
ENCODING 10341
SWIDTH 2400 0
DWIDTH 24 0
BBX 20 18 0 -3
BITMAP
01FE00
07FF80
1F03E0
3E01F0
7F8EF0
7B8C70
F1DC30
F1DC30
F0F830
F07830
F07030
F07030
7AE070
7FE0F0
3FC1F0
1F03E0
07FF80
01FE00
ENDCHAR
STARTCHAR 24E9
ENCODING 10342
SWIDTH 2400 0
DWIDTH 24 0
BBX 20 18 0 -3
BITMAP
01FE00
07FF80
1F03E0
3E01F0
7FFEF0
7FFE70
F01E30
F03830
F07030
F0E030
F1C030
F78030
7FFE70
7FFEF0
3E01F0
1F03E0
07FF80
01FE00
ENDCHAR
STARTCHAR 2460
ENCODING 10343
SWIDTH 2400 0
DWIDTH 24 0
BBX 20 18 0 -3
BITMAP
01FE00
07FF80
1F03E0
3E79F0
7CF8F0
7BF870
F3F830
F07830
F07830
F07830
F07830
F07830
787870
7C78F0
3E79F0
1F03E0
07FF80
01FE00
ENDCHAR
STARTCHAR 2461
ENCODING 10344
SWIDTH 2400 0
DWIDTH 24 0
BBX 20 18 0 -3
BITMAP
01FE00
07FF80
1F03E0
3EE1F0
7FF8F0
7F9C70
F21C30
F01C30
F03830
F0F030
F1E030
F38030
7BFC70
7FFCF0
3E01F0
1F03E0
07FF80
01FE00
ENDCHAR
STARTCHAR 2462
ENCODING 10345
SWIDTH 2400 0
DWIDTH 24 0
BBX 20 18 -1 -3
BITMAP
00FE00
07FFC0
1F83E0
3E00F0
7C7C70
78FE30
F0C610
F00610
F03E10
F03E10
F00710
F08710
79C730
3CFE70
3E7CF0
0F83E0
07FFC0
00FE00
ENDCHAR
STARTCHAR 2463
ENCODING 10346
SWIDTH 2400 0
DWIDTH 24 0
BBX 20 18 0 -3
BITMAP
01FE00
07FF80
1F03E0
3E01F0
7C7CF0
787C70
F0FC30
F1FC30
F3DC30
F3BC30
F7FF30
F7FF30
783C70
7C3CF0
3E01F0
1F03E0
07FF80
01FE00
ENDCHAR
STARTCHAR 2464
ENCODING 10347
SWIDTH 2400 0
DWIDTH 24 0
BBX 20 18 -1 -3
BITMAP
00FE00
07FFC0
1F83E0
3E00F0
7DFE70
79FE30
F1C010
F1FC10
F1FE10
F1CF10
F00710
F08710
79CE30
7CFE70
3E78F0
1F83E0
07FFC0
00FE00
ENDCHAR
STARTCHAR 2465
ENCODING 10348
SWIDTH 2400 0
DWIDTH 24 0
BBX 20 18 0 -3
BITMAP
01FE00
07FF80
1F03E0
3E01F0
7C38F0
78F870
F1E030
F1E030
F3F830
F3FC30
F23C30
F23C30
7BFC70
7DF8F0
3EE1F0
1F03E0
07FF80
01FE00
ENDCHAR
STARTCHAR 2466
ENCODING 10349
SWIDTH 2400 0
DWIDTH 24 0
BBX 20 18 0 -3
BITMAP
01FE00
07FF80
1F03E0
3E01F0
7FFEF0
7BFE70
F00E30
F01E30
F01C30
F01C30
F03C30
F03C30
787870
7C78F0
3E79F0
1F03E0
07FF80
01FE00
ENDCHAR
STARTCHAR 2467
ENCODING 10350
SWIDTH 2400 0
DWIDTH 24 0
BBX 20 18 0 -3
BITMAP
01FE00
07FF80
1F03E0
3E01F0
7CF8F0
79FC70
F39C30
F1FC30
F1F830
F1FC30
F38C30
F38C30
7BFC70
3DF8F0
3E71F0
0F03C0
07FF80
00FC00
ENDCHAR
STARTCHAR 2468
ENCODING 10351
SWIDTH 2400 0
DWIDTH 24 0
BBX 20 18 0 -3
BITMAP
01FE00
07FF80
1F03E0
3E01F0
7DF8F0
7BFC70
F39C30
F39C30
F1FC30
F1FC30
F01C30
F39C30
79FC70
7DF8F0
3E01F0
1F03E0
07FF80
01FE00
ENDCHAR
STARTCHAR 2469
ENCODING 10352
SWIDTH 2400 0
DWIDTH 24 0
BBX 20 18 0 -3
BITMAP
01FE00
07FF80
1F03E0
3E01F0
7F3EF0
7FFF70
FFF7B0
FFE3F0
FFE3F0
FFE3F0
FFE3F0
FFF3B0
7F7F70
7F3EF0
3E01F0
1F03E0
07FF80
01FE00
ENDCHAR
STARTCHAR 246A
ENCODING 10353
SWIDTH 2400 0
DWIDTH 24 0
BBX 20 18 0 -3
BITMAP
01FE00
07FF80
1F03E0
3E01F0
7FFCF0
7FFC70
FFFC30
F3FC30
F3FC30
F3FC30
F3FC30
F3FC30
7BFC70
7FFCF0
3E01F0
1F03E0
07FF80
01FE00
ENDCHAR
STARTCHAR 246B
ENCODING 10354
SWIDTH 2400 0
DWIDTH 24 0
BBX 20 18 0 -3
BITMAP
01FE00
07FF80
1F3FE0
3E7FF0
7FFFF0
7FC770
FF4730
FF0730
FF0E30
FF1E30
FF1C30
FF3830
7F7070
7FFEF0
3EFFF0
1FFDE0
07FF80
01FE00
ENDCHAR
STARTCHAR 246C
ENCODING 10355
SWIDTH 2400 0
DWIDTH 24 0
BBX 20 18 0 -3
BITMAP
01FE00
07FF80
1F03E0
3E01F0
7F3EF0
7F7F70
FF6730
FF0730
FF1E30
FF1F30
FF0330
FF6330
7FFF70
3F7EF0
3E01F0
0F03C0
07FF80
00FC00
ENDCHAR
STARTCHAR 246D
ENCODING 10356
SWIDTH 2400 0
DWIDTH 24 0
BBX 20 18 -1 -3
BITMAP
00FE00
07FFC0
0F83E0
3E00F0
7F8F70
7F9F30
FFBF10
F7BF10
F7FF10
F7FF10
F7FFD0
F7FFD0
7F8F30
3F8F70
3E00F0
0F83E0
07FFC0
00FE00
ENDCHAR
STARTCHAR 246E
ENCODING 10357
SWIDTH 2400 0
DWIDTH 24 0
BBX 20 18 0 -3
BITMAP
00FE00
07FF80
097CE0
197EF0
337FF0
777070
FF7E30
F77F30
F773B0
F703B0
F701B0
F723B0
7F63F0
7B7FF0
393EF0
191DE0
07FF80
01FE00
ENDCHAR
STARTCHAR 00BD
ENCODING 10358
SWIDTH 2400 0
DWIDTH 24 0
BBX 15 16 2 -3
BITMAP
3004
F00E
F01C
B038
3070
30E0
31C0
33B8
377E
0E7E
0C2E
181C
383C
707E
E07E
4000
ENDCHAR
STARTCHAR 2153
ENCODING 10359
SWIDTH 2400 0
DWIDTH 24 0
BBX 18 17 1 -3
BITMAP
1E0000
3E0400
7E0E00
5E0C00
1E1800
1E3800
1E7000
1EE600
1FDF80
039B80
070180
0E0F80
1C0F80
3819C0
701F80
E00F00
400000
ENDCHAR
STARTCHAR 2154
ENCODING 10360
SWIDTH 2400 0
DWIDTH 24 0
BBX 17 17 2 -3
BITMAP
F80000
F80800
DC0C00
381800
783800
F07000
FCE000
FDCC00
039F00
073B80
0E0380
1C1F00
381F80
703380
E03F80
C01F00
800000
ENDCHAR
STARTCHAR 00BC
ENCODING 10361
SWIDTH 2400 0
DWIDTH 24 0
BBX 16 16 2 -3
BITMAP
3C04
7C0E
FC1C
BC38
3C30
3C70
3CE0
3DFC
3FFC
07FC
0EEC
1DEC
3BFF
73FF
603C
4000
ENDCHAR
STARTCHAR 00BE
ENCODING 10362
SWIDTH 2400 0
DWIDTH 24 0
BBX 16 16 2 -3
BITMAP
7802
FC07
CC06
7C0C
7C18
4C30
FC60
FCEE
79DE
039E
073E
0E6E
1CFF
38FF
700E
6000
ENDCHAR
STARTCHAR 215B
ENCODING 10363
SWIDTH 2400 0
DWIDTH 24 0
BBX 19 17 0 -3
BITMAP
3C0000
7C0200
FC0700
BC0E00
3C1C00
3C3800
3C7000
3CE780
3DCFC0
039CC0
070DC0
0E0FC0
1C1CE0
381CE0
301FC0
600F80
200000
ENDCHAR
STARTCHAR 215C
ENCODING 10364
SWIDTH 2400 0
DWIDTH 24 0
BBX 18 17 1 -3
BITMAP
7C0000
FE0400
4E0E00
3C1C00
3E3800
4E7000
FE6000
7CEF80
01DFC0
039DC0
071DC0
0E0FC0
1C1DC0
381CC0
701FC0
E00F80
400000
ENDCHAR
STARTCHAR 215D
ENCODING 10365
SWIDTH 2400 0
DWIDTH 24 0
BBX 19 17 1 -3
BITMAP
FE0000
FE0200
E00700
FC0E00
FE1C00
EE3800
467000
EEE780
7CCFC0
399CC0
038DC0
070FC0
0E1DE0
1C1CE0
381FC0
700F80
200000
ENDCHAR
STARTCHAR 215E
ENCODING 10366
SWIDTH 2400 0
DWIDTH 24 0
BBX 18 17 1 -3
BITMAP
7F0000
7F0400
060E00
0E0C00
0C1800
1C3800
1C7000
18E700
39DFC0
039DC0
071FC0
0E0F80
1C1DC0
381DC0
701FC0
E00F80
400000
ENDCHAR
STARTCHAR 00E6
ENCODING 10529
SWIDTH 2400 0
DWIDTH 24 0
BBX 13 10 4 0
BITMAP
3DE0
FFF0
E738
0718
7FF8
FFF8
E700
E738
FFF8
79E0
ENDCHAR
STARTCHAR 0111
ENCODING 10530
SWIDTH 2400 0
DWIDTH 24 0
BBX 15 14 4 0
BITMAP
00F0
00F0
00F0
7FFE
7FFE
00F0
7FF0
7FF0
F0F0
F0F0
F0F0
F9F0
7FF0
1F70
ENDCHAR
STARTCHAR 00F0
ENCODING 10531
SWIDTH 2400 0
DWIDTH 24 0
BBX 12 14 4 0
BITMAP
0020
0F70
3FE0
3FE0
79F0
77F0
0E70
0030
FFF0
7FF0
6030
7070
3FE0
0F80
ENDCHAR
STARTCHAR 0127
ENCODING 10532
SWIDTH 2400 0
DWIDTH 24 0
BBX 13 14 3 0
BITMAP
3C00
3C00
FFF0
FFF0
3C00
3C00
3FF0
3EF8
3C78
3C78
3C78
3C78
3C78
3C78
ENDCHAR
STARTCHAR 0131
ENCODING 10533
SWIDTH 2400 0
DWIDTH 24 0
BBX 4 14 9 0
BITMAP
F0
F0
F0
F0
F0
F0
F0
F0
F0
F0
F0
F0
F0
F0
ENDCHAR
STARTCHAR 0133
ENCODING 10534
SWIDTH 2400 0
DWIDTH 24 0
BBX 12 16 4 -2
BITMAP
7060
70F0
7060
0000
F1E0
F1E0
F1E0
F1E0
F1E0
F1E0
F1E0
F1E0
F1E0
F1E0
07E0
07C0
ENDCHAR
STARTCHAR 0138
ENCODING 10535
SWIDTH 2400 0
DWIDTH 24 0
BBX 13 13 3 0
BITMAP
F000
F000
F000
F0F8
F1E0
F3C0
FF00
FF00
FF80
F1C0
F0E0
F0F0
F078
ENDCHAR
STARTCHAR 0140
ENCODING 10536
SWIDTH 2400 0
DWIDTH 24 0
BBX 8 14 7 0
BITMAP
F0
F0
F0
F0
F0
F2
F7
F7
F2
F0
F0
F0
F0
F0
ENDCHAR
STARTCHAR 0142
ENCODING 10537
SWIDTH 2400 0
DWIDTH 24 0
BBX 14 14 4 0
BITMAP
079C
07B8
07B0
07F0
07E0
07C0
07C0
0F80
0F80
1F80
3F80
3780
7780
E780
ENDCHAR
STARTCHAR 00F8
ENCODING 10538
SWIDTH 2400 0
DWIDTH 24 0
BBX 13 18 4 -4
BITMAP
0060
0060
00E0
1FC0
3FE0
71F0
E3B0
E338
C738
C638
EE38
EC78
7CF0
7FE0
3FC0
3600
7000
2000
ENDCHAR
STARTCHAR 0153
ENCODING 10539
SWIDTH 2400 0
DWIDTH 24 0
BBX 16 10 2 0
BITMAP
3F7C
7FEE
73C6
F3FF
F3FF
F3C0
F3C0
73C7
7FFE
1E7C
ENDCHAR
STARTCHAR 00DF
ENCODING 10540
SWIDTH 2400 0
DWIDTH 24 0
BBX 13 17 5 -2
BITMAP
1F80
7FC0
FFE0
FFE0
F1E0
F0E0
F0E0
F7F0
F7F8
F078
F078
F070
FEE0
E7C0
E000
E000
E000
ENDCHAR
STARTCHAR 00FE
ENCODING 10541
SWIDTH 2400 0
DWIDTH 24 0
BBX 11 14 4 -1
BITMAP
F000
F000
FC00
FFC0
FFE0
F0E0
F060
F060
F060
F0E0
FFC0
FF80
F000
F000
ENDCHAR
STARTCHAR 0167
ENCODING 10542
SWIDTH 2400 0
DWIDTH 24 0
BBX 11 16 6 -2
BITMAP
1E00
1EE0
1FE0
FF00
FE00
1E00
1E00
FFE0
FFE0
1E00
1E00
1E00
1E00
1FE0
1FE0
0F80
ENDCHAR
STARTCHAR 014B
ENCODING 10543
SWIDTH 2400 0
DWIDTH 24 0
BBX 11 12 5 -2
BITMAP
E000
FFC0
FBE0
F1E0
F1E0
F1E0
F1E0
F1E0
01E0
1BC0
3F80
1E00
ENDCHAR
STARTCHAR 0149
ENCODING 10544
SWIDTH 2400 0
DWIDTH 24 0
BBX 11 11 6 0
BITMAP
0600
FFC0
FBE0
F1E0
F1E0
F1E0
F1E0
F1E0
F1E0
F1E0
F1E0
ENDCHAR
STARTCHAR 3200
ENCODING 10545
SWIDTH 2400 0
DWIDTH 24 0
BBX 20 16 0 -2
BITMAP
0C0300
1E0380
3FFFC0
7FFFE0
701EE0
F01EF0
F01EF0
F01EF0
F01EF0
F01EF0
781FE0
781FE0
3C1FC0
1C0380
0F0F00
060600
ENDCHAR
STARTCHAR 3201
ENCODING 10546
SWIDTH 2400 0
DWIDTH 24 0
BBX 20 16 0 -2
BITMAP
180300
380380
3001C0
7F01E0
6F00E0
6F00F0
EF00F0
EF00F0
EF00F0
6F00F0
6F01E0
7FFFE0
37FFC0
380780
1C0F00
080000
ENDCHAR
STARTCHAR 3202
ENCODING 10547
SWIDTH 2400 0
DWIDTH 24 0
BBX 20 16 0 -2
BITMAP
040180
1E01C0
3C00E0
7FFE60
77FE60
F78070
F78030
F78030
F78030
F78070
7F8060
7FFF60
3FFFE0
1C01C0
0F0380
060100
ENDCHAR
STARTCHAR 3203
ENCODING 10548
SWIDTH 2400 0
DWIDTH 24 0
BBX 20 16 -1 -2
BITMAP
0400C0
1E00E0
3C0070
7BFFB0
73FFB0
F007B0
F00790
F7FF90
F7FF90
F78030
7F8030
7FFF30
3FFF60
1C00E0
0F01C0
060080
ENDCHAR
STARTCHAR 3204
ENCODING 10549
SWIDTH 2400 0
DWIDTH 24 0
BBX 20 16 -1 -2
BITMAP
040180
1E01C0
3FFFE0
7BFFF0
73C7F0
F3C7F0
F3C7F0
F3C7F0
F3C7F0
F3C7F0
F3FFF0
7BFFF0
3CFFE0
1C03C0
0F0780
060000
ENDCHAR
STARTCHAR 3205
ENCODING 10550
SWIDTH 2400 0
DWIDTH 24 0
BBX 20 16 0 -2
BITMAP
0C0300
1E0380
3F8FC0
7F8FE0
778FE0
F7FFF0
F7FFF0
F78FF0
F78FF0
F78FF0
7FFFE0
7BFFE0
3C03C0
1C0780
0F0F00
060000
ENDCHAR
STARTCHAR 3206
ENCODING 10551
SWIDTH 2400 0
DWIDTH 24 0
BBX 20 16 0 -2
BITMAP
040300
1E0380
3CF1C0
78F1E0
70F0E0
F0F0F0
F0F0F0
F0F0F0
F1F8F0
F3FCF0
FFDFE0
7F0FE0
3C03C0
1C0780
0F0F00
060000
ENDCHAR
STARTCHAR 3207
ENCODING 10552
SWIDTH 2400 0
DWIDTH 24 0
BBX 20 16 0 -2
BITMAP
0C0300
1E0380
3CFDC0
7BFFE0
778FE0
FF07F0
FF07F0
FF07F0
FF07F0
F78FF0
F3FFE0
79F9E0
3C03C0
1C0780
0F0F00
060000
ENDCHAR
STARTCHAR 3208
ENCODING 10553
SWIDTH 2400 0
DWIDTH 24 0
BBX 20 16 -1 -2
BITMAP
0C0180
1C03C0
3FFFE0
7FFFF0
70F070
F0F070
F0F070
F0F070
F1F870
F3FC70
7FFF70
7F0FF0
3C00E0
1E01E0
0F0380
060300
ENDCHAR
STARTCHAR 3209
ENCODING 10554
SWIDTH 2400 0
DWIDTH 24 0
BBX 20 16 0 -2
BITMAP
0C0300
1E0380
3C7BC0
7FFFE0
77FFE0
F078F0
F078F0
F078F0
F078F0
F1FEF0
FFFFE0
7FCFE0
3E03C0
1C0380
0F0F00
060600
ENDCHAR
STARTCHAR 320A
ENCODING 10555
SWIDTH 2400 0
DWIDTH 24 0
BBX 20 16 0 -2
BITMAP
0C0300
1E0380
3FFFC0
7BFFE0
700FE0
F00FF0
F00FF0
F7FFF0
F7FFF0
F00FF0
780FE0
780FE0
3C0FC0
1C0F80
0F0F00
060600
ENDCHAR
STARTCHAR 320B
ENCODING 10556
SWIDTH 2400 0
DWIDTH 24 0
BBX 20 16 0 -2
BITMAP
040300
1E0380
3FFFC0
7FFFE0
7780E0
F780F0
F7FEF0
F7FEF0
F780F0
F780F0
FFFFE0
7BFFE0
3C03C0
1C0780
0F0F00
060000
ENDCHAR
STARTCHAR 320C
ENCODING 10557
SWIDTH 2400 0
DWIDTH 24 0
BBX 20 16 0 -2
BITMAP
0C0180
1E01C0
3C00E0
7FFFE0
7FFFE0
F79E70
F79E30
F79E30
F79E30
F79E70
FFFFE0
7FFFE0
3C00C0
1C01C0
0F0380
060100
ENDCHAR
STARTCHAR 320D
ENCODING 10558
SWIDTH 2400 0
DWIDTH 24 0
BBX 20 16 -1 -2
BITMAP
0C0180
1E01C0
3C79E0
7878F0
77FFF0
F7FFF0
F3FF70
F7CFF0
F787F0
F787F0
7F87F0
7BCFF0
3DFFE0
1CFDC0
0F0780
060300
ENDCHAR
STARTCHAR 320E
ENCODING 10559
SWIDTH 2400 0
DWIDTH 24 0
BBX 20 16 -1 -2
BITMAP
0C0180
1E0FC0
3FFFE0
7FFFF0
70FF70
F0FFF0
F0FFF0
F1EF70
F3EF70
FF8F70
FF0FF0
780FF0
3C0FE0
1C01C0
0F0780
060300
ENDCHAR
STARTCHAR 320F
ENCODING 10560
SWIDTH 2400 0
DWIDTH 24 0
BBX 20 16 -1 -2
BITMAP
0C00C0
1E00E0
3FC7E0
7BC7B0
73C7B0
F3C7B0
F3C790
F3C7F0
F3C7F0
F3FFB0
7BFFB0
7807B0
3C07E0
1C00E0
0F01C0
060080
ENDCHAR
STARTCHAR 3210
ENCODING 10561
SWIDTH 2400 0
DWIDTH 24 0
BBX 20 16 -1 -2
BITMAP
0C0180
1E0FC0
3FFFE0
7BFFF0
73CF70
F3CF70
F3CFF0
F3CFF0
F3CF70
F3FF70
73FFF0
780FF0
3C0FE0
1C03C0
0F0780
060300
ENDCHAR
STARTCHAR 3211
ENCODING 10562
SWIDTH 2400 0
DWIDTH 24 0
BBX 20 16 -1 -2
BITMAP
0C0180
1E01C0
3FFFE0
7FFFF0
70FF70
FFFF70
FFFFF0
FF0FF0
FF0F70
FFFF70
FFFFF0
780FF0
3C0FE0
1C03C0
0F0780
060300
ENDCHAR
STARTCHAR 3212
ENCODING 10563
SWIDTH 2400 0
DWIDTH 24 0
BBX 20 16 0 -2
BITMAP
040200
1E0300
3FEFC0
7FEFC0
766FE0
F66FF0
F66FF0
F66FF0
F66FF0
F7EFF0
FFEFE0
780FE0
3C0FC0
1C0780
0F0F00
060600
ENDCHAR
STARTCHAR 3213
ENCODING 10564
SWIDTH 2400 0
DWIDTH 24 0
BBX 20 16 0 -2
BITMAP
180300
380380
3FEFC0
7FEFE0
7FEFE0
7FEFF0
FFEFF0
FFEFF0
FFEFF0
7FEFF0
7FEFE0
700FE0
300FC0
380F80
1C0F00
080600
ENDCHAR
STARTCHAR 3214
ENCODING 10565
SWIDTH 2400 0
DWIDTH 24 0
BBX 20 16 -1 -2
BITMAP
0C0180
1E01C0
3FCFE0
7BCFF0
73CF70
F3CF70
F3CFF0
F7CFF0
FFFF70
FF7F70
781FF0
780FF0
3C0FE0
1C0FC0
0F0780
060300
ENDCHAR
STARTCHAR 3215
ENCODING 10566
SWIDTH 2400 0
DWIDTH 24 0
BBX 20 16 0 -2
BITMAP
0C0300
1E0380
3FFFC0
7FFFE0
7F7EE0
FF7EF0
FF7FF0
FF7FF0
FF7EF0
F7FEF0
F3FFE0
781FE0
3C1FC0
1C1F80
0F0F00
060600
ENDCHAR
STARTCHAR 3216
ENCODING 10567
SWIDTH 2400 0
DWIDTH 24 0
BBX 20 16 0 -2
BITMAP
0C0300
1E0380
3FFFC0
7FFFE0
71EFE0
F1EFF0
F1EFF0
F1EFF0
F3FFF0
FFFFF0
FE1FE0
780FE0
3C0FC0
1C0F80
0F0F00
060600
ENDCHAR
STARTCHAR 3217
ENCODING 10568
SWIDTH 2400 0
DWIDTH 24 0
BBX 20 16 0 -2
BITMAP
0C0180
1E01C0
3F8FC0
7FEF60
7FEF60
F78F70
F78FF0
F78FF0
FFCF30
FFFF70
FCEF60
780F60
3C0FE0
1E0FC0
0F0380
060100
ENDCHAR
STARTCHAR 3218
ENCODING 10569
SWIDTH 2400 0
DWIDTH 24 0
BBX 20 16 -1 -2
BITMAP
0C00C0
1E00E0
3FFF60
7BFF30
703F30
F3FFF0
F3FFD0
F07F10
F0FF10
F3EF30
738F30
780F30
3C0F70
1C00E0
0F01C0
060080
ENDCHAR
STARTCHAR 3219
ENCODING 10570
SWIDTH 2400 0
DWIDTH 24 0
BBX 20 16 -1 -2
BITMAP
0C0180
1E07C0
3FF7E0
7FF7F0
7F07F0
FFF7F0
FFF7F0
FF07F0
FF07F0
FFFFF0
FFFFF0
7807F0
3C07E0
1C03C0
0F0780
060300
ENDCHAR
STARTCHAR 321A
ENCODING 10571
SWIDTH 2400 0
DWIDTH 24 0
BBX 20 16 -1 -2
BITMAP
0C0180
1E01C0
3C0FE0
7FFFF0
7FFF70
F7FF70
F7FFF0
F7FFF0
F7FF70
FFFF70
FFFFF0
780FF0
3C0FE0
1C03C0
0F0780
060300
ENDCHAR
STARTCHAR 321B
ENCODING 10572
SWIDTH 2400 0
DWIDTH 24 0
BBX 20 16 -1 -2
BITMAP
0C0180
1E01C0
3CEFE0
7FFFF0
77FF70
F3BF70
F7BFF0
F7BFF0
F7BF70
F7FF70
7BFFF0
780FF0
3C0FE0
1E0FC0
0F0780
060300
ENDCHAR
STARTCHAR 249C
ENCODING 10573
SWIDTH 2400 0
DWIDTH 24 0
BBX 20 16 -1 -2
BITMAP
0C0180
1E01C0
3CF8E0
7BFEF0
738E70
F10E70
F1FE70
F3FE70
F70E70
F70E70
FBFFF0
7BFFF0
3DC1E0
1C03C0
0F0780
060100
ENDCHAR
STARTCHAR 249D
ENCODING 10574
SWIDTH 2400 0
DWIDTH 24 0
BBX 20 16 0 -2
BITMAP
040180
1FC1C0
3FC0E0
7BC060
73FE60
F3FF70
F3FFB0
F3C7B0
F3C7B0
F3C7F0
7BC7E0
7BFFE0
3FFEC0
1F81C0
0F0380
060100
ENDCHAR
STARTCHAR 249E
ENCODING 10575
SWIDTH 2400 0
DWIDTH 24 0
BBX 20 16 -1 -2
BITMAP
0C0180
1E01C0
3C78E0
78FEF0
71EF70
F38270
F38070
F38070
F38270
F383F0
79C7F0
78FEF0
3C7DE0
1E03C0
0F0780
060000
ENDCHAR
STARTCHAR 249F
ENCODING 10576
SWIDTH 2400 0
DWIDTH 24 0
BBX 20 16 -1 -2
BITMAP
0400C0
1E1EE0
3C1E70
781E30
73FE30
F7FE30
FFBE10
FF1E10
FF1E30
FF1E30
7F1E30
7FFE70
3FFE60
1C00E0
0F01C0
060080
ENDCHAR
STARTCHAR 24A0
ENCODING 10577
SWIDTH 2400 0
DWIDTH 24 0
BBX 20 16 -1 -2
BITMAP
0C0180
1E01C0
3C78E0
79FEF0
71CF70
F38770
F38770
F3FF70
F3FF70
F38370
79C7F0
79FEF0
3C7DE0
1C03C0
0F0780
060100
ENDCHAR
STARTCHAR 24A1
ENCODING 10578
SWIDTH 2400 0
DWIDTH 24 0
BBX 20 16 -1 -2
BITMAP
0C0180
1E0DC0
3C3CE0
787CF0
707070
F07070
F3FF70
F3FF70
F07070
F07070
7070F0
7870F0
3C71E0
1C73C0
0F7780
060300
ENDCHAR
STARTCHAR 24A2
ENCODING 10579
SWIDTH 2400 0
DWIDTH 24 0
BBX 20 16 -1 -2
BITMAP
0C0180
1E01C0
3CFFE0
79FFF0
73FF70
F3CF70
F3CF70
F3CF70
F3CF70
F1FF70
787FF0
7987F0
3DFFE0
1DFFC0
0F3780
060100
ENDCHAR
STARTCHAR 24A3
ENCODING 10580
SWIDTH 2400 0
DWIDTH 24 0
BBX 20 16 -1 -2
BITMAP
0C0180
1E01C0
3F80E0
7F80F0
778070
F7FC70
F7FE70
F78F70
F78770
F78770
7F87F0
7F87F0
3F87E0
1C03C0
0F0780
060000
ENDCHAR
STARTCHAR 24A4
ENCODING 10581
SWIDTH 2400 0
DWIDTH 24 0
BBX 20 16 0 -2
BITMAP
180300
180380
3071C0
7071E0
6020E0
6078F0
6078F0
E078F0
E078F0
6078F0
6079E0
7079E0
307BC0
387F80
1C0F00
080600
ENDCHAR
STARTCHAR 24A5
ENCODING 10582
SWIDTH 2400 0
DWIDTH 24 0
BBX 20 16 -1 -2
BITMAP
0C00C0
1E1CE0
3C1C60
780830
700030
F03C30
F03C10
F03C10
F03C30
F03C30
F83C30
783C70
3DFC60
1DF8E0
0F01C0
060080
ENDCHAR
STARTCHAR 24A6
ENCODING 10583
SWIDTH 2400 0
DWIDTH 24 0
BBX 20 16 0 -2
BITMAP
180300
380380
3781C0
7785E0
678EE0
679EF0
E7F8F0
E7F0F0
E7F8F0
67DCF0
679DE0
778FE0
3787C0
380780
1C0F00
080000
ENDCHAR
STARTCHAR 24A7
ENCODING 10584
SWIDTH 2400 0
DWIDTH 24 0
BBX 20 16 0 -2
BITMAP
180300
180380
3079C0
7079E0
6078E0
6078F0
6078F0
E078F0
6078F0
6078F0
6079E0
7079E0
307BC0
380780
1C0F00
080000
ENDCHAR
STARTCHAR 24A8
ENCODING 10585
SWIDTH 2400 0
DWIDTH 24 0
BBX 20 16 0 -2
BITMAP
180180
3801C0
3000E0
7F8C60
6FFF60
6EFF70
EE6730
EE6730
EE6770
6E6770
6E6760
7E67E0
3000C0
3801C0
1C0380
080100
ENDCHAR
STARTCHAR 24A9
ENCODING 10586
SWIDTH 2400 0
DWIDTH 24 0
BBX 20 16 -1 -2
BITMAP
0C0180
1E01C0
3C00E0
7F90F0
77FE70
F7FF70
F78770
F78770
F78770
F78770
7F87F0
7F87F0
3C01E0
1C03C0
0F0780
060100
ENDCHAR
STARTCHAR 24AA
ENCODING 10587
SWIDTH 2400 0
DWIDTH 24 0
BBX 20 16 -1 -2
BITMAP
0C0180
1E01C0
3C00E0
78FEF0
73FFF0
F787F0
FF01F0
FF01F0
FF01F0
FF03F0
7F87F0
7BFFF0
3CFEF0
1C00E0
0F01C0
060080
ENDCHAR
STARTCHAR 24AB
ENCODING 10588
SWIDTH 2400 0
DWIDTH 24 0
BBX 20 16 0 -2
BITMAP
0C0300
1E0380
3F79C0
7FFFE0
77DFE0
F78FF0
F78FF0
F78FF0
F78FF0
F7FEF0
FFFFE0
7F81E0
3F83C0
1F8780
0F0F00
060600
ENDCHAR
STARTCHAR 24AC
ENCODING 10589
SWIDTH 2400 0
DWIDTH 24 0
BBX 20 16 -1 -2
BITMAP
0C0180
1E01C0
3DFEE0
7BFEF0
779E70
F79E70
F79E70
F79E70
F79E70
F3FE70
79FEF0
780EF0
3C0FE0
1C0FC0
0F0780
060300
ENDCHAR
STARTCHAR 24AD
ENCODING 10590
SWIDTH 2400 0
DWIDTH 24 0
BBX 20 16 -1 -2
BITMAP
0C0180
1E01C0
3C00E0
78F7F0
70FFF0
F0F8F0
F0F0F0
F0F070
F0F070
F0F070
F8F0F0
78F0F0
3CF1E0
1C01C0
0F0780
060300
ENDCHAR
STARTCHAR 24AE
ENCODING 10591
SWIDTH 2400 0
DWIDTH 24 0
BBX 20 16 -1 -2
BITMAP
0C00C0
1E00E0
3C0070
78FC30
70FE30
F1C730
F1F010
F0FC10
F07E10
F38F30
79C730
79FE30
3CFC60
1C10E0
0F01C0
060080
ENDCHAR
STARTCHAR 24AF
ENCODING 10592
SWIDTH 2400 0
DWIDTH 24 0
BBX 20 16 -1 -2
BITMAP
0C0180
1E01C0
3C78E0
7878F0
707870
F3FF70
F3FF70
F07870
F07870
F07870
F078F0
787BF0
3C7FE0
1C3FC0
0F0780
060100
ENDCHAR
STARTCHAR 24B0
ENCODING 10593
SWIDTH 2400 0
DWIDTH 24 0
BBX 20 16 -1 -2
BITMAP
0C0380
1C01C0
3800E0
7F9EF0
779E70
F79E70
F79E70
F79E70
F79E70
F79E70
7FFEF0
7BFEF0
3C01E0
1E03C0
0F0380
040000
ENDCHAR
STARTCHAR 24B1
ENCODING 10594
SWIDTH 2400 0
DWIDTH 24 0
BBX 20 16 -1 -2
BITMAP
0C0180
1E01C0
3C00E0
7800F0
7703F0
F383F0
F38770
F1C770
F1CE70
F0FC70
F8FCF0
7878F0
3C79E0
1C33C0
0F0780
060000
ENDCHAR
STARTCHAR 24B2
ENCODING 10595
SWIDTH 2400 0
DWIDTH 24 0
BBX 20 16 0 -2
BITMAP
0C0300
1E0380
3C01C0
7801E0
7E73E0
FE73F0
F677F0
F7F6F0
F3FEF0
F3DEF0
FBDFE0
79DDE0
3DDFC0
1C0780
0F0F00
060000
ENDCHAR
STARTCHAR 24B3
ENCODING 10596
SWIDTH 2400 0
DWIDTH 24 0
BBX 20 16 -1 -2
BITMAP
0C0180
1E01C0
3C00E0
7B87F0
71CF70
F0EE70
F0FC70
F07870
F07870
F0FC70
79EEF0
79CFF0
3F87E0
1C03C0
0F0780
060000
ENDCHAR
STARTCHAR 24B4
ENCODING 10597
SWIDTH 2400 0
DWIDTH 24 0
BBX 20 16 -1 -2
BITMAP
0C0180
1E01C0
3C00E0
79C3F0
71C770
F0E770
F07E70
F07E70
F03C70
F01C70
F838F0
79F8F0
3FF1E0
1DE3C0
0F0780
060000
ENDCHAR
STARTCHAR 24B5
ENCODING 10598
SWIDTH 2400 0
DWIDTH 24 0
BBX 20 16 -1 -2
BITMAP
0C00C0
1E00E0
3C0070
7BFF30
73FF30
F00F30
F01E10
F03C10
F07810
F1F030
7BE030
7BFF30
3FFF60
1C00E0
0F01C0
060080
ENDCHAR
STARTCHAR 2474
ENCODING 10599
SWIDTH 2400 0
DWIDTH 24 0
BBX 20 16 -1 -2
BITMAP
0C00C0
1E00E0
3C3C70
787C30
71FC30
F1FC30
F03C10
F03C10
F03C30
F03C30
F03C30
783C30
3C3C60
1C3CE0
0F01C0
060080
ENDCHAR
STARTCHAR 2475
ENCODING 10600
SWIDTH 2400 0
DWIDTH 24 0
BBX 20 16 0 -2
BITMAP
180300
180380
30F9C0
73FDE0
638CE0
610CF0
E01CF0
E03CF0
E070F0
60E0F0
61C1E0
73FFE0
33FFC0
380780
1C0F00
080000
ENDCHAR
STARTCHAR 2476
ENCODING 10601
SWIDTH 2400 0
DWIDTH 24 0
BBX 20 16 -1 -2
BITMAP
0C0180
1E01C0
3C10E0
787EF0
70FF70
F0C770
F00770
F03E70
F03F70
F00770
F887F0
79C7F0
3CFFE0
1C7FC0
0F0780
060100
ENDCHAR
STARTCHAR 2477
ENCODING 10602
SWIDTH 2400 0
DWIDTH 24 0
BBX 20 16 -1 -2
BITMAP
040180
1E01C0
3C3CE0
787CF0
70FC70
F1FC70
F3FC70
F3BC70
F73C70
FFFF70
7FFFF0
783CF0
3C3DE0
1C3FC0
0F0780
060000
ENDCHAR
STARTCHAR 2478
ENCODING 10603
SWIDTH 2400 0
DWIDTH 24 0
BBX 20 16 0 -2
BITMAP
0C0300
1E0380
3FFDC0
7BFDE0
7380E0
F3F8F0
F3FCF0
F39EF0
F00EF0
F10EF0
FB9FE0
79FDE0
3CFBC0
1C0780
0F0F00
060000
ENDCHAR
STARTCHAR 2479
ENCODING 10604
SWIDTH 2400 0
DWIDTH 24 0
BBX 20 16 0 -2
BITMAP
180180
1805C0
300EE0
703E60
607860
607870
60FE30
E1FF30
619F70
618F70
618F60
70FEE0
307CC0
3801C0
1C0380
080100
ENDCHAR
STARTCHAR 247A
ENCODING 10605
SWIDTH 2400 0
DWIDTH 24 0
BBX 20 16 -1 -2
BITMAP
0C0180
1E01C0
3C00E0
7FFFF0
77FF70
F00E70
F00E70
F01C70
F01C70
F03C70
F83CF0
7838F0
3C79E0
1E7BC0
0F0780
060300
ENDCHAR
STARTCHAR 247B
ENCODING 10606
SWIDTH 2400 0
DWIDTH 24 0
BBX 20 16 -1 -2
BITMAP
0400C0
1E10E0
3C7C70
78FE30
70FE30
F0C630
F0FC10
F0FE10
F1FF10
F1C730
79C730
78FE30
3C7C60
1C00E0
0F01C0
060080
ENDCHAR
STARTCHAR 247C
ENCODING 10607
SWIDTH 2400 0
DWIDTH 24 0
BBX 20 16 0 -2
BITMAP
180300
380380
30F1C0
71FDE0
63DCE0
638CF0
E39CF0
E1FCF0
E0FCF0
600CF0
618DE0
71FDE0
30FBC0
380780
1C0F00
080200
ENDCHAR
STARTCHAR 247D
ENCODING 10608
SWIDTH 2400 0
DWIDTH 24 0
BBX 20 16 -1 -2
BITMAP
0C00C0
1E00E0
3F8F70
7F9FB0
7F9FB0
F7BFF0
F7BFD0
F7BFD0
F7BFD0
F7BFF0
7F9FB0
7F9FB0
3F8F60
1C00E0
0F01C0
060080
ENDCHAR
STARTCHAR 247E
ENCODING 10609
SWIDTH 2400 0
DWIDTH 24 0
BBX 20 16 -1 -2
BITMAP
0C0180
1E01C0
3FC7E0
7FDFF0
7FDFF0
FBC7F0
F3C7F0
F3C7F0
F3C7F0
F3C7F0
7BC7F0
7BC7F0
3FC7E0
1C03C0
0F0780
060000
ENDCHAR
STARTCHAR 247F
ENCODING 10610
SWIDTH 2400 0
DWIDTH 24 0
BBX 20 16 -1 -2
BITMAP
0C0180
1E01C0
3FDEE0
7FFFF0
7FFFF0
F3E3F0
F3C3F0
F3C770
F3CE70
F3DC70
7BF8F0
7BFFF0
3FFFE0
1C03C0
0F0780
060000
ENDCHAR
STARTCHAR 2480
ENCODING 10611
SWIDTH 2400 0
DWIDTH 24 0
BBX 20 16 -1 -2
BITMAP
0C0180
1E01C0
3F9FE0
7FBFF0
7FB3F0
F783F0
F78FF0
F78F70
F78FF0
F781F0
FFE1F0
7FFFF0
3FBFE0
1C03C0
0F0780
060000
ENDCHAR
STARTCHAR 2481
ENCODING 10612
SWIDTH 2400 0
DWIDTH 24 0
BBX 20 16 -1 -2
BITMAP
0C0180
1E0FC0
3F9FE0
7F9FF0
7FBF70
F7BF70
F7F770
F7EF70
F7FFF0
F7FFF0
F78FF0
7F8FF0
3F81E0
1C03C0
0F0780
060000
ENDCHAR
STARTCHAR 2482
ENCODING 10613
SWIDTH 2400 0
DWIDTH 24 0
BBX 20 16 -1 -2
BITMAP
0C0180
1E01C0
3FFFE0
7FFFF0
77F070
F7FF70
F3FFF0
F3F3F0
F3C1F0
F3E1F0
7BF3F0
7BFFF0
3FDFE0
1C03C0
0F0780
060000
ENDCHAR
STARTCHAR 00B9
ENCODING 10614
SWIDTH 2400 0
DWIDTH 24 0
BBX 6 10 7 6
BITMAP
3C
3C
FC
FC
3C
3C
3C
3C
3C
3C
ENDCHAR
STARTCHAR 00B2
ENCODING 10615
SWIDTH 2400 0
DWIDTH 24 0
BBX 9 10 6 5
BITMAP
3C00
7E00
E700
4700
0F00
1E00
3800
7000
FF80
FF80
ENDCHAR
STARTCHAR 00B3
ENCODING 10616
SWIDTH 2400 0
DWIDTH 24 0
BBX 9 11 7 4
BITMAP
7C00
FF00
CF00
0700
3F00
3F00
0F80
C780
FF80
FF00
3800
ENDCHAR
STARTCHAR 2074
ENCODING 10617
SWIDTH 2400 0
DWIDTH 24 0
BBX 11 10 4 4
BITMAP
0780
0F80
1F80
3F80
7B80
E780
FFE0
FFE0
0780
0780
ENDCHAR
STARTCHAR 207F
ENCODING 10618
SWIDTH 2400 0
DWIDTH 24 0
BBX 10 8 6 5
BITMAP
FF80
FFC0
F3C0
F3C0
F3C0
F3C0
F3C0
F3C0
ENDCHAR
STARTCHAR 2081
ENCODING 10619
SWIDTH 2400 0
DWIDTH 24 0
BBX 6 10 7 -3
BITMAP
3C
3C
FC
FC
3C
3C
3C
3C
3C
3C
ENDCHAR
STARTCHAR 2082
ENCODING 10620
SWIDTH 2400 0
DWIDTH 24 0
BBX 9 10 6 -3
BITMAP
3C00
FF00
E700
4700
0F00
1E00
3800
7000
FF80
FF80
ENDCHAR
STARTCHAR 2083
ENCODING 10621
SWIDTH 2400 0
DWIDTH 24 0
BBX 8 10 7 -3
BITMAP
7E
FE
47
1E
3E
3F
47
EF
FE
3C
ENDCHAR
STARTCHAR 2084
ENCODING 10622
SWIDTH 2400 0
DWIDTH 24 0
BBX 11 10 4 -3
BITMAP
0780
0F80
1F80
3F80
7F80
F780
FFE0
FFE0
0780
0780
ENDCHAR
STARTCHAR 3041
ENCODING 10785
SWIDTH 2400 0
DWIDTH 24 0
BBX 12 11 4 -1
BITMAP
0C80
7F80
7F00
0D80
1FC0
3FE0
6FF0
EF70
FEE0
7EC0
0400
ENDCHAR
STARTCHAR 3042
ENCODING 10786
SWIDTH 2400 0
DWIDTH 24 0
BBX 17 15 2 -1
BITMAP
070000
073000
7FF000
7FE000
0E3800
0FF800
1FFE00
3FFF00
7E7700
E7E380
E7E780
E78F00
FFBE00
7B9C00
021000
ENDCHAR
STARTCHAR 3043
ENCODING 10787
SWIDTH 2400 0
DWIDTH 24 0
BBX 12 10 5 0
BITMAP
F000
F000
F000
F040
F0E0
F0E0
F070
F170
7F30
3F00
ENDCHAR
STARTCHAR 3044
ENCODING 10788
SWIDTH 2400 0
DWIDTH 24 0
BBX 16 14 2 0
BITMAP
F000
F000
F000
F000
F030
F078
F07C
F01C
F01E
F00F
7847
7DE7
3FE0
1FC0
ENDCHAR
STARTCHAR 3045
ENCODING 10789
SWIDTH 2400 0
DWIDTH 24 0
BBX 8 12 6 -2
BITMAP
30
7F
3E
1A
FF
FF
C7
07
07
1E
1C
08
ENDCHAR
STARTCHAR 3046
ENCODING 10790
SWIDTH 2400 0
DWIDTH 24 0
BBX 13 17 4 -3
BITMAP
1000
3E00
1FE0
01E0
0000
0700
3FE0
FFF0
F0F0
C078
0078
0070
00F0
03E0
07C0
0780
0200
ENDCHAR
STARTCHAR 3047
ENCODING 10791
SWIDTH 2400 0
DWIDTH 24 0
BBX 12 12 4 0
BITMAP
0800
1F80
0F80
0000
7F80
7F80
0F00
1F00
3F00
7B00
E3F0
43F0
ENDCHAR
STARTCHAR 3048
ENCODING 10792
SWIDTH 2400 0
DWIDTH 24 0
BBX 15 14 3 0
BITMAP
0800
0F00
0FF0
01E0
0000
7FE0
7FE0
01E0
07C0
0F80
3FC0
78C0
F0FE
60FE
ENDCHAR
STARTCHAR 3049
ENCODING 10793
SWIDTH 2400 0
DWIDTH 24 0
BBX 13 11 4 -1
BITMAP
1E00
1EE0
7FF0
7F30
5FE0
3FF0
FE38
DE38
FEF8
FCF8
0040
ENDCHAR
STARTCHAR 304A
ENCODING 10794
SWIDTH 2400 0
DWIDTH 24 0
BBX 18 15 0 -1
BITMAP
070000
070000
076200
3FE780
3FC3C0
038180
07FE00
1FFF00
3F8380
7F81C0
E781C0
E7A1C0
FF3F80
7F3F80
3C0E00
ENDCHAR
STARTCHAR 304B
ENCODING 10795
SWIDTH 2400 0
DWIDTH 24 0
BBX 15 11 3 -1
BITMAP
0E00
0E00
7FE8
7FF8
1DFC
1DEC
39EE
39E8
77C0
F780
2000
ENDCHAR
STARTCHAR 304C
ENCODING 10796
SWIDTH 2400 0
DWIDTH 24 0
BBX 20 15 -1 0
BITMAP
000060
0F0160
0F03F0
0F01F0
7FFEC0
7FFF00
0F3F00
0F3F80
0E3D80
1E3D00
1C3C00
3C3C00
787800
F1F000
21E000
ENDCHAR
STARTCHAR 304D
ENCODING 10797
SWIDTH 2400 0
DWIDTH 24 0
BBX 14 16 3 -1
BITMAP
0600
0E70
07F0
7FE0
7F18
03FC
03F0
FFE0
FFF0
0FF8
3FF0
7800
7004
701C
3FFC
1FF0
ENDCHAR
STARTCHAR 304E
ENCODING 10798
SWIDTH 2400 0
DWIDTH 24 0
BBX 18 16 1 -1
BITMAP
040180
0E6780
0FFFC0
7FE7C0
7F1A00
03F800
03F000
FFC000
FFE000
1FF000
7FE000
700000
E00800
703C00
7FFC00
1FE000
ENDCHAR
STARTCHAR 304F
ENCODING 10799
SWIDTH 2400 0
DWIDTH 24 0
BBX 9 15 6 -1
BITMAP
0300
0780
0F00
1E00
3C00
F000
E000
E000
F000
3800
1C00
0E00
0F00
0780
0200
ENDCHAR
STARTCHAR 3050
ENCODING 10800
SWIDTH 2400 0
DWIDTH 24 0
BBX 15 15 3 -1
BITMAP
0200
079C
0F6E
1E76
3C74
F030
E000
E000
F000
7800
3C00
1E00
0F00
0700
0200
ENDCHAR
STARTCHAR 3051
ENCODING 10801
SWIDTH 2400 0
DWIDTH 24 0
BBX 16 15 3 -1
BITMAP
E078
E07A
E07F
EFFF
EFF0
E070
E070
E070
E070
E0E0
E0E0
E7C0
7380
7300
6000
ENDCHAR
STARTCHAR 3052
ENCODING 10802
SWIDTH 2400 0
DWIDTH 24 0
BBX 19 16 0 -1
BITMAP
000080
40F7C0
E0F7E0
E0F760
E0FF00
EFFE00
E7F800
E7F000
E0F000
E0F000
E0F000
61E000
63E000
77C000
770000
300000
ENDCHAR
STARTCHAR 3053
ENCODING 10803
SWIDTH 2400 0
DWIDTH 24 0
BBX 15 14 3 0
BITMAP
1800
1FF8
1FF8
0000
0000
0000
0000
0000
0000
E000
C000
E006
FFFE
7FFC
ENDCHAR
STARTCHAR 3054
ENCODING 10804
SWIDTH 2400 0
DWIDTH 24 0
BBX 18 16 1 0
BITMAP
000100
000380
000DC0
000EC0
000700
1FF600
1FF000
000000
000000
000000
000000
E00000
E00000
E00600
FFFE00
3FFC00
ENDCHAR
STARTCHAR 3055
ENCODING 10805
SWIDTH 2400 0
DWIDTH 24 0
BBX 13 15 4 -1
BITMAP
0400
0E70
0FF0
1FC0
FF80
FBC0
01E0
1FF0
7FF0
F010
E000
E010
78F8
3FF8
0FC0
ENDCHAR
STARTCHAR 3056
ENCODING 10806
SWIDTH 2400 0
DWIDTH 24 0
BBX 18 17 1 -1
BITMAP
000200
000780
021F80
0E3FC0
07EE00
1FE600
FF8000
FFC000
01E000
1FF800
3FF800
781000
700000
700800
783C00
3FFC00
0FE000
ENDCHAR
STARTCHAR 3057
ENCODING 10807
SWIDTH 2400 0
DWIDTH 24 0
BBX 12 15 5 -1
BITMAP
F000
F000
F000
F000
F000
F000
F000
F000
F000
F040
F070
78E0
7FE0
3FC0
0200
ENDCHAR
STARTCHAR 3058
ENCODING 10808
SWIDTH 2400 0
DWIDTH 24 0
BBX 13 16 5 -1
BITMAP
0020
F070
F138
F3B0
F1C0
F080
F000
F000
F000
F000
F040
F060
78E0
7FE0
3FC0
0600
ENDCHAR
STARTCHAR 3059
ENCODING 10809
SWIDTH 2400 0
DWIDTH 24 0
BBX 14 16 3 -2
BITMAP
03C0
03C0
FFFC
FFFC
03C0
0FC0
3FC0
7FC0
79C0
79E0
7FE0
3FE0
03C0
1FC0
1F00
1C00
ENDCHAR
STARTCHAR 305A
ENCODING 10810
SWIDTH 2400 0
DWIDTH 24 0
BBX 18 17 1 -2
BITMAP
000080
03C7C0
03C7C0
FFFB40
FFF800
03C000
0BC000
3FC000
7FC000
73C000
63E000
7FE000
3FE000
03C000
1FC000
1F0000
1C0000
ENDCHAR
STARTCHAR 305B
ENCODING 10811
SWIDTH 2400 0
DWIDTH 24 0
BBX 16 14 2 0
BITMAP
1E70
1E70
1EF0
FFFE
FFFE
1EF0
1EF0
1FF0
1FE0
1F80
1E00
1F01
0FFF
03FF
ENDCHAR
STARTCHAR 305C
ENCODING 10812
SWIDTH 2400 0
DWIDTH 24 0
BBX 18 17 1 -1
BITMAP
000100
0003C0
0007C0
1E3E80
1E3B00
1E7A00
FFFE00
FFFE00
1E7800
1E7800
1FF800
1FF000
1FC000
1E0000
1F0100
0FFF00
03FF00
ENDCHAR
STARTCHAR 305D
ENCODING 10813
SWIDTH 2400 0
DWIDTH 24 0
BBX 15 14 3 0
BITMAP
2038
7038
3C70
1CE0
09FE
FFFC
FFF0
C700
0E00
0E00
0E00
0F00
07FC
01FC
ENDCHAR
STARTCHAR 305E
ENCODING 10814
SWIDTH 2400 0
DWIDTH 24 0
BBX 18 15 1 0
BITMAP
000180
6071C0
78FEC0
3DE7C0
1BC300
07F800
FFF800
FFC000
8E0000
1C0000
1C0000
1C0000
1E0000
0FF800
03F800
ENDCHAR
STARTCHAR 305F
ENCODING 10815
SWIDTH 2400 0
DWIDTH 24 0
BBX 17 15 2 -1
BITMAP
0C0000
0C0000
1CC000
1FC000
FFC000
FC7F00
1C7F00
1C0000
1C0000
380000
398000
71C000
F1FF80
E0FF80
400000
ENDCHAR
STARTCHAR 3060
ENCODING 10816
SWIDTH 2400 0
DWIDTH 24 0
BBX 17 16 2 -1
BITMAP
000400
001E00
0C3F00
1C1A00
1D8C00
FFC000
FFFF00
1C7F00
1C0000
1C0000
380000
398000
71C000
F1FF80
E0FF80
400000
ENDCHAR
STARTCHAR 3061
ENCODING 10817
SWIDTH 2400 0
DWIDTH 24 0
BBX 13 14 4 0
BITMAP
1C00
1C40
FFC0
FF80
FC00
1C00
3FE0
3FF0
7C78
2078
0070
03F0
0FC0
0F00
ENDCHAR
STARTCHAR 3062
ENCODING 10818
SWIDTH 2400 0
DWIDTH 24 0
BBX 16 15 2 0
BITMAP
0004
1C1E
1C7F
FFDE
FFCC
FC00
1C00
1FE0
3FF0
7C78
2038
0078
03F0
0FE0
0700
ENDCHAR
STARTCHAR 3063
ENCODING 10819
SWIDTH 2400 0
DWIDTH 24 0
BBX 13 10 5 0
BITMAP
1FC0
FFF0
F070
8078
0038
0070
00F0
01E0
0FC0
0E00
ENDCHAR
STARTCHAR 3064
ENCODING 10820
SWIDTH 2400 0
DWIDTH 24 0
BBX 15 12 2 0
BITMAP
07F0
3FFC
FC1E
F00E
400E
000E
000E
001E
003C
00F8
01F0
01C0
ENDCHAR
STARTCHAR 3065
ENCODING 10821
SWIDTH 2400 0
DWIDTH 24 0
BBX 19 15 1 0
BITMAP
000080
0001C0
0006E0
07F740
3FFF80
F81D00
E00E00
800E00
000E00
001E00
001C00
003C00
01F800
03E000
018000
ENDCHAR
STARTCHAR 3066
ENCODING 10822
SWIDTH 2400 0
DWIDTH 24 0
BBX 14 13 4 0
BITMAP
01F8
7FFC
FFFC
6780
0E00
1C00
1C00
1C00
1C00
1C00
1F00
07F0
01F0
ENDCHAR
STARTCHAR 3067
ENCODING 10823
SWIDTH 2400 0
DWIDTH 24 0
BBX 19 14 1 0
BITMAP
000080
03F7C0
7FF7E0
FF0340
EE0300
1C0000
380000
380000
380000
380000
3C0000
1E0000
0FF000
01F000
ENDCHAR
STARTCHAR 3068
ENCODING 10824
SWIDTH 2400 0
DWIDTH 24 0
BBX 13 14 3 0
BITMAP
1C00
1C00
1C00
0C78
0FF8
0FE0
3F00
7C00
F000
E000
E000
F018
7FF8
3FF0
ENDCHAR
STARTCHAR 3069
ENCODING 10825
SWIDTH 2400 0
DWIDTH 24 0
BBX 18 15 2 0
BITMAP
000100
1C0380
1C0DC0
1C0680
1C7600
0FF800
0FE000
3F0000
7C0000
F00000
E00000
E00000
F01800
7FF800
3FF800
ENDCHAR
STARTCHAR 306A
ENCODING 10826
SWIDTH 2400 0
DWIDTH 24 0
BBX 18 15 1 -1
BITMAP
1E0C00
1E0E00
1FC780
7FC300
7F8E00
0F0E00
0F1C00
0E1C00
1EFC00
1FFC00
3FFE00
7B3F80
F3FBC0
E1F180
400000
ENDCHAR
STARTCHAR 306B
ENCODING 10827
SWIDTH 2400 0
DWIDTH 24 0
BBX 16 15 2 -1
BITMAP
7000
7800
7000
F1FE
F1FE
F000
F000
F000
F000
F700
F783
F3FF
79FE
7800
6000
ENDCHAR
STARTCHAR 306C
ENCODING 10828
SWIDTH 2400 0
DWIDTH 24 0
BBX 16 14 2 0
BITMAP
01C0
01C0
61C0
77F8
7FFC
7F9E
7B8E
7F0E
FF0E
EF3E
CF7E
FFEF
FCFF
7878
ENDCHAR
STARTCHAR 306D
ENCODING 10829
SWIDTH 2400 0
DWIDTH 24 0
BBX 19 15 1 -1
BITMAP
1E0000
1E0000
1F9E00
FFFF00
FFFF80
5FE380
1FC1C0
3F81C0
7F8DC0
7FBFC0
FFBFC0
67AFE0
07BF60
079E00
078000
ENDCHAR
STARTCHAR 306E
ENCODING 10830
SWIDTH 2400 0
DWIDTH 24 0
BBX 16 13 2 -1
BITMAP
07E0
1FF8
3DFC
71DE
E1CF
E387
C787
C707
FF0F
7E1E
3C7C
0078
0060
ENDCHAR
STARTCHAR 306F
ENCODING 10831
SWIDTH 2400 0
DWIDTH 24 0
BBX 19 15 1 -1
BITMAP
701E00
780E00
F00EC0
F1FFE0
F1FF80
F00E00
F00E00
F00E00
F0FE00
F1FF80
F1BFC0
F33DE0
79FCC0
78F800
600000
ENDCHAR
STARTCHAR 3070
ENCODING 10832
SWIDTH 2400 0
DWIDTH 24 0
BBX 19 17 0 -1
BITMAP
0000C0
0000C0
40F360
7873E0
F07580
F7FE80
F7FC00
F07000
F07000
F07000
F3F000
F7FC00
F7FE00
FE6F00
7FE600
7FC000
600000
ENDCHAR
STARTCHAR 3071
ENCODING 10833
SWIDTH 2400 0
DWIDTH 24 0
BBX 19 16 0 -1
BITMAP
0001E0
403D20
783DE0
F03CC0
F3FF80
F3FF80
F01C00
F01C00
F03C00
F3FC00
F7FF00
F77FC0
F73DC0
7FF880
7BE000
600000
ENDCHAR
STARTCHAR 3072
ENCODING 10834
SWIDTH 2400 0
DWIDTH 24 0
BBX 16 13 3 0
BITMAP
1830
7C70
FC78
F87C
707E
707F
E076
E070
E070
F0F0
7FE0
7FC0
1F80
ENDCHAR
STARTCHAR 3073
ENCODING 10835
SWIDTH 2400 0
DWIDTH 24 0
BBX 18 15 1 0
BITMAP
000080
0005C0
081FC0
3E77C0
FC7B00
F87E00
787E00
707F00
F07600
E07000
E07000
F07000
79E000
7FE000
1F8000
ENDCHAR
STARTCHAR 3074
ENCODING 10836
SWIDTH 2400 0
DWIDTH 24 0
BBX 17 15 2 0
BITMAP
000700
000580
081480
3E7780
FC7800
F87C00
787E00
707F00
707600
F07000
E07000
F07000
79F000
7FE000
1F8000
ENDCHAR
STARTCHAR 3075
ENCODING 10837
SWIDTH 2400 0
DWIDTH 24 0
BBX 15 15 3 -1
BITMAP
0F00
0FC0
0380
0000
0C00
0C08
0E1C
CF9C
C3CE
F8E6
78E0
00E0
09E0
0FC0
0700
ENDCHAR
STARTCHAR 3076
ENCODING 10838
SWIDTH 2400 0
DWIDTH 24 0
BBX 17 16 2 -1
BITMAP
000200
0E0F00
0FDF80
078D80
008E00
0C0000
0C0800
0E1C00
CF9C00
C3CE00
F8E600
78E000
00E000
09E000
0FC000
070000
ENDCHAR
STARTCHAR 3077
ENCODING 10839
SWIDTH 2400 0
DWIDTH 24 0
BBX 17 16 2 -1
BITMAP
000700
060D80
0FCD80
07C700
000000
0E0000
0E0800
0E1C00
C7CE00
E3E700
F8F600
787000
007000
05E000
07C000
078000
ENDCHAR
STARTCHAR 3078
ENCODING 10840
SWIDTH 2400 0
DWIDTH 24 0
BBX 18 11 1 0
BITMAP
010000
07C000
0FE000
1EF000
3C7800
F03C00
601E00
000F00
0007C0
0003C0
000080
ENDCHAR
STARTCHAR 3079
ENCODING 10841
SWIDTH 2400 0
DWIDTH 24 0
BBX 18 13 1 0
BITMAP
000200
000300
011B80
07CD80
0FEE00
1EF400
3C7800
F03C00
601E00
000F00
0007C0
0003C0
000080
ENDCHAR
STARTCHAR 307A
ENCODING 10842
SWIDTH 2400 0
DWIDTH 24 0
BBX 18 13 1 0
BITMAP
000700
000D80
010D80
07C700
0FE000
1EF000
3C7800
F03C00
601E00
000F00
0007C0
0003C0
000080
ENDCHAR
STARTCHAR 307B
ENCODING 10843
SWIDTH 2400 0
DWIDTH 24 0
BBX 17 15 1 -1
BITMAP
780300
7FFF00
F7FE00
F07800
F07F80
F7FF80
F7FE00
F07800
F0F800
F7FC00
FFFE00
FF3F80
7FF380
7FE100
738000
ENDCHAR
STARTCHAR 307C
ENCODING 10844
SWIDTH 2400 0
DWIDTH 24 0
BBX 20 16 -1 -1
BITMAP
000020
780C70
7FFCF0
F7F9F0
F0F0C0
F0F6C0
F7FE00
F7FE00
F0F000
F0F000
F7F800
FFFE00
FF7F00
7FE700
7FC200
730000
ENDCHAR
STARTCHAR 307D
ENCODING 10845
SWIDTH 2400 0
DWIDTH 24 0
BBX 20 16 -1 -1
BITMAP
000070
780CD0
77FCD0
F7F8F0
F0F000
F0FE00
F7FE00
F7FC00
F0F000
F1F000
F7F800
FFFE00
FF7F00
7FE700
7FC200
700000
ENDCHAR
STARTCHAR 307E
ENCODING 10846
SWIDTH 2400 0
DWIDTH 24 0
BBX 14 16 4 -2
BITMAP
0380
03B8
3FF8
3FE0
3F88
07F8
FFF8
FFC0
C780
1F80
7FF0
67F8
47BC
7F18
7E00
0800
ENDCHAR
STARTCHAR 307F
ENCODING 10847
SWIDTH 2400 0
DWIDTH 24 0
BBX 17 14 1 -1
BITMAP
0FF000
0FF800
00F000
01E000
1FEF00
3FFE00
FFFE00
F71F00
EE1F80
FC3F00
787900
01F000
00E000
00C000
ENDCHAR
STARTCHAR 3080
ENCODING 10848
SWIDTH 2400 0
DWIDTH 24 0
BBX 17 15 1 -1
BITMAP
078000
078000
07F200
7FF700
7F8700
078380
3F8180
7F8100
F3C000
7F8000
7F8400
3E0700
0F1F00
0FFE00
07F800
ENDCHAR
STARTCHAR 3081
ENCODING 10849
SWIDTH 2400 0
DWIDTH 24 0
BBX 17 14 2 0
BITMAP
00C000
00C000
71C000
77FC00
3FFE00
3F9F00
7B8780
7B8780
FF8780
EF0780
CF8F00
FFDF00
7CBC00
381000
ENDCHAR
STARTCHAR 3082
ENCODING 10850
SWIDTH 2400 0
DWIDTH 24 0
BBX 13 15 3 -1
BITMAP
0700
0700
0E00
7FC0
7FC0
1F00
1C00
F800
FF80
7F80
3838
3838
3838
3FF0
0FE0
ENDCHAR
STARTCHAR 3083
ENCODING 10851
SWIDTH 2400 0
DWIDTH 24 0
BBX 11 11 5 0
BITMAP
1C00
CC00
EFC0
FFE0
7CE0
F8E0
FBE0
DBC0
1C00
1C00
0800
ENDCHAR
STARTCHAR 3084
ENCODING 10852
SWIDTH 2400 0
DWIDTH 24 0
BBX 15 16 3 -1
BITMAP
0700
0700
4300
C6F8
E3FC
7FDC
7E0E
7C0E
FC0E
DC1E
8E3C
0E38
0700
0700
0380
0300
ENDCHAR
STARTCHAR 3085
ENCODING 10853
SWIDTH 2400 0
DWIDTH 24 0
BBX 13 11 5 -1
BITMAP
0780
0780
DFF0
FFF8
F7B8
EFB8
DFF0
FFE0
CF80
1F00
0C00
ENDCHAR
STARTCHAR 3086
ENCODING 10854
SWIDTH 2400 0
DWIDTH 24 0
BBX 16 16 3 -2
BITMAP
01E0
01E0
01F0
E7FC
FFFE
FDEF
F9EF
F1EF
F5EF
EFFF
EFFE
73FC
63C0
0F80
0F00
0600
ENDCHAR
STARTCHAR 3087
ENCODING 10855
SWIDTH 2400 0
DWIDTH 24 0
BBX 13 11 4 -1
BITMAP
0780
0790
07F0
07F0
0780
3F80
7FE0
E7F0
FF78
7E10
3800
ENDCHAR
STARTCHAR 3088
ENCODING 10856
SWIDTH 2400 0
DWIDTH 24 0
BBX 16 14 1 0
BITMAP
01E0
01E0
01E0
01FF
01FF
01E0
01E0
3FE0
7FF0
7FFC
F8FE
F9CF
7F86
7E00
ENDCHAR
STARTCHAR 3089
ENCODING 10857
SWIDTH 2400 0
DWIDTH 24 0
BBX 15 15 3 -1
BITMAP
0C00
0F80
0F80
F180
F000
F1E0
FFF8
FFFC
FC1C
F80E
301C
003C
05FC
07F8
0780
ENDCHAR
STARTCHAR 308A
ENCODING 10858
SWIDTH 2400 0
DWIDTH 24 0
BBX 10 14 6 0
BITMAP
83C0
F3C0
F3C0
F3C0
F3C0
F3C0
F3C0
F3C0
F3C0
0780
0780
3F00
3E00
3800
ENDCHAR
STARTCHAR 308B
ENCODING 10859
SWIDTH 2400 0
DWIDTH 24 0
BBX 14 16 3 -2
BITMAP
7FC0
7FC0
03C0
0780
0F00
3FE0
7FF8
F87C
E01C
431C
0FDC
0EDC
1CFC
0FF8
07F0
0180
ENDCHAR
STARTCHAR 308C
ENCODING 10860
SWIDTH 2400 0
DWIDTH 24 0
BBX 17 15 2 -1
BITMAP
1E0000
1E0000
7F0000
FF2000
FEF800
1FFC00
1FFC00
1F3800
7E3800
FE3800
FE3380
DE3B80
1E3F00
1E3F00
000C00
ENDCHAR
STARTCHAR 308D
ENCODING 10861
SWIDTH 2400 0
DWIDTH 24 0
BBX 14 14 4 0
BITMAP
7F80
7F80
0780
0F00
1FC0
3FF0
7FF8
F83C
E01C
001C
0038
0078
1FF0
1F80
ENDCHAR
STARTCHAR 308E
ENCODING 10862
SWIDTH 2400 0
DWIDTH 24 0
BBX 15 11 4 -1
BITMAP
0F00
0F00
FF80
FFF8
0FFC
0FFE
7F8E
FC0C
FC7C
BC78
3C60
ENDCHAR
STARTCHAR 308F
ENCODING 10863
SWIDTH 2400 0
DWIDTH 24 0
BBX 17 14 2 0
BITMAP
0F0000
0F0000
7F8000
7FC800
0FFF00
0FFF00
0FC380
1F8380
3F0380
FF0380
6F0780
4F3F00
0F3E00
0F1800
ENDCHAR
STARTCHAR 3090
ENCODING 10864
SWIDTH 2400 0
DWIDTH 24 0
BBX 16 15 2 -1
BITMAP
1FE0
1FF0
00E0
01C0
0FF8
1FFC
3F9E
7B87
F707
E773
EEFF
DDFF
FDCF
71FE
00F8
ENDCHAR
STARTCHAR 3091
ENCODING 10865
SWIDTH 2400 0
DWIDTH 24 0
BBX 15 16 2 -2
BITMAP
3FE0
3FE0
03C0
0FF8
3FFC
781C
3F8E
1F9C
19FC
0FF8
1FF0
3C0C
FC5C
FFEE
07C6
0004
ENDCHAR
STARTCHAR 3092
ENCODING 10866
SWIDTH 2400 0
DWIDTH 24 0
BBX 13 15 3 -1
BITMAP
0380
0700
3FE0
7FE0
0E00
1F80
3FD8
79F8
F3F8
6FE0
1FC0
1DC0
3808
1FF8
0FF0
ENDCHAR
STARTCHAR 3093
ENCODING 10867
SWIDTH 2400 0
DWIDTH 24 0
BBX 16 15 2 -1
BITMAP
0300
0780
0780
0F00
0E00
0E00
1F80
1FC0
3FC0
3BC0
73C4
E3C7
E3FE
C1FE
40F8
ENDCHAR
STARTCHAR 30A1
ENCODING 11041
SWIDTH 2400 0
DWIDTH 24 0
BBX 13 11 3 -1
BITMAP
1FF8
1FF8
0038
0038
1EF0
1FE0
1EC0
3C00
F800
F000
6000
ENDCHAR
STARTCHAR 30A2
ENCODING 11042
SWIDTH 2400 0
DWIDTH 24 0
BBX 15 14 3 -1
BITMAP
FFFE
FFFE
001E
001E
0F3C
0F3C
0FF8
0FF0
1E40
1E00
3C00
FC00
7800
2000
ENDCHAR
STARTCHAR 30A3
ENCODING 11043
SWIDTH 2400 0
DWIDTH 24 0
BBX 9 10 5 0
BITMAP
0100
0780
1F80
3F00
FF00
7F00
0F00
0F00
0F00
0F00
ENDCHAR
STARTCHAR 30A4
ENCODING 11044
SWIDTH 2400 0
DWIDTH 24 0
BBX 13 14 4 0
BITMAP
0010
0038
00F8
01F0
07E0
1FC0
7FC0
FBC0
63C0
03C0
03C0
03C0
03C0
03C0
ENDCHAR
STARTCHAR 30A5
ENCODING 11045
SWIDTH 2400 0
DWIDTH 24 0
BBX 13 11 4 -1
BITMAP
0780
0780
FFF8
FFF8
F078
F078
0070
00F0
03E0
03C0
0180
ENDCHAR
STARTCHAR 30A6
ENCODING 11046
SWIDTH 2400 0
DWIDTH 24 0
BBX 14 15 4 -1
BITMAP
0780
0780
0780
FFFC
FFFC
F03C
F03C
003C
0078
0078
00F0
01F0
07E0
0780
0300
ENDCHAR
STARTCHAR 30A7
ENCODING 11047
SWIDTH 2400 0
DWIDTH 24 0
BBX 14 9 4 0
BITMAP
7FF8
7FF8
0780
0780
0780
0780
0780
FFFC
FFFC
ENDCHAR
STARTCHAR 30A8
ENCODING 11048
SWIDTH 2400 0
DWIDTH 24 0
BBX 18 13 2 0
BITMAP
7FFF00
7FFF00
01E000
01E000
01E000
01E000
01E000
01E000
01E000
01E000
01E000
FFFFC0
FFFFC0
ENDCHAR
STARTCHAR 30A9
ENCODING 11049
SWIDTH 2400 0
DWIDTH 24 0
BBX 14 11 3 -1
BITMAP
01E0
01E0
3FFC
3FFC
00E0
18E0
39E0
79E0
F7E0
47C0
0700
ENDCHAR
STARTCHAR 30AA
ENCODING 11050
SWIDTH 2400 0
DWIDTH 24 0
BBX 18 14 2 0
BITMAP
007800
007800
007800
1FFFC0
1FFFC0
007800
047800
0E7800
0E7800
1C7800
3C7800
78F800
F1F000
61C000
ENDCHAR
STARTCHAR 30AB
ENCODING 11051
SWIDTH 2400 0
DWIDTH 24 0
BBX 14 15 3 -1
BITMAP
0F00
0F00
0F00
FFFC
FFFC
0F3C
0F3C
0F3C
1E3C
1E3C
3E3C
3C78
FBF8
F1F0
6180
ENDCHAR
STARTCHAR 30AC
ENCODING 11052
SWIDTH 2400 0
DWIDTH 24 0
BBX 18 15 1 -1
BITMAP
000100
0F0F80
0F0FC0
0F07C0
7FFE80
7FFC00
0F3C00
0F3C00
0F3C00
1E3C00
1E3C00
3C7800
79F800
F1F000
60C000
ENDCHAR
STARTCHAR 30AD
ENCODING 11053
SWIDTH 2400 0
DWIDTH 24 0
BBX 14 14 3 0
BITMAP
0C00
1C20
1FE0
1FE0
FF80
FF1C
C7FC
07F8
3FC0
FF80
F3C0
01C0
01C0
0180
ENDCHAR
STARTCHAR 30AE
ENCODING 11054
SWIDTH 2400 0
DWIDTH 24 0
BBX 16 16 2 -1
BITMAP
0006
002F
3877
3DBB
1F98
7F80
FE00
EE70
8FF0
1FE0
FF80
FF00
C780
0380
03C0
0100
ENDCHAR
STARTCHAR 30AF
ENCODING 11055
SWIDTH 2400 0
DWIDTH 24 0
BBX 14 15 3 -1
BITMAP
0400
0F00
1E00
3FFC
7FFC
F83C
F03C
4038
0078
00F0
01F0
07E0
3FC0
1F00
0C00
ENDCHAR
STARTCHAR 30B0
ENCODING 11056
SWIDTH 2400 0
DWIDTH 24 0
BBX 18 16 1 -1
BITMAP
000180
060DC0
0F0FC0
1E06C0
3FFF00
7FF800
F07000
E07000
407000
007000
00F000
01E000
07C000
1F8000
0F0000
0C0000
ENDCHAR
STARTCHAR 30B1
ENCODING 11057
SWIDTH 2400 0
DWIDTH 24 0
BBX 15 15 2 -1
BITMAP
0600
0700
0E00
1E00
1FFE
3FFE
7870
F070
6070
00F0
00E0
01E0
07C0
0780
0300
ENDCHAR
STARTCHAR 30B2
ENCODING 11058
SWIDTH 2400 0
DWIDTH 24 0
BBX 18 16 1 -1
BITMAP
000180
0409C0
0F0FC0
0E06C0
1E0700
1FF800
3FF800
78E000
F0E000
E0E000
01E000
01C000
03C000
078000
070000
020000
ENDCHAR
STARTCHAR 30B3
ENCODING 11059
SWIDTH 2400 0
DWIDTH 24 0
BBX 15 12 3 0
BITMAP
FFFE
FFFE
001E
001E
001E
001E
001E
001E
001E
FFFE
FFFE
001E
ENDCHAR
STARTCHAR 30B4
ENCODING 11060
SWIDTH 2400 0
DWIDTH 24 0
BBX 20 16 0 0
BITMAP
000040
0002E0
0007E0
0003F0
FFFFA0
FFFD00
003C00
003C00
003C00
003C00
003C00
003C00
003C00
FFFC00
FFFC00
003C00
ENDCHAR
STARTCHAR 30B5
ENCODING 11061
SWIDTH 2400 0
DWIDTH 24 0
BBX 16 14 3 0
BITMAP
1E78
1E78
1E78
FFFF
FFFF
1E78
1E78
1E78
1EF0
00F0
03E0
3FC0
1F80
0C00
ENDCHAR
STARTCHAR 30B6
ENCODING 11062
SWIDTH 2400 0
DWIDTH 24 0
BBX 20 16 0 -1
BITMAP
0001C0
1E7EE0
1E7F70
1E7BA0
FFFF80
FFFF00
1E7800
1E7800
1E7800
007800
00F000
00F000
03E000
1FC000
0F8000
0E0000
ENDCHAR
STARTCHAR 30B7
ENCODING 11063
SWIDTH 2400 0
DWIDTH 24 0
BBX 16 14 3 0
BITMAP
3000
7800
3C00
1C06
080F
601E
F03C
7878
31F0
07E0
1F80
FF00
FC00
6000
ENDCHAR
STARTCHAR 30B8
ENCODING 11064
SWIDTH 2400 0
DWIDTH 24 0
BBX 18 17 2 -1
BITMAP
000200
000700
003B80
1C1DC0
1E0F00
0F0C00
060000
300700
780F00
381E00
183C00
10F800
03F000
0FC000
FF8000
7C0000
700000
ENDCHAR
STARTCHAR 30B9
ENCODING 11065
SWIDTH 2400 0
DWIDTH 24 0
BBX 14 15 3 -1
BITMAP
FFF8
FFF8
0078
00F8
00F0
01E0
03C0
07C0
0FE0
1FE0
3EF0
7C78
F83C
703C
2010
ENDCHAR
STARTCHAR 30BA
ENCODING 11066
SWIDTH 2400 0
DWIDTH 24 0
BBX 19 15 1 0
BITMAP
000380
000DC0
FFEEE0
FFF740
00E200
01E000
03C000
078000
0F8000
0FC000
3FE000
7CF000
F87000
E07800
402000
ENDCHAR
STARTCHAR 30BB
ENCODING 11067
SWIDTH 2400 0
DWIDTH 24 0
BBX 17 14 1 0
BITMAP
070200
071F00
0FFF00
0FFF00
7FC700
FF0F00
FF1E00
0F1C00
0F0000
0F0000
0F0000
0F0000
0FFF80
0FFF80
ENDCHAR
STARTCHAR 30BC
ENCODING 11068
SWIDTH 2400 0
DWIDTH 24 0
BBX 19 15 1 0
BITMAP
000100
0E1DC0
0E0FC0
1E3FE0
1FFE00
1FFC00
FFB800
FE3800
FE7800
1EF000
1E2000
1E0000
1E0000
1FFE00
1FFE00
ENDCHAR
STARTCHAR 30BD
ENCODING 11069
SWIDTH 2400 0
DWIDTH 24 0
BBX 15 15 3 -1
BITMAP
000C
200E
701E
781C
383C
1838
1078
00F0
01E0
03C0
0780
1F00
FE00
7800
3000
ENDCHAR
STARTCHAR 30BE
ENCODING 11070
SWIDTH 2400 0
DWIDTH 24 0
BBX 19 15 1 0
BITMAP
000100
000380
200FC0
F03EE0
787700
3C7200
18F000
01E000
03C000
078000
0F8000
3F0000
FC0000
F00000
400000
ENDCHAR
STARTCHAR 30BF
ENCODING 11071
SWIDTH 2400 0
DWIDTH 24 0
BBX 14 14 3 0
BITMAP
0400
0F00
0E00
1FFC
3FFC
783C
F738
67B8
03F0
01F0
01F8
0FFC
1F98
0C00
ENDCHAR
STARTCHAR 30C0
ENCODING 11072
SWIDTH 2400 0
DWIDTH 24 0
BBX 19 16 1 -1
BITMAP
000100
040380
0E1DC0
1E0EE0
1FFF00
3FFA00
787000
F47000
6F7000
0FF000
03E000
03F000
07F800
3FB800
3E1000
180000
ENDCHAR
STARTCHAR 30C1
ENCODING 11073
SWIDTH 2400 0
DWIDTH 24 0
BBX 15 15 3 -1
BITMAP
0030
01F0
1FF0
7FC0
3FC0
03C0
FFFE
FFFE
03C0
03C0
07C0
0780
1F00
1E00
0C00
ENDCHAR
STARTCHAR 30C2
ENCODING 11074
SWIDTH 2400 0
DWIDTH 24 0
BBX 19 16 1 -1
BITMAP
000100
000380
01FDC0
1FEEE0
FF8780
7F8200
078000
FFFC00
FFFC00
078000
078000
0F8000
0F0000
3E0000
3C0000
180000
ENDCHAR
STARTCHAR 30C3
ENCODING 11075
SWIDTH 2400 0
DWIDTH 24 0
BBX 16 11 2 0
BITMAP
0004
020F
6F0E
F79E
7B9C
3BF8
30F8
07F0
7FC0
7F00
3800
ENDCHAR
STARTCHAR 30C4
ENCODING 11076
SWIDTH 2400 0
DWIDTH 24 0
BBX 17 15 2 -1
BITMAP
000200
000780
020700
470700
E78F00
F38E00
7B9C00
313C00
207800
00F000
03E000
1FC000
7F8000
7E0000
700000
ENDCHAR
STARTCHAR 30C5
ENCODING 11077
SWIDTH 2400 0
DWIDTH 24 0
BBX 18 16 1 -1
BITMAP
000100
000380
000FC0
0006C0
040700
5E1E00
EF3800
F73800
737800
307000
20F000
03E000
0FC000
FF8000
7E0000
700000
ENDCHAR
STARTCHAR 30C6
ENCODING 11078
SWIDTH 2400 0
DWIDTH 24 0
BBX 16 15 2 -1
BITMAP
0FF8
0FF8
0000
0000
FFFF
FFFF
03C0
03C0
03C0
0380
0780
0F80
1F00
1E00
0C00
ENDCHAR
STARTCHAR 30C7
ENCODING 11079
SWIDTH 2400 0
DWIDTH 24 0
BBX 19 16 0 -1
BITMAP
000080
0FE1C0
0FE6E0
000760
0003C0
FFFD00
FFFC00
078000
078000
078000
070000
0F0000
1F0000
3E0000
3C0000
180000
ENDCHAR
STARTCHAR 30C8
ENCODING 11080
SWIDTH 2400 0
DWIDTH 24 0
BBX 11 14 7 0
BITMAP
F000
F000
F000
F000
FE00
FF80
F7C0
F1E0
F0E0
F040
F000
F000
F000
F000
ENDCHAR
STARTCHAR 30C9
ENCODING 11081
SWIDTH 2400 0
DWIDTH 24 0
BBX 13 15 5 0
BITMAP
0060
F370
F3B8
F3F0
F1C0
F000
F400
FE00
FF80
F7C0
F1E0
F0C0
F080
F000
F000
ENDCHAR
STARTCHAR 30CA
ENCODING 11082
SWIDTH 2400 0
DWIDTH 24 0
BBX 16 15 3 -1
BITMAP
03C0
03C0
03C0
03C0
FFFF
FFFF
03C0
03C0
03C0
0780
0780
0F80
1F00
1E00
0C00
ENDCHAR
STARTCHAR 30CB
ENCODING 11083
SWIDTH 2400 0
DWIDTH 24 0
BBX 15 9 3 3
BITMAP
7FF8
7FF8
0000
0000
0000
0000
0000
FFFE
FFFE
ENDCHAR
STARTCHAR 30CC
ENCODING 11084
SWIDTH 2400 0
DWIDTH 24 0
BBX 14 15 3 -1
BITMAP
7FF8
7FF8
0038
0078
0078
0E70
1FF0
0FE0
03E0
03F0
0FF8
1F7C
FE1C
7818
3000
ENDCHAR
STARTCHAR 30CD
ENCODING 11085
SWIDTH 2400 0
DWIDTH 24 0
BBX 15 14 3 0
BITMAP
0300
0300
7FF0
7FF8
01F0
03E0
07C0
1FB0
7FF8
FFBC
679E
078C
0780
0780
ENDCHAR
STARTCHAR 30CE
ENCODING 11086
SWIDTH 2400 0
DWIDTH 24 0
BBX 13 15 4 -1
BITMAP
0020
0038
0070
0070
00E0
01E0
01C0
0380
0780
0F00
1E00
7C00
F800
F000
C000
ENDCHAR
STARTCHAR 30CF
ENCODING 11087
SWIDTH 2400 0
DWIDTH 24 0
BBX 16 10 2 2
BITMAP
0020
0CF0
0E78
1C38
1C3C
3C1E
380E
700F
F007
E006
ENDCHAR
STARTCHAR 30D0
ENCODING 11088
SWIDTH 2400 0
DWIDTH 24 0
BBX 18 15 1 1
BITMAP
000100
000380
000BC0
001DC0
000E80
042E00
0EF400
0E7800
1C3C00
1C1C00
3C1E00
380F00
700700
F00780
200200
ENDCHAR
STARTCHAR 30D1
ENCODING 11089
SWIDTH 2400 0
DWIDTH 24 0
BBX 18 13 1 1
BITMAP
000380
0002C0
0006C0
0C2380
0EF000
1E7800
1C3C00
3C1C00
381E00
780E00
700700
F00700
000200
ENDCHAR
STARTCHAR 30D2
ENCODING 11090
SWIDTH 2400 0
DWIDTH 24 0
BBX 14 14 4 0
BITMAP
F000
F000
F030
F0F0
F7F0
FFC0
FF00
F800
F000
F000
F000
F000
FFFC
FFFC
ENDCHAR
STARTCHAR 30D3
ENCODING 11091
SWIDTH 2400 0
DWIDTH 24 0
BBX 19 15 1 0
BITMAP
000380
F00DC0
F01EE0
F00EC0
F0F700
F3F200
FFE000
FF0000
F80000
F00000
F00000
F00000
F00000
FFFC00
FFFC00
ENDCHAR
STARTCHAR 30D4
ENCODING 11092
SWIDTH 2400 0
DWIDTH 24 0
BBX 16 14 2 0
BITMAP
F00E
F00B
F01B
F06E
F3F0
FFE0
FF00
F800
F000
F000
F000
F000
FFF8
FFF8
ENDCHAR
STARTCHAR 30D5
ENCODING 11093
SWIDTH 2400 0
DWIDTH 24 0
BBX 13 13 4 0
BITMAP
FFF0
FFF8
0070
00F0
00E0
01E0
03C0
0780
0F00
1E00
7C00
7800
3000
ENDCHAR
STARTCHAR 30D6
ENCODING 11094
SWIDTH 2400 0
DWIDTH 24 0
BBX 18 15 1 0
BITMAP
000100
000B80
FFFDC0
FFFEC0
00F680
00E000
01E000
01C000
03C000
078000
0F0000
1E0000
7C0000
380000
300000
ENDCHAR
STARTCHAR 30D7
ENCODING 11095
SWIDTH 2400 0
DWIDTH 24 0
BBX 17 15 2 0
BITMAP
000700
000580
FFE580
FFF700
00E000
01E000
01C000
03C000
038000
078000
0F0000
3E0000
7C0000
780000
200000
ENDCHAR
STARTCHAR 30D8
ENCODING 11096
SWIDTH 2400 0
DWIDTH 24 0
BBX 14 8 3 0
BITMAP
0700
0F80
1FC0
3DE0
78F0
F07C
203C
0008
ENDCHAR
STARTCHAR 30D9
ENCODING 11097
SWIDTH 2400 0
DWIDTH 24 0
BBX 16 12 2 0
BITMAP
0004
000E
0067
0037
0F38
0F90
1FC0
3DE0
78F0
F078
203C
0008
ENDCHAR
STARTCHAR 30DA
ENCODING 11098
SWIDTH 2400 0
DWIDTH 24 0
BBX 14 11 3 -1
BITMAP
001C
0034
0034
0E1C
1F80
3FC0
79E0
F0F0
E078
403C
0018
ENDCHAR
STARTCHAR 30DB
ENCODING 11099
SWIDTH 2400 0
DWIDTH 24 0
BBX 16 14 2 0
BITMAP
01E0
01E0
01E0
3FFF
3FFF
01E0
19F8
1DFC
39FE
79EF
F1E7
21E0
0FE0
0FC0
ENDCHAR
STARTCHAR 30DC
ENCODING 11100
SWIDTH 2400 0
DWIDTH 24 0
BBX 17 17 2 -1
BITMAP
000200
001F00
001B80
03CD00
03CC00
03C000
7FFE00
7FFE00
13D000
3BF800
7BFC00
F3DE00
E3CE00
43C000
1FC000
1F8000
1C0000
ENDCHAR
STARTCHAR 30DD
ENCODING 11101
SWIDTH 2400 0
DWIDTH 24 0
BBX 17 16 2 -1
BITMAP
000780
000480
03C480
03C780
03C000
7FFC00
7FFC00
13D000
3BF800
7BFC00
F3DE00
E3CE00
43C000
1FC000
1F8000
1C0000
ENDCHAR
STARTCHAR 30DE
ENCODING 11102
SWIDTH 2400 0
DWIDTH 24 0
BBX 11 12 5 -1
BITMAP
7FE0
7FE0
01E0
03C0
0780
6F00
FE00
7C00
3E00
1F80
0780
0100
ENDCHAR
STARTCHAR 30DF
ENCODING 11103
SWIDTH 2400 0
DWIDTH 24 0
BBX 14 15 3 -1
BITMAP
0C00
1F80
0FE0
01F8
1870
3F00
0FE0
43F0
7860
FE00
1FC0
03F0
00FC
003C
000C
ENDCHAR
STARTCHAR 30E0
ENCODING 11104
SWIDTH 2400 0
DWIDTH 24 0
BBX 16 14 2 0
BITMAP
0700
0700
0F00
0E00
0E00
0E00
1C00
1C18
1C3C
3C1C
39FE
FFFF
FFFF
F006
ENDCHAR
STARTCHAR 30E1
ENCODING 11105
SWIDTH 2400 0
DWIDTH 24 0
BBX 14 15 3 -1
BITMAP
0010
0038
0038
0070
0070
3CE0
3FE0
1FC0
07E0
07F8
1F7C
3E18
FC00
F000
6000
ENDCHAR
STARTCHAR 30E2
ENCODING 11106
SWIDTH 2400 0
DWIDTH 24 0
BBX 16 14 2 0
BITMAP
3FFC
3FFC
03C0
03C0
03C0
03C0
FFFF
FFFF
03C0
03C0
03C0
03C0
03FF
03FF
ENDCHAR
STARTCHAR 30E3
ENCODING 11107
SWIDTH 2400 0
DWIDTH 24 0
BBX 12 10 4 0
BITMAP
0800
3DF0
1FF0
1FF0
7E70
FE70
6700
0700
0780
0200
ENDCHAR
STARTCHAR 30E4
ENCODING 11108
SWIDTH 2400 0
DWIDTH 24 0
BBX 14 15 3 -1
BITMAP
1000
7800
387C
39FC
1FFC
1F9C
7E3C
FE38
EF00
0700
0700
0380
0380
03C0
0100
ENDCHAR
STARTCHAR 30E5
ENCODING 11109
SWIDTH 2400 0
DWIDTH 24 0
BBX 13 9 4 0
BITMAP
03E0
7FE0
7FE0
01E0
01E0
01E0
01E0
FFF8
FFF8
ENDCHAR
STARTCHAR 30E6
ENCODING 11110
SWIDTH 2400 0
DWIDTH 24 0
BBX 19 12 0 0
BITMAP
1FFF00
1FFF00
000F00
000F00
000F00
000F00
000F00
000F00
000F00
000F00
FFFFE0
FFFFE0
ENDCHAR
STARTCHAR 30E7
ENCODING 11111
SWIDTH 2400 0
DWIDTH 24 0
BBX 15 9 4 0
BITMAP
7FFC
7FFC
003C
003C
7FFC
7FFC
003C
FFFE
FFFE
ENDCHAR
STARTCHAR 30E8
ENCODING 11112
SWIDTH 2400 0
DWIDTH 24 0
BBX 17 12 2 0
BITMAP
7FFF00
7FFF00
000F00
000F00
000F00
7FFF00
7FFF00
000F00
000F00
000F00
FFFF80
FFFF80
ENDCHAR
STARTCHAR 30E9
ENCODING 11113
SWIDTH 2400 0
DWIDTH 24 0
BBX 15 15 3 -1
BITMAP
1FF8
1FF8
0000
0000
FFFC
FFFE
003C
0078
01F0
03E0
0780
0F00
1E00
1C00
0800
ENDCHAR
STARTCHAR 30EA
ENCODING 11114
SWIDTH 2400 0
DWIDTH 24 0
BBX 10 17 6 -3
BITMAP
03C0
F3C0
F3C0
F3C0
F3C0
F3C0
F3C0
F3C0
F3C0
F3C0
0780
0780
0F80
0F00
3E00
3C00
1000
ENDCHAR
STARTCHAR 30EB
ENCODING 11115
SWIDTH 2400 0
DWIDTH 24 0
BBX 16 15 3 -1
BITMAP
0FE0
0FE0
0FE0
0FE0
0FE0
0FE0
0FE0
0FE0
1FE2
1FE7
1FFF
3DFE
79F8
F0E0
6040
ENDCHAR
STARTCHAR 30EC
ENCODING 11116
SWIDTH 2400 0
DWIDTH 24 0
BBX 13 14 6 0
BITMAP
F000
F000
F000
F000
F000
F000
F000
F010
F0F0
F3F8
FFC0
FF00
F800
6000
ENDCHAR
STARTCHAR 30ED
ENCODING 11117
SWIDTH 2400 0
DWIDTH 24 0
BBX 15 11 3 1
BITMAP
FFFE
FFFE
F01E
F01E
F01E
F01E
F01E
F01E
F01E
FFFE
FFFE
ENDCHAR
STARTCHAR 30EE
ENCODING 11118
SWIDTH 2400 0
DWIDTH 24 0
BBX 12 10 5 -1
BITMAP
FFF0
FFF0
F0F0
F0F0
F0F0
00F0
01F0
0FE0
0780
0200
ENDCHAR
STARTCHAR 30EF
ENCODING 11119
SWIDTH 2400 0
DWIDTH 24 0
BBX 15 14 3 0
BITMAP
FFFE
FFFE
F01E
F01E
F01E
F01E
001E
001E
001E
001E
003C
00FC
00F0
0040
ENDCHAR
STARTCHAR 30F0
ENCODING 11120
SWIDTH 2400 0
DWIDTH 24 0
BBX 16 14 3 0
BITMAP
00F0
00F0
00F0
7FFC
7FFC
1EF0
1EF0
1EF0
1EF0
FFFF
FFFF
00F0
00F0
00F0
ENDCHAR
STARTCHAR 30F1
ENCODING 11121
SWIDTH 2400 0
DWIDTH 24 0
BBX 16 12 2 0
BITMAP
7FFE
7FFE
001E
001E
003C
07FC
07F8
07F0
0780
0780
FFFF
FFFF
ENDCHAR
STARTCHAR 30F2
ENCODING 11122
SWIDTH 2400 0
DWIDTH 24 0
BBX 13 13 4 0
BITMAP
FFF0
FFF8
0070
0070
00E0
FFE0
FFC0
01C0
0380
0380
0700
0700
0200
ENDCHAR
STARTCHAR 30F3
ENCODING 11123
SWIDTH 2400 0
DWIDTH 24 0
BBX 15 11 3 0
BITMAP
1000
7808
3C0E
1E1E
0C3C
0078
01F0
0FE0
FFC0
FF00
6000
ENDCHAR
STARTCHAR 30F4
ENCODING 11124
SWIDTH 2400 0
DWIDTH 24 0
BBX 18 15 2 0
BITMAP
000100
0F0B80
0F1DC0
0F0E80
FFF400
FFF000
F0F000
F0F000
F0F000
00F000
00F000
00F000
01E000
01C000
008000
ENDCHAR
STARTCHAR 30F5
ENCODING 11125
SWIDTH 2400 0
DWIDTH 24 0
BBX 13 11 4 -1
BITMAP
0F00
0F00
FFF8
FFF8
0E78
1C78
1C78
3C78
FBF0
71E0
6000
ENDCHAR
STARTCHAR 30F6
ENCODING 11126
SWIDTH 2400 0
DWIDTH 24 0
BBX 14 12 3 -1
BITMAP
0C00
1E00
1C00
3FFC
7FFC
70E0
E0E0
21E0
01C0
03C0
0780
0100
ENDCHAR
STARTCHAR 0410
ENCODING 11297
SWIDTH 2400 0
DWIDTH 24 0
BBX 17 15 2 0
BITMAP
008000
008000
01C000
03C000
03E000
07F000
077000
0F7800
0E3800
1FFC00
3FFC00
3FFE00
780E00
700F00
F00780
ENDCHAR
STARTCHAR 0411
ENCODING 11298
SWIDTH 2400 0
DWIDTH 24 0
BBX 11 14 5 0
BITMAP
FFE0
FFE0
F000
F000
F000
FE00
FF80
FFC0
F3E0
F1E0
F1E0
F7E0
FFC0
FF00
ENDCHAR
STARTCHAR 0412
ENCODING 11299
SWIDTH 2400 0
DWIDTH 24 0
BBX 12 14 5 0
BITMAP
FF80
FFE0
F060
F020
F020
F060
FFC0
FFE0
F070
F030
F030
F030
FFE0
FF80
ENDCHAR
STARTCHAR 0413
ENCODING 11300
SWIDTH 2400 0
DWIDTH 24 0
BBX 13 14 4 0
BITMAP
FFF8
FFF8
F000
F000
F000
F000
F000
F000
F000
F000
F000
F000
F000
F000
ENDCHAR
STARTCHAR 0414
ENCODING 11301
SWIDTH 2400 0
DWIDTH 24 0
BBX 15 17 3 -2
BITMAP
3FF8
3FF8
3FF8
3C78
3C78
3C78
7C78
7C78
7878
7878
F878
FFFC
FFFE
F01E
E01E
E00E
E00E
ENDCHAR
STARTCHAR 0415
ENCODING 11302
SWIDTH 2400 0
DWIDTH 24 0
BBX 14 13 4 0
BITMAP
FFF8
FFF8
F000
F000
F000
FFF0
FFF0
F000
F000
F000
FFFC
FFFC
FFFC
ENDCHAR
STARTCHAR 0401
ENCODING 11303
SWIDTH 2400 0
DWIDTH 24 0
BBX 11 15 5 0
BITMAP
E0C0
E1E0
E0C0
0000
FFE0
FFE0
F000
F000
FFE0
FFE0
F000
F000
F000
FFE0
FFE0
ENDCHAR
STARTCHAR 0416
ENCODING 11304
SWIDTH 2400 0
DWIDTH 24 0
BBX 16 14 2 0
BITMAP
C3C3
E3C7
F3CF
7BDE
3BDC
3FFC
3FFC
3FFC
3DFC
3DFC
79DE
F9DF
F1CF
C1C7
ENDCHAR
STARTCHAR 0417
ENCODING 11305
SWIDTH 2400 0
DWIDTH 24 0
BBX 11 14 5 0
BITMAP
0F00
7FC0
FFE0
F1E0
21E0
03E0
1FC0
1FE0
01E0
00E0
60E0
FBE0
7FC0
3F80
ENDCHAR
STARTCHAR 0418
ENCODING 11306
SWIDTH 2400 0
DWIDTH 24 0
BBX 13 14 4 0
BITMAP
F038
F078
F0F8
F0F8
F1F8
F3F8
F378
F678
FE78
FC78
F878
F878
F078
E078
ENDCHAR
STARTCHAR 0419
ENCODING 11307
SWIDTH 2400 0
DWIDTH 24 0
BBX 13 13 4 0
BITMAP
18C0
FFB8
F078
F078
F0F8
F1F8
F378
F678
FE78
FC78
F878
F078
E078
ENDCHAR
STARTCHAR 041A
ENCODING 11308
SWIDTH 2400 0
DWIDTH 24 0
BBX 14 14 4 0
BITMAP
F07C
F0F8
F1E0
F3C0
F780
FF00
FF80
FF80
F3C0
F1E0
F0E0
F0F0
F078
F038
ENDCHAR
STARTCHAR 041B
ENCODING 11309
SWIDTH 2400 0
DWIDTH 24 0
BBX 14 14 3 0
BITMAP
1FFC
1FFC
1E3C
1E3C
1E3C
1E3C
1E3C
1E3C
1E3C
1E3C
3C3C
7C3C
F83C
603C
ENDCHAR
STARTCHAR 041C
ENCODING 11310
SWIDTH 2400 0
DWIDTH 24 0
BBX 16 14 2 0
BITMAP
F00F
F00F
F81F
F81F
FC3F
FE3F
FE7F
F76F
F7EF
F3CF
F1CF
F18F
F08F
F00F
ENDCHAR
STARTCHAR 041D
ENCODING 11311
SWIDTH 2400 0
DWIDTH 24 0
BBX 13 14 4 0
BITMAP
F078
F078
F078
F078
F078
F078
FFF8
FFF8
F038
F038
F038
F038
F038
F038
ENDCHAR
STARTCHAR 041E
ENCODING 11312
SWIDTH 2400 0
DWIDTH 24 0
BBX 16 14 2 0
BITMAP
0FF0
3FFC
7E3E
781E
F00F
F00F
F00F
F00F
F00F
F81F
781E
7C3E
1FFC
0FF0
ENDCHAR
STARTCHAR 041F
ENCODING 11313
SWIDTH 2400 0
DWIDTH 24 0
BBX 13 14 4 0
BITMAP
FFF8
FFF8
F038
F038
F038
F038
F038
F038
F038
F038
F038
F038
F038
F038
ENDCHAR
STARTCHAR 0420
ENCODING 11314
SWIDTH 2400 0
DWIDTH 24 0
BBX 12 14 4 0
BITMAP
FF80
FFE0
FFE0
F1F0
F0F0
F0F0
F0F0
FFE0
FFC0
F000
F000
F000
F000
F000
ENDCHAR
STARTCHAR 0421
ENCODING 11315
SWIDTH 2400 0
DWIDTH 24 0
BBX 15 14 3 0
BITMAP
0FE0
3FF8
7FF8
7010
F000
E000
E000
E000
E000
F01E
703C
3EFC
1FF8
0FE0
ENDCHAR
STARTCHAR 0422
ENCODING 11316
SWIDTH 2400 0
DWIDTH 24 0
BBX 14 14 3 0
BITMAP
FFFC
FFFC
0380
0380
0380
0380
0380
0380
0380
0380
0380
0380
0380
0380
ENDCHAR
STARTCHAR 0423
ENCODING 11317
SWIDTH 2400 0
DWIDTH 24 0
BBX 12 14 5 0
BITMAP
E070
F0F0
70E0
39E0
3DC0
1FC0
0F80
0F80
0700
0F00
0E00
7E00
7C00
7800
ENDCHAR
STARTCHAR 0424
ENCODING 11318
SWIDTH 2400 0
DWIDTH 24 0
BBX 16 14 2 0
BITMAP
03C0
03C0
1FF8
3FFC
7FFE
F3CE
F3CE
F3CF
F3CE
7FFE
3FFC
1FF8
03C0
03C0
ENDCHAR
STARTCHAR 0425
ENCODING 11319
SWIDTH 2400 0
DWIDTH 24 0
BBX 15 14 3 0
BITMAP
F01E
783C
7878
3CF0
1FE0
0FC0
07C0
07C0
0FE0
1FE0
3CF0
7878
F83C
F01E
ENDCHAR
STARTCHAR 0426
ENCODING 11320
SWIDTH 2400 0
DWIDTH 24 0
BBX 14 15 3 -1
BITMAP
F0F0
F0F0
F0F0
F0F0
F0F0
F0F0
F0F0
F0F0
F0F0
F0F0
FFF8
FFFC
003C
003C
003C
ENDCHAR
STARTCHAR 0427
ENCODING 11321
SWIDTH 2400 0
DWIDTH 24 0
BBX 13 13 4 0
BITMAP
E078
E078
E078
E078
E078
E078
E0F8
FFF8
3FF8
0078
0078
0078
0078
ENDCHAR
STARTCHAR 0428
ENCODING 11322
SWIDTH 2400 0
DWIDTH 24 0
BBX 16 14 2 0
BITMAP
F000
F1CF
F1CF
F1CF
F1CF
F1CF
F1CF
F1CF
F1CF
F1CF
F1CF
F1CF
FFFF
FFFF
ENDCHAR
STARTCHAR 0429
ENCODING 11323
SWIDTH 2400 0
DWIDTH 24 0
BBX 15 15 3 -2
BITMAP
F7BC
F7BC
F7BC
F7BC
F7BC
F7BC
F7BC
F7BC
F7BC
F7BC
FFFC
FFFE
001E
001E
001E
ENDCHAR
STARTCHAR 042A
ENCODING 11324
SWIDTH 2400 0
DWIDTH 24 0
BBX 14 14 3 0
BITMAP
FC00
FC00
3C00
3C00
3C00
3FE0
3FF8
3FFC
3C1C
3C1C
3C1C
3CFC
3FF8
3FF0
ENDCHAR
STARTCHAR 042B
ENCODING 11325
SWIDTH 2400 0
DWIDTH 24 0
BBX 16 14 2 0
BITMAP
F00F
F00F
F00F
F00F
F00F
FF8F
FFEF
FFFF
F07F
F07F
F07F
F3FF
FFEF
FFCF
ENDCHAR
STARTCHAR 042C
ENCODING 11326
SWIDTH 2400 0
DWIDTH 24 0
BBX 12 14 4 0
BITMAP
F000
F000
F000
F000
F000
FF80
FFE0
FFF0
F070
F070
F070
F3F0
FFE0
FFC0
ENDCHAR
STARTCHAR 042D
ENCODING 11327
SWIDTH 2400 0
DWIDTH 24 0
BBX 13 14 4 0
BITMAP
0F00
3FC0
7FE0
F0F0
2070
0078
0FF8
0FF8
0078
2070
F0F0
7FF0
3FE0
1F80
ENDCHAR
STARTCHAR 042E
ENCODING 11328
SWIDTH 2400 0
DWIDTH 24 0
BBX 16 14 2 0
BITMAP
F0F8
F1FC
F3FE
F39E
F70F
FF0F
FF0F
FF0F
FF0F
FF0F
F79E
F7FC
F3F8
F0F0
ENDCHAR
STARTCHAR 042F
ENCODING 11329
SWIDTH 2400 0
DWIDTH 24 0
BBX 12 14 5 0
BITMAP
1FF0
7FF0
7FF0
60F0
60F0
70F0
7FF0
3FF0
1E70
1C70
3C70
7870
7070
F070
ENDCHAR
STARTCHAR 0430
ENCODING 11345
SWIDTH 2400 0
DWIDTH 24 0
BBX 9 10 5 0
BITMAP
3E00
7F00
FF00
4700
3F00
FF00
E700
FF00
FF80
7F80
ENDCHAR
STARTCHAR 0431
ENCODING 11346
SWIDTH 2400 0
DWIDTH 24 0
BBX 10 11 5 0
BITMAP
0380
1F00
7E00
7E00
7F80
FFC0
E1C0
E1C0
73C0
7F80
1F00
ENDCHAR
STARTCHAR 0432
ENCODING 11347
SWIDTH 2400 0
DWIDTH 24 0
BBX 10 10 6 0
BITMAP
FF00
FF80
F1C0
F180
FF80
FFC0
F0C0
F1C0
FF80
FF00
ENDCHAR
STARTCHAR 0433
ENCODING 11348
SWIDTH 2400 0
DWIDTH 24 0
BBX 10 10 5 0
BITMAP
FFC0
FFC0
F000
F000
F000
F000
F000
F000
F000
F000
ENDCHAR
STARTCHAR 0434
ENCODING 11349
SWIDTH 2400 0
DWIDTH 24 0
BBX 10 11 7 -1
BITMAP
7F80
7F80
E780
C780
C780
C780
C780
FFC0
FFC0
C0C0
C0C0
ENDCHAR
STARTCHAR 0435
ENCODING 11350
SWIDTH 2400 0
DWIDTH 24 0
BBX 10 10 5 0
BITMAP
3F00
7F80
E1C0
FFC0
FFC0
E000
F1C0
7FC0
3F80
0C00
ENDCHAR
STARTCHAR 0451
ENCODING 11351
SWIDTH 2400 0
DWIDTH 24 0
BBX 10 13 5 0
BITMAP
61C0
F1C0
61C0
1E00
7F80
FFC0
E1C0
FFC0
FFC0
E000
F3C0
7FC0
3F00
ENDCHAR
STARTCHAR 0436
ENCODING 11352
SWIDTH 2400 0
DWIDTH 24 0
BBX 13 11 3 0
BITMAP
0008
7798
77B8
7FB0
7FB0
7FF0
7FF0
7FF0
F7F8
F7F8
C798
ENDCHAR
STARTCHAR 0437
ENCODING 11353
SWIDTH 2400 0
DWIDTH 24 0
BBX 8 10 6 0
BITMAP
3C
7F
E7
07
3F
3F
07
E7
FF
7E
ENDCHAR
STARTCHAR 0438
ENCODING 11354
SWIDTH 2400 0
DWIDTH 24 0
BBX 11 10 5 0
BITMAP
F0E0
F1E0
F3E0
F7E0
F7E0
FDE0
F9E0
F9E0
F1E0
E1E0
ENDCHAR
STARTCHAR 0439
ENCODING 11355
SWIDTH 2400 0
DWIDTH 24 0
BBX 10 11 5 0
BITMAP
3B00
FEC0
F1C0
F3C0
F7C0
F7C0
FFC0
FBC0
F3C0
E3C0
C3C0
ENDCHAR
STARTCHAR 043A
ENCODING 11356
SWIDTH 2400 0
DWIDTH 24 0
BBX 11 10 4 0
BITMAP
F1E0
F3C0
F780
FF00
FE00
FE00
F700
F780
F380
F1C0
ENDCHAR
STARTCHAR 043B
ENCODING 11357
SWIDTH 2400 0
DWIDTH 24 0
BBX 12 10 4 0
BITMAP
3FF0
3FF0
3CF0
3CF0
3CF0
3CF0
3CF0
7CF0
F8F0
E0F0
ENDCHAR
STARTCHAR 043C
ENCODING 11358
SWIDTH 2400 0
DWIDTH 24 0
BBX 14 10 3 0
BITMAP
F03C
F03C
F87C
FCFC
FEFC
F7BC
F7BC
F33C
F03C
F03C
ENDCHAR
STARTCHAR 043D
ENCODING 11359
SWIDTH 2400 0
DWIDTH 24 0
BBX 12 10 4 0
BITMAP
F0F0
F0F0
F0F0
F0F0
FFF0
FFF0
F0F0
F0F0
F0F0
F0F0
ENDCHAR
STARTCHAR 043E
ENCODING 11360
SWIDTH 2400 0
DWIDTH 24 0
BBX 10 10 5 0
BITMAP
3F00
7F80
F3C0
F3C0
F3C0
F3C0
F3C0
7F80
7F80
3F00
ENDCHAR
STARTCHAR 043F
ENCODING 11361
SWIDTH 2400 0
DWIDTH 24 0
BBX 11 10 5 0
BITMAP
FFE0
FFE0
F1E0
F1E0
F1E0
F1E0
F1E0
F1E0
F1E0
F1E0
ENDCHAR
STARTCHAR 0440
ENCODING 11362
SWIDTH 2400 0
DWIDTH 24 0
BBX 10 12 6 -2
BITMAP
FF00
FF80
F1C0
F1C0
F1C0
F3C0
FFC0
FF00
F000
F000
F000
F000
ENDCHAR
STARTCHAR 0441
ENCODING 11363
SWIDTH 2400 0
DWIDTH 24 0
BBX 11 10 4 0
BITMAP
1F80
7FC0
79E0
F0E0
F000
F000
F0E0
78E0
7FC0
1F80
ENDCHAR
STARTCHAR 0442
ENCODING 11364
SWIDTH 2400 0
DWIDTH 24 0
BBX 10 10 5 0
BITMAP
FFC0
FFC0
1E00
1E00
1E00
1E00
1E00
1E00
1E00
1E00
ENDCHAR
STARTCHAR 0443
ENCODING 11365
SWIDTH 2400 0
DWIDTH 24 0
BBX 10 11 5 -1
BITMAP
F1C0
7380
3B80
3B80
1F00
1F00
0E00
1C00
7C00
7800
6000
ENDCHAR
STARTCHAR 0444
ENCODING 11366
SWIDTH 2400 0
DWIDTH 24 0
BBX 12 11 5 0
BITMAP
0F00
0F00
7FE0
FFF0
EF70
EF70
EF70
FFF0
7FE0
0F00
0F00
ENDCHAR
STARTCHAR 0445
ENCODING 11367
SWIDTH 2400 0
DWIDTH 24 0
BBX 10 10 5 0
BITMAP
E1C0
73C0
7F80
3F00
1F00
1E00
3F00
3F80
73C0
F1C0
ENDCHAR
STARTCHAR 0446
ENCODING 11368
SWIDTH 2400 0
DWIDTH 24 0
BBX 13 12 4 -1
BITMAP
00F0
F0F0
F0F0
F0F0
F0F0
F0F0
F0F0
FFF8
FFF8
0078
0078
0078
ENDCHAR
STARTCHAR 0447
ENCODING 11369
SWIDTH 2400 0
DWIDTH 24 0
BBX 11 10 4 0
BITMAP
F1E0
F1E0
F1E0
F1E0
F1E0
FFE0
7FE0
1DE0
01E0
01E0
ENDCHAR
STARTCHAR 0448
ENCODING 11370
SWIDTH 2400 0
DWIDTH 24 0
BBX 11 10 4 0
BITMAP
FFE0
FFE0
FFE0
FFE0
FFE0
FFE0
FFE0
FFE0
FFE0
FFE0
ENDCHAR
STARTCHAR 0449
ENCODING 11371
SWIDTH 2400 0
DWIDTH 24 0
BBX 13 11 4 -1
BITMAP
FE78
FE78
FE78
FE78
FE78
FE78
FE78
FFF0
FFF0
00F0
00F0
ENDCHAR
STARTCHAR 044A
ENCODING 11372
SWIDTH 2400 0
DWIDTH 24 0
BBX 12 10 3 0
BITMAP
FC00
FC00
3C00
3FC0
3FE0
3FF0
3C70
3CF0
3FE0
3FC0
ENDCHAR
STARTCHAR 044B
ENCODING 11373
SWIDTH 2400 0
DWIDTH 24 0
BBX 13 10 4 0
BITMAP
F078
E078
E078
F878
FF78
FF78
F178
F378
FF78
FE78
ENDCHAR
STARTCHAR 044C
ENCODING 11374
SWIDTH 2400 0
DWIDTH 24 0
BBX 10 10 6 0
BITMAP
F000
F000
F000
FF00
FFC0
F1C0
F1C0
FFC0
FF80
FE00
ENDCHAR
STARTCHAR 044D
ENCODING 11375
SWIDTH 2400 0
DWIDTH 24 0
BBX 10 10 5 0
BITMAP
3F00
7F80
F3C0
21C0
1FC0
1FC0
21C0
F3C0
7F80
3F00
ENDCHAR
STARTCHAR 044E
ENCODING 11376
SWIDTH 2400 0
DWIDTH 24 0
BBX 13 10 4 0
BITMAP
F1C0
F3F0
F7F0
F678
FE78
FE78
F678
F7F8
F3F0
F3E0
ENDCHAR
STARTCHAR 044F
ENCODING 11377
SWIDTH 2400 0
DWIDTH 24 0
BBX 9 10 6 0
BITMAP
7F80
FF80
E780
F780
FF80
7F80
7780
7780
E780
E780
ENDCHAR
STARTCHAR AC00
ENCODING 12321
SWIDTH 2400 0
DWIDTH 24 0
BBX 17 18 2 -3
BITMAP
001E00
FFDE00
FFDE00
03DE00
03DE00
03DE00
03DE00
079F80
079F80
0F9E00
1F1E00
FE1E00
FC1E00
701E00
001E00
001E00
001E00
001E00
ENDCHAR
STARTCHAR AC01
ENCODING 12322
SWIDTH 2400 0
DWIDTH 24 0
BBX 17 18 2 -3
BITMAP
001E00
FFDE00
FFDE00
03DE00
03DF80
079F80
1F1E00
FE1E00
7C1E00
701E00
000000
7FFE00
7FFE00
001E00
001E00
001E00
001E00
001E00
ENDCHAR
STARTCHAR AC04
ENCODING 12323
SWIDTH 2400 0
DWIDTH 24 0
BBX 17 17 2 -2
BITMAP
001E00
FFDE00
FFDE00
03DE00
03DF80
079F80
0F9E00
7F1E00
FE1E00
781E00
601E00
001E00
780000
780000
780000
7FFF00
3FFF00
ENDCHAR
STARTCHAR AC07
ENCODING 12324
SWIDTH 2400 0
DWIDTH 24 0
BBX 17 17 2 -2
BITMAP
001E00
FFDE00
FFDE00
03DE00
03DF80
079F80
3F1E00
FE1E00
7C1E00
701E00
000000
7FFF00
7FFF00
780000
780000
7FFF00
3FFF00
ENDCHAR
STARTCHAR AC08
ENCODING 12325
SWIDTH 2400 0
DWIDTH 24 0
BBX 17 17 2 -2
BITMAP
001E00
FFDE00
FFDE00
03DF80
07DF80
1F9E00
FF1E00
7E1E00
701E00
000000
7FFE00
7FFE00
000E00
7FFE00
7FFE00
7FFF00
7FFF00
ENDCHAR
STARTCHAR AC09
ENCODING 12326
SWIDTH 2400 0
DWIDTH 24 0
BBX 17 18 2 -3
BITMAP
001E00
FFDE00
FFDE00
03DE00
07DF80
1F9F80
FF1E00
7E1E00
701E00
000000
FFFE00
FFFE00
0F1E00
FF1E00
FF1E00
FF1E00
7F1E00
001E00
ENDCHAR
STARTCHAR AC0A
ENCODING 12327
SWIDTH 2400 0
DWIDTH 24 0
BBX 17 17 2 -2
BITMAP
001E00
FFDE00
FFDE00
03DE00
079F80
3F9F80
FF1E00
7C1E00
601E00
000000
FEFF00
FEFF00
0EFF00
FEFF00
FEFF00
FFFF00
7F7F00
ENDCHAR
STARTCHAR AC10
ENCODING 12328
SWIDTH 2400 0
DWIDTH 24 0
BBX 17 17 2 -2
BITMAP
001E00
FFDE00
FFDE00
03DE00
03DF80
079F80
3F1E00
FE1E00
7C1E00
701E00
000000
7FFE00
7FFE00
781E00
781E00
7FFE00
3FFE00
ENDCHAR
STARTCHAR AC11
ENCODING 12329
SWIDTH 2400 0
DWIDTH 24 0
BBX 17 17 2 -2
BITMAP
001E00
FFDE00
FFDE00
03DE00
079F80
0F9F80
FF1E00
FE1E00
781E00
000000
781E00
781E00
7FFE00
7FFE00
781E00
7FFE00
3FFE00
ENDCHAR
STARTCHAR AC12
ENCODING 12330
SWIDTH 2400 0
DWIDTH 24 0
BBX 18 18 2 -3
BITMAP
001E00
FFDE00
FFDE00
03DE00
079F80
0F9F80
FF1E00
FE1E00
781E00
000000
001E00
FF1E00
FF3E00
FF3F00
FF7FC0
FFF3C0
FF6180
7F4000
ENDCHAR
STARTCHAR AC13
ENCODING 12331
SWIDTH 2400 0
DWIDTH 24 0
BBX 17 18 2 -3
BITMAP
001E00
FFDE00
FFDE00
03DE00
03DF80
079F80
1F9E00
7F1E00
FC1E00
781E00
41E000
01E000
03F000
07F800
3FFE00
7F3F80
7C1F00
300300
ENDCHAR
STARTCHAR AC14
ENCODING 12332
SWIDTH 2400 0
DWIDTH 24 0
BBX 17 18 2 -3
BITMAP
001E00
FFDE00
FFDE00
03DE00
03DF80
0F9F80
3F1E00
FE1E00
781E00
600000
0F3C00
0F3C00
1F3E00
3FFE00
7FFF00
FBF780
F1E380
414100
ENDCHAR
STARTCHAR AC15
ENCODING 12333
SWIDTH 2400 0
DWIDTH 24 0
BBX 17 18 2 -3
BITMAP
001E00
FFDE00
FFDE00
03DE00
03DF80
079F80
3F1E00
FE1E00
7C1E00
73FE00
0FFC00
1E3C00
1C1E00
1C1E00
1C1E00
1E3C00
0FF800
03F000
ENDCHAR
STARTCHAR AC16
ENCODING 12334
SWIDTH 2400 0
DWIDTH 24 0
BBX 17 17 2 -2
BITMAP
001E00
FF9E00
FF9E00
039E00
079F80
0F9F80
FF1E00
FE1E00
781E00
001E00
7FFF00
7FFF00
03C000
07E000
7FF000
7F7F00
041A00
ENDCHAR
STARTCHAR AC17
ENCODING 12335
SWIDTH 2400 0
DWIDTH 24 0
BBX 17 18 2 -3
BITMAP
001E00
FFDE00
FFDE00
03DE00
079F80
0F9F80
7F1E00
FE1E00
781E00
000000
03C000
7FFF00
7FFF00
03C000
03F000
0F7F00
FC1F00
700000
ENDCHAR
STARTCHAR AC19
ENCODING 12336
SWIDTH 2400 0
DWIDTH 24 0
BBX 17 17 2 -2
BITMAP
001E00
FFDE00
FFDE00
03DE00
079F80
0F9F80
FF1E00
FE1E00
701E00
000000
7FFE00
7FFE00
780000
7FFE00
7FFE00
7FFE00
3FFE00
ENDCHAR
STARTCHAR AC1A
ENCODING 12337
SWIDTH 2400 0
DWIDTH 24 0
BBX 17 17 2 -2
BITMAP
001E00
FFDE00
FFDE00
03DE00
079F80
0F9F80
7F1E00
FE1E00
781E00
001E00
000000
7FFF00
7FFF00
1E3C00
1E3C00
7FFF00
7FFF00
ENDCHAR
STARTCHAR AC1B
ENCODING 12338
SWIDTH 2400 0
DWIDTH 24 0
BBX 18 18 1 -3
BITMAP
000F00
FFCF00
FFCF00
03CF00
03CFC0
078FC0
1F0F00
FE0F00
F00F00
01E000
01E000
7F3F80
7E1F80
0E1C00
0F1C00
0F3C00
0FFC00
03F000
ENDCHAR
STARTCHAR AC1C
ENCODING 12339
SWIDTH 2400 0
DWIDTH 24 0
BBX 18 18 0 -3
BITMAP
007BC0
7FFBC0
7FFBC0
07FBC0
07FBC0
07FBC0
07FFC0
07FFC0
0FFBC0
0F7BC0
1F7BC0
FE7BC0
7C7BC0
307BC0
007BC0
007BC0
007BC0
007BC0
ENDCHAR
STARTCHAR AC1D
ENCODING 12340
SWIDTH 2400 0
DWIDTH 24 0
BBX 17 18 1 -3
BITMAP
00F780
FFF780
FFF780
0FFF80
0FFF80
1FFF80
3EF780
FCF780
F8F780
60F780
000000
7FFF80
7FFF80
000780
000780
000780
000780
000780
ENDCHAR
STARTCHAR AC20
ENCODING 12341
SWIDTH 2400 0
DWIDTH 24 0
BBX 17 17 1 -2
BITMAP
00F780
FFF780
FFF780
0FFF80
0FFF80
1FFF80
1EF780
7CF780
FCF780
70F780
40F780
000000
780000
780000
780000
7FFF80
3FFF80
ENDCHAR
STARTCHAR AC24
ENCODING 12342
SWIDTH 2400 0
DWIDTH 24 0
BBX 18 17 0 -2
BITMAP
007BC0
7FFBC0
7FFBC0
07FFC0
07FFC0
0F7FC0
FF7BC0
7E7BC0
387BC0
000000
3FFF80
3FFF80
000380
3FFF80
3FFF80
3FFFC0
3FFFC0
ENDCHAR
STARTCHAR AC2C
ENCODING 12343
SWIDTH 2400 0
DWIDTH 24 0
BBX 17 17 1 -2
BITMAP
00F780
FFF780
FFF780
0FFF80
0FFF80
1FFF80
3EF780
FCF780
F8F780
60F780
000000
7FFF00
7FFF00
780F00
780F00
7FFF00
3FFF00
ENDCHAR
STARTCHAR AC2D
ENCODING 12344
SWIDTH 2400 0
DWIDTH 24 0
BBX 17 17 1 -2
BITMAP
00F780
FFF780
FFF780
0FFF80
0FFF80
1EFF80
7EF780
FCF780
70F780
000000
000000
780780
7FFF80
7FFF80
780780
7FFF80
3FFF80
ENDCHAR
STARTCHAR AC2F
ENCODING 12345
SWIDTH 2400 0
DWIDTH 24 0
BBX 18 18 0 -3
BITMAP
007BC0
7FFBC0
7FFBC0
07FFC0
07FFC0
0F7FC0
1F7BC0
FE7BC0
7C7BC0
307BC0
000000
00F000
00F000
01F800
0FFE00
3F9FC0
3E0F80
180180
ENDCHAR
STARTCHAR AC30
ENCODING 12346
SWIDTH 2400 0
DWIDTH 24 0
BBX 18 18 0 -3
BITMAP
0071C0
7FF1C0
7FF1C0
07FFC0
07FFC0
0F7BC0
1F7BC0
FE7BC0
7C7BC0
300000
071E00
079E00
0F9F00
1FFF00
3FFF80
7DFBC0
79F1C0
20A080
ENDCHAR
STARTCHAR AC31
ENCODING 12347
SWIDTH 2400 0
DWIDTH 24 0
BBX 18 18 0 -3
BITMAP
007BC0
7FFBC0
7FFBC0
07FBC0
07FFC0
0F7FC0
1F7BC0
FE7BC0
7C7BC0
30FFC0
03FF00
07FF00
078F80
070780
070780
078F00
03FE00
00FC00
ENDCHAR
STARTCHAR AC38
ENCODING 12348
SWIDTH 2400 0
DWIDTH 24 0
BBX 17 18 2 -3
BITMAP
001E00
FFDE00
FFDE00
03DF80
03DF80
03DE00
03DE00
079E00
079F80
0F9F80
1F1E00
FE1E00
FC1E00
701E00
001E00
001E00
001E00
001E00
ENDCHAR
STARTCHAR AC39
ENCODING 12349
SWIDTH 2400 0
DWIDTH 24 0
BBX 17 18 2 -3
BITMAP
001E00
FFDE00
FFDF80
03DF80
03DE00
079E00
1F1F80
FE1F80
FC1E00
601E00
000000
FFFE00
FFFE00
001E00
001E00
001E00
001E00
001E00
ENDCHAR
STARTCHAR AC3C
ENCODING 12350
SWIDTH 2400 0
DWIDTH 24 0
BBX 17 17 2 -2
BITMAP
001E00
FFDE00
FFDF80
03DF80
03DE00
079E00
0F9F80
3F1F80
FE1E00
781E00
401E00
001E00
780000
780000
780000
7FFF00
3FFF00
ENDCHAR
STARTCHAR AC40
ENCODING 12351
SWIDTH 2400 0
DWIDTH 24 0
BBX 17 17 2 -2
BITMAP
001E00
FFDE00
FFDF80
03DF80
03DE00
079E00
1F1F80
FE1F80
701E00
000000
FFFE00
FFFE00
001E00
FFFE00
FFFE00
FFFE00
7FFE00
ENDCHAR
STARTCHAR AC4B
ENCODING 12352
SWIDTH 2400 0
DWIDTH 24 0
BBX 17 18 2 -3
BITMAP
001E00
FFDE00
FFDF80
03DF80
03DE00
079E00
1F9F80
FF1F80
FC1E00
701E00
01E000
01E000
03F000
07F800
3FFE00
7F3F80
7C1F00
300300
ENDCHAR
STARTCHAR AC4D
ENCODING 12353
SWIDTH 2400 0
DWIDTH 24 0
BBX 17 18 2 -3
BITMAP
001E00
FFDE00
FFDF80
03DF80
03DE00
079E00
1F9F80
FF1F80
FC1E00
73FE00
0FFC00
1E3C00
1C1E00
1C1E00
1C1E00
1E3C00
0FF800
03F000
ENDCHAR
STARTCHAR AC54
ENCODING 12354
SWIDTH 2400 0
DWIDTH 24 0
BBX 17 18 1 -3
BITMAP
00F780
FFF780
FFF780
0FFF80
0FFF80
0FFF80
0FF780
0FF780
1FFF80
1EFF80
3EFF80
FCF780
F8F780
F0F780
40F780
00F780
00F780
00F780
ENDCHAR
STARTCHAR AC58
ENCODING 12355
SWIDTH 2400 0
DWIDTH 24 0
BBX 17 17 1 -2
BITMAP
00F780
FFFF80
FFFF80
0FFF80
0FF780
1FF780
3EFF80
FCFF80
F8F780
F0F780
40F780
000000
780000
780000
780000
7FFF80
3FFF80
ENDCHAR
STARTCHAR AC5C
ENCODING 12356
SWIDTH 2400 0
DWIDTH 24 0
BBX 17 17 1 -2
BITMAP
00F780
FFFF80
FFFF80
0FFF80
1EF780
3EFF80
FCFF80
F8FF80
60F780
000000
7FFF80
7FFF80
7FFF80
7FFF80
780000
7FFF80
3FFF80
ENDCHAR
STARTCHAR AC70
ENCODING 12357
SWIDTH 2400 0
DWIDTH 24 0
BBX 17 18 1 -3
BITMAP
000780
FFC780
FFC780
03C780
03C780
03FF80
03FF80
078780
078780
0F8780
3F0780
FE0780
FC0780
780780
400780
000780
000780
000780
ENDCHAR
STARTCHAR AC71
ENCODING 12358
SWIDTH 2400 0
DWIDTH 24 0
BBX 17 18 1 -3
BITMAP
000780
FFC780
FFC780
03C780
03FF80
07BF80
1F8780
FF0780
FC0780
700780
000000
7FFF80
7FFF80
000780
000780
000780
000780
000780
ENDCHAR
STARTCHAR AC74
ENCODING 12359
SWIDTH 2400 0
DWIDTH 24 0
BBX 17 17 1 -2
BITMAP
000780
FFC780
FFC780
03C780
03FF80
07BF80
0F8780
7F0780
FE0780
F80780
000780
000000
780000
780000
780000
7FFF80
3FFF80
ENDCHAR
STARTCHAR AC77
ENCODING 12360
SWIDTH 2400 0
DWIDTH 24 0
BBX 17 17 1 -2
BITMAP
000780
FFC780
FFC780
03C780
03BF80
07BF80
1F0780
FE0780
700780
000000
7FFF80
7FFF80
780000
780000
780000
7FFF80
3FFF80
ENDCHAR
STARTCHAR AC78
ENCODING 12361
SWIDTH 2400 0
DWIDTH 24 0
BBX 18 17 1 -2
BITMAP
000780
FFC780
FFC780
03C780
03BF80
07BF80
1F0780
FE0780
700780
000000
3FFF80
3FFF80
7FFF80
7FFF80
780000
7FFFC0
3FFFC0
ENDCHAR
STARTCHAR AC7A
ENCODING 12362
SWIDTH 2400 0
DWIDTH 24 0
BBX 17 17 1 -2
BITMAP
000700
FFC700
FFC780
03C780
03BF80
07BF80
1F0780
FE0780
700780
000000
7FFF80
7FFF80
07F780
7FF780
7FF780
7FFF80
7FFF80
ENDCHAR
STARTCHAR AC80
ENCODING 12363
SWIDTH 2400 0
DWIDTH 24 0
BBX 16 17 1 -2
BITMAP
000F
FFCF
FFCF
03CF
03FF
07FF
1F0F
FE0F
700F
0000
0000
7FFF
7FFF
780F
780F
7FFF
3FFF
ENDCHAR
STARTCHAR AC81
ENCODING 12364
SWIDTH 2400 0
DWIDTH 24 0
BBX 16 17 1 -2
BITMAP
000F
FFCF
FFCF
03CF
03FF
07FF
1F0F
FE0F
700F
0000
780F
780F
7FFF
7FFF
780F
7FFF
3FFF
ENDCHAR
STARTCHAR AC83
ENCODING 12365
SWIDTH 2400 0
DWIDTH 24 0
BBX 17 18 1 -3
BITMAP
000780
FFC780
FFC780
03C780
03C780
07C780
07BF80
0F3F80
3E0780
FC0780
61E780
03E780
0FF000
FFF800
7FFE00
7F3F80
3C0F00
300300
ENDCHAR
STARTCHAR AC84
ENCODING 12366
SWIDTH 2400 0
DWIDTH 24 0
BBX 17 18 1 -3
BITMAP
000780
FFC780
FFC780
03C780
03FF80
07BF80
1F8780
FF0780
FC0780
700000
0E3C00
0F3C00
1F3E00
3FFE00
7FFF00
FBF780
F1E380
414100
ENDCHAR
STARTCHAR AC85
ENCODING 12367
SWIDTH 2400 0
DWIDTH 24 0
BBX 16 18 1 -3
BITMAP
000F
FFCF
FFCF
03CF
03FF
07FF
0F8F
3F0F
FC0F
71FF
07FF
0F1E
0E0F
0E0F
0E0F
0F1E
07FC
01F0
ENDCHAR
STARTCHAR AC86
ENCODING 12368
SWIDTH 2400 0
DWIDTH 24 0
BBX 17 18 1 -3
BITMAP
000780
FFC780
FFC780
03C780
03BF80
07BF80
1F0780
FE0780
700780
000000
7FFF00
7FFF00
01E000
03E000
03F000
0FF800
7F7F00
3C1F00
ENDCHAR
STARTCHAR AC89
ENCODING 12369
SWIDTH 2400 0
DWIDTH 24 0
BBX 18 17 0 -2
BITMAP
0003C0
7FE3C0
7FE3C0
01E3C0
01FFC0
03DFC0
0F83C0
FF03C0
7803C0
000000
3FFFC0
3FFFC0
3C0000
3FFFC0
3FFFC0
3FFFC0
1FFFC0
ENDCHAR
STARTCHAR AC8A
ENCODING 12370
SWIDTH 2400 0
DWIDTH 24 0
BBX 17 17 1 -2
BITMAP
000780
FFC780
FFC780
03C780
03FF80
07BF80
1F0780
FE0780
F00780
000000
7FFF80
7FFF80
1E1E00
1E1E00
1E1E00
7FFF80
7FFF80
ENDCHAR
STARTCHAR AC8B
ENCODING 12371
SWIDTH 2400 0
DWIDTH 24 0
BBX 17 18 1 -3
BITMAP
000780
FFC780
FFC780
03C780
03FF80
07BF80
1F0780
FE0780
F00780
01E000
01E000
7F3F80
7E1F80
0E1C00
0F1C00
0F3C00
0FFC00
03F000
ENDCHAR
STARTCHAR AC8C
ENCODING 12372
SWIDTH 2400 0
DWIDTH 24 0
BBX 18 18 0 -3
BITMAP
007BC0
7FFBC0
7FFBC0
07FBC0
07FBC0
07FBC0
07FBC0
0F7BC0
0E7BC0
1E7BC0
3E7BC0
FC7BC0
787BC0
707BC0
007BC0
007BC0
007BC0
0003C0
ENDCHAR
STARTCHAR AC90
ENCODING 12373
SWIDTH 2400 0
DWIDTH 24 0
BBX 18 17 0 -2
BITMAP
007BC0
FF7BC0
FF7BC0
0FFBC0
0FFBC0
1FFBC0
1E7BC0
7C7BC0
F87BC0
F07BC0
407BC0
007BC0
3C0000
3C0000
3C0000
3FFFC0
1FFFC0
ENDCHAR
STARTCHAR AC94
ENCODING 12374
SWIDTH 2400 0
DWIDTH 24 0
BBX 18 17 0 -2
BITMAP
007BC0
FF7BC0
FF7BC0
0FFBC0
1FFBC0
3FFBC0
FC7BC0
F87BC0
607BC0
000000
3FFF80
3FFF80
3FFF80
3FFF80
3C0000
3FFFC0
1FFFC0
ENDCHAR
STARTCHAR AC9C
ENCODING 12375
SWIDTH 2400 0
DWIDTH 24 0
BBX 18 17 0 -2
BITMAP
007BC0
FF7BC0
FF7BC0
0FFBC0
0FFBC0
1FFBC0
3E7BC0
FC7BC0
F87BC0
607BC0
000000
3FFFC0
3FFFC0
3C03C0
3C03C0
3FFFC0
1FFFC0
ENDCHAR
STARTCHAR AC9D
ENCODING 12376
SWIDTH 2400 0
DWIDTH 24 0
BBX 18 17 0 -2
BITMAP
007BC0
FF7BC0
FF7BC0
0FFBC0
0FFBC0
1FFBC0
7E7BC0
FC7BC0
707BC0
0003C0
3C03C0
3C03C0
3FFFC0
3FFFC0
3C03C0
3FFFC0
1FFFC0
ENDCHAR
STARTCHAR AC9F
ENCODING 12377
SWIDTH 2400 0
DWIDTH 24 0
BBX 18 18 0 -3
BITMAP
007BC0
FF7BC0
FF7BC0
0FFBC0
0FFBC0
1FFBC0
3E7BC0
7C7BC0
FC7BC0
F0FBC0
61F800
01FC00
07FE00
7FFFC0
3F9FC0
3F0F80
1C0780
100180
ENDCHAR
STARTCHAR ACA0
ENCODING 12378
SWIDTH 2400 0
DWIDTH 24 0
BBX 18 18 0 -3
BITMAP
007BC0
FF7BC0
FF7BC0
0FFBC0
0FFBC0
1FFBC0
3E7BC0
FC7BC0
F07BC0
400000
071E00
079E00
0F9F00
1FFF00
3FFF80
7DFBC0
79F1C0
20A080
ENDCHAR
STARTCHAR ACA1
ENCODING 12379
SWIDTH 2400 0
DWIDTH 24 0
BBX 18 18 0 -3
BITMAP
007BC0
FF7BC0
FF7BC0
0FFBC0
0FFBC0
0FFBC0
1E7BC0
3C7BC0
FC7BC0
F9FFC0
63FF00
07FF00
078F80
070780
070780
078F00
03FE00
00FC00
ENDCHAR
STARTCHAR ACA8
ENCODING 12380
SWIDTH 2400 0
DWIDTH 24 0
BBX 18 18 0 -3
BITMAP
0003C0
7FC3C0
7FC3C0
03C3C0
03DFC0
03DFC0
03C3C0
07C3C0
079FC0
0F9FC0
1F03C0
FE03C0
7C03C0
7003C0
0003C0
0003C0
0003C0
0003C0
ENDCHAR
STARTCHAR ACA9
ENCODING 12381
SWIDTH 2400 0
DWIDTH 24 0
BBX 18 18 0 -3
BITMAP
0003C0
FFC3C0
FFDFC0
03DFC0
03C3C0
03C3C0
079FC0
1F1FC0
7E03C0
7803C0
000000
3FFFC0
3FFFC0
0003C0
0003C0
0003C0
0003C0
0003C0
ENDCHAR
STARTCHAR ACAA
ENCODING 12382
SWIDTH 2400 0
DWIDTH 24 0
BBX 18 18 0 -3
BITMAP
0003C0
FFC3C0
FFDFC0
03DFC0
03C3C0
03C3C0
079FC0
1F1FC0
7E03C0
7803C0
000000
7FBFC0
7FBFC0
0783C0
0783C0
0783C0
0783C0
078000
ENDCHAR
STARTCHAR ACAC
ENCODING 12383
SWIDTH 2400 0
DWIDTH 24 0
BBX 18 17 0 -2
BITMAP
0003C0
FFC3C0
FFDFC0
03DFC0
03C3C0
0783C0
0783C0
1F1FC0
FE1FC0
7003C0
0003C0
0003C0
3C0000
3C0000
3C0000
3FFFC0
1FFFC0
ENDCHAR
STARTCHAR ACAF
ENCODING 12384
SWIDTH 2400 0
DWIDTH 24 0
BBX 18 17 0 -2
BITMAP
0003C0
FFC3C0
FFDFC0
03DFC0
03C3C0
03C3C0
079FC0
1F1FC0
7E03C0
7803C0
000000
3FFFC0
3FFFC0
3C0000
3C0000
3FFFC0
1FFFC0
ENDCHAR
STARTCHAR ACB0
ENCODING 12385
SWIDTH 2400 0
DWIDTH 24 0
BBX 18 17 0 -2
BITMAP
0003C0
FFC3C0
FFDFC0
03DFC0
03C3C0
0783C0
1F9FC0
FE1FC0
7803C0
000000
3FFFC0
3FFFC0
3FFFC0
3FFFC0
3C0000
3FFFC0
1FFFC0
ENDCHAR
STARTCHAR ACB8
ENCODING 12386
SWIDTH 2400 0
DWIDTH 24 0
BBX 18 17 0 -2
BITMAP
0003C0
FFC3C0
FFDFC0
03DFC0
03C3C0
03C3C0
079FC0
1F1FC0
7E03C0
7803C0
000000
3FFF80
3FFF80
3C0780
3C0780
3FFF80
1FFF80
ENDCHAR
STARTCHAR ACB9
ENCODING 12387
SWIDTH 2400 0
DWIDTH 24 0
BBX 18 17 0 -2
BITMAP
0003C0
FFC3C0
FFDFC0
03DFC0
03C3C0
03C3C0
079FC0
1F1FC0
FE03C0
7803C0
3C0780
3C0780
3FFF80
3FFF80
3C0780
3FFF80
1FFF80
ENDCHAR
STARTCHAR ACBB
ENCODING 12388
SWIDTH 2400 0
DWIDTH 24 0
BBX 18 18 0 -3
BITMAP
0003C0
FFC3C0
FFDFC0
03DFC0
03C3C0
03C3C0
079FC0
0F9FC0
1F03C0
FC03C0
70F000
01F000
07F800
7FFC00
3FFF00
3F9FC0
1E0780
180180
ENDCHAR
STARTCHAR ACBC
ENCODING 12389
SWIDTH 2400 0
DWIDTH 24 0
BBX 19 18 0 -3
BITMAP
0003C0
FFC3C0
FFDFC0
03DFC0
03C3C0
07C3C0
079FC0
1F1FC0
FE03C0
7803C0
000000
071E00
079E00
0F9F00
1FFF80
7DFBE0
79F1C0
20A080
ENDCHAR
STARTCHAR ACBD
ENCODING 12390
SWIDTH 2400 0
DWIDTH 24 0
BBX 17 18 0 -3
BITMAP
000780
FFC780
FFFF80
03FF80
03C780
03C780
07BF80
0FBF80
1F0780
FCFF80
73FF00
078F00
070780
070780
070780
078F00
03FE00
00F800
ENDCHAR
STARTCHAR ACC1
ENCODING 12391
SWIDTH 2400 0
DWIDTH 24 0
BBX 18 17 0 -2
BITMAP
0003C0
FFC3C0
FFDFC0
03DFC0
03C3C0
0783C0
0F9FC0
FE1FC0
7803C0
0003C0
3FFF80
3FFF80
3C0000
3FFF80
3FFF80
3FFF80
1FFF80
ENDCHAR
STARTCHAR ACC4
ENCODING 12392
SWIDTH 2400 0
DWIDTH 24 0
BBX 18 18 0 -3
BITMAP
007BC0
FF7BC0
FF7BC0
0FFBC0
0FFBC0
0F7BC0
1E7BC0
1E7BC0
1FFBC0
3DFBC0
787BC0
F87BC0
707BC0
407BC0
007BC0
007BC0
007BC0
0003C0
ENDCHAR
STARTCHAR ACC8
ENCODING 12393
SWIDTH 2400 0
DWIDTH 24 0
BBX 18 17 0 -2
BITMAP
007BC0
FF7BC0
FFFBC0
0FFBC0
0F7BC0
1E7BC0
3FFBC0
7DFBC0
F87BC0
707BC0
007BC0
0003C0
3C0000
3C0000
3C0000
3FFFC0
1FFFC0
ENDCHAR
STARTCHAR ACCC
ENCODING 12394
SWIDTH 2400 0
DWIDTH 24 0
BBX 18 17 0 -2
BITMAP
007BC0
7F7BC0
7FFBC0
07FBC0
0F7BC0
1E7BC0
FFFBC0
79FBC0
307BC0
007800
3FFFC0
3FFFC0
3FFFC0
3FFFC0
3C0000
3FFFC0
1FFFC0
ENDCHAR
STARTCHAR ACD5
ENCODING 12395
SWIDTH 2400 0
DWIDTH 24 0
BBX 17 17 1 -2
BITMAP
00F780
FEF780
FFF780
0FF780
1EF780
3CF780
FFF780
FBF780
E0F780
00F780
780780
780780
7FFF80
7FFF80
780780
7FFF80
3FFF80
ENDCHAR
STARTCHAR ACD7
ENCODING 12396
SWIDTH 2400 0
DWIDTH 24 0
BBX 18 18 0 -3
BITMAP
007BC0
7F7BC0
7FFBC0
07FBC0
0F7BC0
1E7BC0
3FFBC0
FDFBC0
787BC0
200000
00F000
00F000
01F800
03FC00
7FFF80
3F9FC0
3E0780
180180
ENDCHAR
STARTCHAR ACE0
ENCODING 12397
SWIDTH 2400 0
DWIDTH 24 0
BBX 18 15 2 -1
BITMAP
7FFF00
7FFF00
000F00
000F00
000F00
000F00
000F00
000F00
078F00
078F00
078F00
078F00
078F00
FFFFC0
FFFFC0
ENDCHAR
STARTCHAR ACE1
ENCODING 12398
SWIDTH 2400 0
DWIDTH 24 0
BBX 19 17 1 -3
BITMAP
7FFF80
7FFF80
000780
000780
03C780
03C780
03C780
FFFFE0
FFFFE0
000000
3FFF80
3FFF80
000780
000780
000780
000780
000780
ENDCHAR
STARTCHAR ACE4
ENCODING 12399
SWIDTH 2400 0
DWIDTH 24 0
BBX 18 16 1 -2
BITMAP
7FFF00
7FFF00
000F00
000F00
03CF00
03CF00
03CF00
FFFFC0
FFFFC0
000000
000000
780000
780000
780000
7FFF80
3FFF80
ENDCHAR
STARTCHAR ACE7
ENCODING 12400
SWIDTH 2400 0
DWIDTH 24 0
BBX 19 16 1 -2
BITMAP
7FFF80
7FFF80
000780
000780
03C780
03C780
03C780
FFFFE0
FFFFE0
000000
7FFF00
7FFF00
780000
780000
7FFF80
3FFF80
ENDCHAR
STARTCHAR ACE8
ENCODING 12401
SWIDTH 2400 0
DWIDTH 24 0
BBX 18 16 1 -2
BITMAP
7FFF80
7FFF80
000780
000780
03C780
03C780
FFFFC0
FFFFC0
000000
7FFF80
7FFF80
000780
7FFF80
7FFF80
7FFF80
3FFF80
ENDCHAR
STARTCHAR ACEA
ENCODING 12402
SWIDTH 2400 0
DWIDTH 24 0
BBX 18 16 1 -2
BITMAP
7FFF80
7FFF80
000780
000780
03C780
03C780
FFFFC0
FFFFC0
007F80
7F7F80
7F7F80
077F80
7F7F80
7F7F80
7FFF80
3FFF80
ENDCHAR
STARTCHAR ACEC
ENCODING 12403
SWIDTH 2400 0
DWIDTH 24 0
BBX 19 17 1 -3
BITMAP
3FFF80
3FFF80
000780
000780
03C780
03C780
FFFFE0
FFFFE0
000000
7F0000
7F0F00
070F00
7F1F80
7F3FC0
7F7FE0
7F39C0
003040
ENDCHAR
STARTCHAR ACEF
ENCODING 12404
SWIDTH 2400 0
DWIDTH 24 0
BBX 18 17 1 -3
BITMAP
7FFF80
7FFF80
000780
000780
03C780
03C780
FFFFC0
FFFFC0
000000
7F1C00
7FFF80
07FF80
7F7300
7F7380
7F7780
7F7F00
003E00
ENDCHAR
STARTCHAR ACF0
ENCODING 12405
SWIDTH 2400 0
DWIDTH 24 0
BBX 19 16 1 -2
BITMAP
7FFF80
7FFF80
000780
000780
03C780
03C780
03C780
FFFFE0
FFFFE0
000000
7FFF80
7FFF80
780780
780780
7FFF80
3FFF80
ENDCHAR
STARTCHAR ACF1
ENCODING 12406
SWIDTH 2400 0
DWIDTH 24 0
BBX 19 16 1 -2
BITMAP
7FFF80
7FFF80
000780
03C780
03C780
03C780
FFFFE0
FFFFE0
000000
780780
780780
7FFF80
7FFF80
780780
7FFF80
3FFF80
ENDCHAR
STARTCHAR ACF3
ENCODING 12407
SWIDTH 2400 0
DWIDTH 24 0
BBX 19 17 1 -3
BITMAP
7FFF80
7FFF80
000780
000780
03C780
03C780
03C780
FFFFE0
FFFFE0
000000
01E000
03F000
07F800
1FFC00
7F3F80
7C0F00
300300
ENDCHAR
STARTCHAR ACF5
ENCODING 12408
SWIDTH 2400 0
DWIDTH 24 0
BBX 19 17 1 -3
BITMAP
7FFF80
7FFF80
000780
000780
03C780
03C780
03C780
FFFFE0
FFFFE0
07F800
0FFC00
1E3E00
1C1E00
1C1E00
0E3C00
07FC00
03F000
ENDCHAR
STARTCHAR ACF6
ENCODING 12409
SWIDTH 2400 0
DWIDTH 24 0
BBX 19 16 1 -2
BITMAP
7FFF80
7FFF80
000780
000780
03C780
03C780
03C780
FFFFE0
FFFFE0
000000
3FFF80
3FFF80
01E000
03F800
3FBF80
3E0F80
ENDCHAR
STARTCHAR ACFC
ENCODING 12410
SWIDTH 2400 0
DWIDTH 24 0
BBX 18 18 1 -3
BITMAP
000F00
FFEF00
FFEF00
01EF00
01EF00
01EF00
1FEFC0
1FEFC0
1FEF00
1FEF00
1FEF00
7FFF00
7FFF00
000F00
000F00
000F00
000F00
000F00
ENDCHAR
STARTCHAR ACFD
ENCODING 12411
SWIDTH 2400 0
DWIDTH 24 0
BBX 18 18 1 -3
BITMAP
000F00
FFEF00
FFEF00
01EF00
01EFC0
1FEFC0
1FEF00
1FEF00
7FFF00
7FFF00
000F00
3FFF80
3FFF80
000780
000780
000780
000780
000780
ENDCHAR
STARTCHAR AD00
ENCODING 12412
SWIDTH 2400 0
DWIDTH 24 0
BBX 18 17 1 -2
BITMAP
000F00
FFEF00
FFEF00
01EF00
01EFC0
1FEFC0
1FEF00
1FEF00
7FFF00
7FFF00
000F00
000000
3C0000
3C0000
3C0000
3FFF80
1FFF80
ENDCHAR
STARTCHAR AD04
ENCODING 12413
SWIDTH 2400 0
DWIDTH 24 0
BBX 17 17 2 -2
BITMAP
001E00
7FDE00
7FDE00
01DE00
01DF80
3DDF80
3DDE00
FFFE00
FFFE00
001E00
7FFE00
7FFE00
000E00
7FFE00
7FFE00
7FFF00
3FFF00
ENDCHAR
STARTCHAR AD06
ENCODING 12414
SWIDTH 2400 0
DWIDTH 24 0
BBX 17 18 2 -3
BITMAP
001E00
7FDE00
7FDE00
01DE00
01DF80
3DDF80
3DDE00
FFFE00
FFFE00
001E00
FEFF00
FEFF00
0EFF00
FEFF00
FEFF00
FFFF00
FFFF00
00FF00
ENDCHAR
STARTCHAR AD0C
ENCODING 12577
SWIDTH 2400 0
DWIDTH 24 0
BBX 19 17 1 -2
BITMAP
000780
7FF780
7FF780
00F780
00F7E0
1EF7E0
1EF780
1EF780
FFFF80
FFFF80
000000
3FFF80
3FFF80
3C0780
3C0780
3FFF80
1FFF80
ENDCHAR
STARTCHAR AD0D
ENCODING 12578
SWIDTH 2400 0
DWIDTH 24 0
BBX 19 17 1 -2
BITMAP
000780
7FF780
7FF780
00F780
1EF7E0
1EF7E0
1EF780
FFFF80
FFFF80
000780
000000
3C0780
3FFF80
3FFF80
3C0780
3FFF80
1FFF80
ENDCHAR
STARTCHAR AD0F
ENCODING 12579
SWIDTH 2400 0
DWIDTH 24 0
BBX 19 18 1 -3
BITMAP
000780
7FF780
7FF780
00F780
00F7E0
1EF7E0
1EF780
1EF780
FFFF80
FFFF80
000780
00F780
01FF80
03FC00
0FFE00
3F9FC0
3E0780
180180
ENDCHAR
STARTCHAR AD11
ENCODING 12580
SWIDTH 2400 0
DWIDTH 24 0
BBX 19 18 1 -3
BITMAP
000780
7FF780
7FF780
00F780
00F7E0
1EF7E0
1EF780
1EF780
FFFF80
FFFF80
03FE00
07FE00
0F1F00
0E0F00
0E0F00
071E00
03FE00
01F800
ENDCHAR
STARTCHAR AD18
ENCODING 12581
SWIDTH 2400 0
DWIDTH 24 0
BBX 18 18 0 -3
BITMAP
003FC0
7FFFC0
7FFFC0
03FFC0
03FFC0
03FFC0
3FFFC0
3FFFC0
3FFFC0
3FFFC0
3FFFC0
FFFFC0
FFFFC0
003FC0
003FC0
003FC0
003FC0
003FC0
ENDCHAR
STARTCHAR AD1C
ENCODING 12582
SWIDTH 2400 0
DWIDTH 24 0
BBX 18 17 0 -2
BITMAP
003FC0
7FFFC0
7FFFC0
03FFC0
03FFC0
3FFFC0
3FFFC0
3FFFC0
FFFFC0
FFFFC0
003FC0
003FC0
3C0000
3C0000
3C0000
3FFFC0
1FFFC0
ENDCHAR
STARTCHAR AD20
ENCODING 12583
SWIDTH 2400 0
DWIDTH 24 0
BBX 18 17 0 -2
BITMAP
003FC0
7FFFC0
7FFFC0
03FFC0
3FFFC0
3FFFC0
3FFFC0
FFFFC0
FFFFC0
000000
3FFF80
3FFF80
000380
3FFF80
3FFF80
3FFFC0
1FFFC0
ENDCHAR
STARTCHAR AD29
ENCODING 12584
SWIDTH 2400 0
DWIDTH 24 0
BBX 18 17 0 -2
BITMAP
003FC0
7FFFC0
7FFFC0
03FFC0
3FFFC0
3FFFC0
3FFFC0
FFFFC0
FFFFC0
003FC0
000000
3C0780
3FFF80
3FFF80
3C0780
3FFF80
1FFF80
ENDCHAR
STARTCHAR AD2C
ENCODING 12585
SWIDTH 2400 0
DWIDTH 24 0
BBX 19 18 0 -3
BITMAP
003BC0
003BC0
003BC0
7FFBC0
7FFFC0
03FFC0
3DBDC0
FFFDC0
FFFDC0
001DC0
000000
079E00
079E00
0F9F00
1FFF80
7DFBE0
79F1C0
20A080
ENDCHAR
STARTCHAR AD2D
ENCODING 12586
SWIDTH 2400 0
DWIDTH 24 0
BBX 18 18 0 -3
BITMAP
003FC0
7FFFC0
7FFFC0
03FFC0
03FFC0
3FFFC0
3FFFC0
3C3FC0
FFFFC0
FFFFC0
01FF00
03FF00
078F80
070780
070780
078F00
03FF00
00FC00
ENDCHAR
STARTCHAR AD34
ENCODING 12587
SWIDTH 2400 0
DWIDTH 24 0
BBX 18 18 0 -3
BITMAP
0003C0
7FF3C0
7FF3C0
00F3C0
00F3C0
00F3C0
1EF3C0
1EF3C0
1EF3C0
1EF3C0
1EF3C0
FFFFC0
FFFFC0
0003C0
0003C0
0003C0
0003C0
0003C0
ENDCHAR
STARTCHAR AD35
ENCODING 12588
SWIDTH 2400 0
DWIDTH 24 0
BBX 18 18 0 -3
BITMAP
0003C0
7FF3C0
7FF3C0
00F3C0
00F3C0
1EF3C0
1EF3C0
1EF3C0
FFFFC0
FFFFC0
0003C0
1FFFC0
1FFFC0
0003C0
0003C0
0003C0
0003C0
0003C0
ENDCHAR
STARTCHAR AD38
ENCODING 12589
SWIDTH 2400 0
DWIDTH 24 0
BBX 17 17 1 -2
BITMAP
000780
FFE780
FFE780
01E780
01E780
1FE780
1FE780
1FE780
FFFF80
FFFF80
000780
000780
780000
780000
780000
7FFF80
3FFF80
ENDCHAR
STARTCHAR AD3C
ENCODING 12590
SWIDTH 2400 0
DWIDTH 24 0
BBX 17 17 1 -2
BITMAP
000780
7FF780
7FF780
00F780
00F780
1EF780
1EE780
FFFF80
FFFF80
000000
7FFF00
7FFF00
000700
7FFF00
7FFF00
7FFF80
3FFF80
ENDCHAR
STARTCHAR AD44
ENCODING 12591
SWIDTH 2400 0
DWIDTH 24 0
BBX 17 17 1 -2
BITMAP
000780
FFE780
FFE780
01E780
1FE780
1FE780
1FE780
FFFF80
FFFF80
000780
000000
7FFF80
7FFF80
780780
780780
7FFF80
3FFF80
ENDCHAR
STARTCHAR AD45
ENCODING 12592
SWIDTH 2400 0
DWIDTH 24 0
BBX 16 17 1 -2
BITMAP
000F
7FEF
7FEF
00EF
00EF
1EEF
1EEF
FFFF
FFFF
0000
0000
780F
7FFF
7FFF
780F
7FFF
3FFF
ENDCHAR
STARTCHAR AD47
ENCODING 12593
SWIDTH 2400 0
DWIDTH 24 0
BBX 17 18 1 -3
BITMAP
000780
000780
000780
7FF780
7FF780
00F780
1EE780
FFFF80
FFFF80
01E780
03F780
07F800
1FFE00
7F3F80
7E1F80
7C0F00
380700
200300
ENDCHAR
STARTCHAR AD49
ENCODING 12594
SWIDTH 2400 0
DWIDTH 24 0
BBX 17 18 1 -3
BITMAP
000780
FFE780
FFE780
01E780
1FE780
1FE780
1FE780
FFFF80
FFFF80
03FF80
07FC00
07FE00
0F1F00
0E0F00
0E0F00
071E00
03FE00
01F800
ENDCHAR
STARTCHAR AD50
ENCODING 12595
SWIDTH 2400 0
DWIDTH 24 0
BBX 19 15 1 -1
BITMAP
3FFF80
3FFF80
000780
000780
000780
000780
1EF780
1EF780
1EF780
1EF780
1EF780
1EF780
1EF780
FFFFE0
FFFFE0
ENDCHAR
STARTCHAR AD54
ENCODING 12596
SWIDTH 2400 0
DWIDTH 24 0
BBX 18 16 1 -2
BITMAP
7FFF80
7FFF80
000780
000780
000780
1EF780
1EF780
1EF780
FFFFC0
FFFFC0
000000
780000
780000
780000
7FFF80
3FFF80
ENDCHAR
STARTCHAR AD58
ENCODING 12597
SWIDTH 2400 0
DWIDTH 24 0
BBX 18 16 0 -2
BITMAP
7FFF80
7FFF80
000780
0F7F80
0F7F80
0F7F80
FFFFC0
FFFFC0
000000
3FFF80
3FFF80
000380
3FFF80
3FFF80
3FFFC0
3FFFC0
ENDCHAR
STARTCHAR AD61
ENCODING 12598
SWIDTH 2400 0
DWIDTH 24 0
BBX 18 16 0 -2
BITMAP
7FFF80
7FFF80
000780
000780
0F7F80
0F7F80
0F7F80
FFFFC0
FFFFC0
000000
3C03C0
3FFFC0
3FFFC0
3C03C0
3FFFC0
1FFFC0
ENDCHAR
STARTCHAR AD63
ENCODING 12599
SWIDTH 2400 0
DWIDTH 24 0
BBX 19 17 0 -3
BITMAP
3FFFC0
3FFFC0
0003C0
0003C0
0F7BC0
0F7BC0
0F7BC0
FFFFE0
FFFFE0
000000
00F000
00F000
01F800
07FE00
3F9FC0
3F0F80
180180
ENDCHAR
STARTCHAR AD6C
ENCODING 12600
SWIDTH 2400 0
DWIDTH 24 0
BBX 18 17 1 -3
BITMAP
7FFF00
7FFF00
000F00
000F00
000F00
000F00
000F00
000F00
FFFFC0
FFFFC0
01E000
01E000
01E000
01E000
01E000
01E000
01E000
ENDCHAR
STARTCHAR AD6D
ENCODING 12601
SWIDTH 2400 0
DWIDTH 24 0
BBX 18 17 1 -3
BITMAP
3FFF80
3FFF80
000780
000780
000780
000700
FFFFC0
FFFFC0
01E000
01E000
7FFF80
7FFF80
000780
000780
000780
000780
000780
ENDCHAR
STARTCHAR AD70
ENCODING 12602
SWIDTH 2400 0
DWIDTH 24 0
BBX 19 16 1 -2
BITMAP
7FFF80
7FFF80
000780
000780
000780
000780
000780
FFFFE0
FFFFE0
01E000
01E000
79E000
780000
780000
7FFF80
3FFF80
ENDCHAR
STARTCHAR AD73
ENCODING 12603
SWIDTH 2400 0
DWIDTH 24 0
BBX 18 16 1 -2
BITMAP
7FFF80
7FFF80
000780
000780
000780
000700
FFFFC0
FFFFC0
01E000
01E000
7FFF80
7FFF80
780000
780000
7FFF80
3FFF80
ENDCHAR
STARTCHAR AD74
ENCODING 12604
SWIDTH 2400 0
DWIDTH 24 0
BBX 18 16 1 -2
BITMAP
7FFF00
7FFF00
000700
000700
000700
000F00
FFFFC0
FFFFC0
01E000
7FFF00
7FFF00
000700
7FFF00
7FFF00
7FFF80
3FFF80
ENDCHAR
STARTCHAR AD75
ENCODING 12605
SWIDTH 2400 0
DWIDTH 24 0
BBX 17 16 2 -2
BITMAP
7FFF00
7FFF00
000F00
000F00
000F00
FFFF80
FFFF80
000000
000000
FFFF00
FFFF00
070F00
FF0F00
FF0F00
FF8F00
7F8F00
ENDCHAR
STARTCHAR AD76
ENCODING 12606
SWIDTH 2400 0
DWIDTH 24 0
BBX 18 16 1 -2
BITMAP
7FFF80
7FFF80
000780
000780
000700
FFFFC0
FFFFC0
000000
007F80
7F7F80
7F7F80
077F80
7F7F80
7F7F80
7FFF80
7FFF80
ENDCHAR
STARTCHAR AD7B
ENCODING 12607
SWIDTH 2400 0
DWIDTH 24 0
BBX 18 17 1 -3
BITMAP
7FFF80
7FFF80
000780
000780
000780
000700
000700
FFFFC0
FFFFC0
7FFFC0
7FFFC0
077F80
7F7380
7F73C0
7F7B80
7F7F80
001E00
ENDCHAR
STARTCHAR AD7C
ENCODING 12608
SWIDTH 2400 0
DWIDTH 24 0
BBX 19 16 1 -2
BITMAP
3FFF80
3FFF80
000780
000780
000780
000780
FFFFE0
FFFFE0
01E000
01E000
3FFF80
3FFF80
3C0780
3C0780
3FFF80
3FFF80
ENDCHAR
STARTCHAR AD7D
ENCODING 12609
SWIDTH 2400 0
DWIDTH 24 0
BBX 19 16 1 -2
BITMAP
3FFF80
3FFF80
000780
000780
000780
000780
FFFFE0
FFFFE0
01E000
01E000
780780
7FFF80
7FFF80
780780
7FFF80
3FFF80
ENDCHAR
STARTCHAR AD7F
ENCODING 12610
SWIDTH 2400 0
DWIDTH 24 0
BBX 19 17 1 -3
BITMAP
3FFF80
3FFF80
000780
000780
FFFFE0
FFFFE0
01E000
000000
000000
000000
01E000
01E000
03F000
0FFC00
7F3F80
7C1F00
300300
ENDCHAR
STARTCHAR AD81
ENCODING 12611
SWIDTH 2400 0
DWIDTH 24 0
BBX 19 17 1 -3
BITMAP
3FFF80
3FFF80
000780
000780
000780
000780
FFFFE0
FFFFE0
01E000
03F000
0FF800
0FFC00
1E3C00
1C1C00
0E3C00
0FF800
03F000
ENDCHAR
STARTCHAR AD82
ENCODING 12612
SWIDTH 2400 0
DWIDTH 24 0
BBX 19 17 1 -3
BITMAP
3FFF80
3FFF80
000780
000780
000780
000780
000780
FFFFE0
FFFFE0
000000
7FFF00
7FFF00
01E000
03E000
0FFC00
7F7F00
380F00
ENDCHAR
STARTCHAR AD88
ENCODING 12613
SWIDTH 2400 0
DWIDTH 24 0
BBX 17 18 1 -3
BITMAP
000780
FFE780
FFE780
01E780
01E780
01E780
01E780
01E780
01E780
FFFF80
FFFF80
0F0780
0F0780
0F7F80
0F7F80
0F0780
0F0780
000780
ENDCHAR
STARTCHAR AD89
ENCODING 12614
SWIDTH 2400 0
DWIDTH 24 0
BBX 18 18 0 -3
BITMAP
0003C0
7FE3C0
7FE3C0
01EFC0
01EFC0
01E3C0
01E3C0
FFFBC0
FFFBC0
0783C0
078000
3FFFC0
3FFFC0
0003C0
0003C0
0003C0
0003C0
0003C0
ENDCHAR
STARTCHAR AD8C
ENCODING 12615
SWIDTH 2400 0
DWIDTH 24 0
BBX 18 17 0 -2
BITMAP
0003C0
7FE3C0
7FE3C0
01E3C0
01EFC0
01EFC0
01E3C0
01E3C0
FFFBC0
FFFBC0
03C3C0
03C3C0
3FC3C0
3C0000
3C0000
3FFFC0
1FFFC0
ENDCHAR
STARTCHAR AD90
ENCODING 12616
SWIDTH 2400 0
DWIDTH 24 0
BBX 17 17 1 -2
BITMAP
000780
FFC780
FFC780
01DF80
03DF80
03C780
FFF780
FFF780
000780
000000
3FFF80
3FFF80
000780
3FFF80
3FFF80
3FFF80
3FFF80
ENDCHAR
STARTCHAR AD9C
ENCODING 12617
SWIDTH 2400 0
DWIDTH 24 0
BBX 18 18 1 -3
BITMAP
000780
FFC780
FFC780
01DF80
01DF80
01C780
03C780
FFFF80
FFFF80
0F0780
000000
0F3C00
0F3C00
1F3E00
3FFF00
FBF7C0
F3E380
414100
ENDCHAR
STARTCHAR AD9D
ENCODING 12618
SWIDTH 2400 0
DWIDTH 24 0
BBX 17 18 1 -3
BITMAP
000780
7FE780
7FE780
01FF80
01FF80
01E780
01E780
FFFF80
FFFF80
0F0780
0FFF80
03FE00
079F00
070F00
070F00
071F00
03FE00
00F800
ENDCHAR
STARTCHAR ADA4
ENCODING 12619
SWIDTH 2400 0
DWIDTH 24 0
BBX 18 18 0 -3
BITMAP
003FC0
7FBFC0
7FBFC0
07BFC0
07BFC0
07BFC0
07BFC0
07BFC0
07BFC0
FFFFC0
FFFFC0
1E3FC0
1EFFC0
1EFFC0
1E3FC0
1E3FC0
1E3FC0
003FC0
ENDCHAR
STARTCHAR ADB7
ENCODING 12620
SWIDTH 2400 0
DWIDTH 24 0
BBX 17 18 1 -3
BITMAP
007F80
7FFF80
7FFF80
07FF80
07FF80
07FF80
FFFF80
FFFF80
1FFF80
1FFF80
1E7F80
01E000
03F800
07FF80
FF3F00
7E1F00
780F00
200200
ENDCHAR
STARTCHAR ADC0
ENCODING 12621
SWIDTH 2400 0
DWIDTH 24 0
BBX 16 18 1 -3
BITMAP
000F
FFEF
FFEF
01EF
01EF
01EF
01EF
01EF
01EF
FFFF
FFFF
0F0F
0F0F
0F0F
0F0F
0F0F
0F0F
000F
ENDCHAR
STARTCHAR ADC1
ENCODING 12622
SWIDTH 2400 0
DWIDTH 24 0
BBX 16 18 1 -3
BITMAP
000F
FFCF
FFCF
01CF
01CF
01CF
03CF
FFFF
FFFF
0F0F
0F0F
FFFF
FFFF
000F
000F
000F
000F
000F
ENDCHAR
STARTCHAR ADC4
ENCODING 12623
SWIDTH 2400 0
DWIDTH 24 0
BBX 18 17 0 -2
BITMAP
000780
7FE780
7FE780
01E780
01E780
01E780
01E780
FFFF80
FFFF80
078780
078780
000780
3C0000
3C0000
3C0000
3FFFC0
1FFFC0
ENDCHAR
STARTCHAR ADC8
ENCODING 12624
SWIDTH 2400 0
DWIDTH 24 0
BBX 18 17 0 -2
BITMAP
000780
7FE780
7FE780
01E780
01E780
01E780
01E780
01E780
FFFF80
FFFF80
3FFF80
3FFF80
000780
3FFF80
3FFF80
3FFFC0
3FFFC0
ENDCHAR
STARTCHAR ADD0
ENCODING 12625
SWIDTH 2400 0
DWIDTH 24 0
BBX 17 17 0 -2
BITMAP
000780
7FE780
7FE780
01E780
01E780
01E780
01E780
01E780
FFFF80
FFFF80
000000
3FFF80
3FFF80
3C0780
3C0780
3FFF80
1FFF80
ENDCHAR
STARTCHAR ADD1
ENCODING 12626
SWIDTH 2400 0
DWIDTH 24 0
BBX 17 17 0 -2
BITMAP
000780
7FE780
7FE780
01E780
01E780
01E780
01E780
01E780
FFFF80
FFFF80
000000
3C0780
3FFF80
3FFF80
3C0780
3FFF80
1FFF80
ENDCHAR
STARTCHAR ADD3
ENCODING 12627
SWIDTH 2400 0
DWIDTH 24 0
BBX 18 18 1 -3
BITMAP
000F00
FFCF00
FFCF00
01CF00
01CF00
01CF00
03CF00
FFFF00
FFFF00
0F0F00
0F0F00
00F000
01F800
03FC00
0FFE00
3F9FC0
3E0780
180180
ENDCHAR
STARTCHAR ADDC
ENCODING 12628
SWIDTH 2400 0
DWIDTH 24 0
BBX 18 17 1 -3
BITMAP
7FFF00
7FFF00
000F00
000F00
000F00
000F00
000F00
FFFFC0
FFFFC0
0F1E00
0F1E00
0F1E00
0F1E00
0F1E00
0F1E00
0F1E00
001E00
ENDCHAR
STARTCHAR ADE0
ENCODING 12629
SWIDTH 2400 0
DWIDTH 24 0
BBX 18 16 1 -2
BITMAP
7FFF00
7FFF00
000F00
000F00
000F00
000F00
000F00
FFFFC0
FFFFC0
079E00
079E00
7F9E00
780000
780000
7FFF80
3FFF80
ENDCHAR
STARTCHAR ADE4
ENCODING 12630
SWIDTH 2400 0
DWIDTH 24 0
BBX 18 16 1 -2
BITMAP
7FFF80
7FFF80
000700
000700
000700
FFFFC0
FFFFC0
1E1E00
7FFF00
7FFF00
000F00
7FFF00
7FFF00
780000
7FFF80
3FFF80
ENDCHAR
STARTCHAR ADF8
ENCODING 12631
SWIDTH 2400 0
DWIDTH 24 0
BBX 17 16 2 -2
BITMAP
7FFE00
7FFE00
001E00
001E00
001E00
001E00
001E00
001E00
001E00
001E00
001E00
001E00
001E00
001E00
FFFF80
FFFF80
ENDCHAR
STARTCHAR ADF9
ENCODING 12632
SWIDTH 2400 0
DWIDTH 24 0
BBX 18 17 1 -3
BITMAP
7FFF00
7FFF00
000F00
000F00
000F00
000F00
FFFFC0
FFFFC0
000000
000000
7FFF00
7FFF00
000F00
000F00
000F00
000F00
000F00
ENDCHAR
STARTCHAR ADFC
ENCODING 12633
SWIDTH 2400 0
DWIDTH 24 0
BBX 18 16 1 -2
BITMAP
7FFF00
7FFF00
000F00
000F00
000F00
000F00
000F00
FFFFC0
FFFFC0
000000
000000
780000
780000
780000
7FFF80
3FFF80
ENDCHAR
STARTCHAR ADFF
ENCODING 12634
SWIDTH 2400 0
DWIDTH 24 0
BBX 18 16 1 -2
BITMAP
7FFF00
7FFF00
000F00
000F00
000F00
000F00
FFFFC0
FFFFC0
000000
7FFF80
7FFF80
780000
780000
780000
7FFF80
3FFF80
ENDCHAR
STARTCHAR AE00
ENCODING 12635
SWIDTH 2400 0
DWIDTH 24 0
BBX 18 16 1 -2
BITMAP
7FFF00
7FFF00
000F00
000F00
000F00
000F00
FFFFC0
FFFFC0
000000
7FFF00
7FFF00
7FFF00
7FFF00
780000
7FFF80
3FFF80
ENDCHAR
STARTCHAR AE01
ENCODING 12636
SWIDTH 2400 0
DWIDTH 24 0
BBX 18 17 1 -3
BITMAP
7FFF00
7FFF00
000F00
000F00
000F00
000F00
FFFFC0
FFFFC0
000000
7FFF80
7FFF80
078780
7F8780
7F8780
7FC780
3FC780
000780
ENDCHAR
STARTCHAR AE08
ENCODING 12637
SWIDTH 2400 0
DWIDTH 24 0
BBX 18 16 1 -2
BITMAP
7FFF00
7FFF00
000F00
000F00
000F00
000F00
FFFFC0
FFFFC0
000000
000000
7FFF00
7FFF00
780F00
780F00
7FFF00
3FFF00
ENDCHAR
STARTCHAR AE09
ENCODING 12638
SWIDTH 2400 0
DWIDTH 24 0
BBX 18 16 1 -2
BITMAP
7FFF00
7FFF00
000F00
000F00
000F00
000F00
FFFFC0
FFFFC0
000000
780780
780780
7FFF80
7FFF80
780780
7FFF80
3FFF80
ENDCHAR
STARTCHAR AE0B
ENCODING 12639
SWIDTH 2400 0
DWIDTH 24 0
BBX 18 15 1 -3
BITMAP
7FFF00
7FFF00
000F00
000F00
FFFFC0
FFFFC0
000000
01E000
01E000
03F000
07F800
3FFE00
7F3F80
7C0F00
300300
ENDCHAR
STARTCHAR AE0D
ENCODING 12640
SWIDTH 2400 0
DWIDTH 24 0
BBX 18 17 1 -3
BITMAP
7FFF00
7FFF00
000F00
000F00
000F00
000F00
FFFFC0
FFFFC0
07FC00
0FFE00
0FFF00
1F1F00
1E0F00
1E0F00
0F1E00
07FC00
03F000
ENDCHAR
STARTCHAR AE14
ENCODING 12641
SWIDTH 2400 0
DWIDTH 24 0
BBX 18 18 0 -3
BITMAP
0003C0
7FF3C0
7FF3C0
00F3C0
00F3C0
00F3C0
00F3C0
00F3C0
00F3C0
00F3C0
00F3C0
FFFFC0
FFFFC0
0003C0
0003C0
0003C0
0003C0
0003C0
ENDCHAR
STARTCHAR AE30
ENCODING 12642
SWIDTH 2400 0
DWIDTH 24 0
BBX 17 18 1 -3
BITMAP
000780
FFC780
FFC780
03C780
03C780
03C780
03C780
03C780
03C780
078780
0F8780
3F0780
FC0780
F00780
000780
000780
000780
000780
ENDCHAR
STARTCHAR AE31
ENCODING 12643
SWIDTH 2400 0
DWIDTH 24 0
BBX 17 18 1 -3
BITMAP
000F00
FFCF00
FFCF00
03CF00
03CF00
03CF00
078F00
1F0F00
FE0F00
F80F00
000000
7FFF80
7FFF80
000780
000780
000780
000780
000780
ENDCHAR
STARTCHAR AE34
ENCODING 12644
SWIDTH 2400 0
DWIDTH 24 0
BBX 17 17 1 -2
BITMAP
000F00
FFCF00
FFCF00
03CF00
03CF00
03CF00
078F00
0F8F00
1F0F00
FC0F00
F00F00
000F00
780000
780000
780000
7FFF80
3FFF80
ENDCHAR
STARTCHAR AE37
ENCODING 12645
SWIDTH 2400 0
DWIDTH 24 0
BBX 17 17 1 -2
BITMAP
000F00
FFCF00
FFCF00
03CF00
03CF00
03CF00
078F00
1F0F00
FE0F00
F80F00
000000
7FFF80
7FFF80
780000
780000
7FFF80
3FFF80
ENDCHAR
STARTCHAR AE38
ENCODING 12646
SWIDTH 2400 0
DWIDTH 24 0
BBX 17 17 1 -2
BITMAP
000F00
FFCF00
FFCF00
03CF00
03CF00
07CF00
1F8F00
FE0F00
F80F00
000000
7FFF00
7FFF00
7FFF00
7FFF00
780000
7FFF80
3FFF80
ENDCHAR
STARTCHAR AE3A
ENCODING 12647
SWIDTH 2400 0
DWIDTH 24 0
BBX 17 17 1 -2
BITMAP
000F00
FFCF00
FFCF00
03CF00
03CF00
07CF00
1F8F00
FE0F00
F80F00
000000
7FFF80
7FFF80
7FF780
7FF780
70F780
7FFF80
7FFF80
ENDCHAR
STARTCHAR AE40
ENCODING 12648
SWIDTH 2400 0
DWIDTH 24 0
BBX 16 17 1 -2
BITMAP
000F
FFCF
FFCF
03CF
03CF
03CF
078F
1F0F
FE0F
F80F
0000
7FFF
7FFF
780F
780F
7FFF
3FFF
ENDCHAR
STARTCHAR AE41
ENCODING 12649
SWIDTH 2400 0
DWIDTH 24 0
BBX 16 17 1 -2
BITMAP
000F
FFCF
FFCF
03CF
03CF
03CF
078F
1F8F
FE0F
F80F
0000
780F
7FFF
7FFF
780F
7FFF
3FFF
ENDCHAR
STARTCHAR AE43
ENCODING 12650
SWIDTH 2400 0
DWIDTH 24 0
BBX 17 18 1 -3
BITMAP
000780
FFC780
FFC780
03C780
03C780
03C780
078780
1F0780
FFE780
F9E780
03F780
07F800
1FFE00
7F3F80
7E1F80
7C0F00
380700
200300
ENDCHAR
STARTCHAR AE45
ENCODING 12651
SWIDTH 2400 0
DWIDTH 24 0
BBX 16 18 1 -3
BITMAP
000F
FFCF
FFCF
03CF
03CF
03CF
078F
1F0F
FE0F
F9FF
07FE
0F1E
0E0F
0E0F
0E0F
0F1E
07FC
01F8
ENDCHAR
STARTCHAR AE46
ENCODING 12652
SWIDTH 2400 0
DWIDTH 24 0
BBX 17 18 1 -3
BITMAP
000780
FFC780
FFC780
03C780
03C780
07C780
0F8780
FF0780
F80780
000000
3FFF80
3FFF80
01E000
01E000
03F000
0FF800
3F3F80
3C0F00
ENDCHAR
STARTCHAR AE4A
ENCODING 12653
SWIDTH 2400 0
DWIDTH 24 0
BBX 17 17 1 -2
BITMAP
000F00
FFCF00
FFCF00
03CF00
03CF00
03CF00
078F00
1F8F00
FE0F00
F80F00
000000
7FFF80
7FFF80
1E1E00
1E1E00
7FFF80
7FFF80
ENDCHAR
STARTCHAR AE4C
ENCODING 12654
SWIDTH 2400 0
DWIDTH 24 0
BBX 19 18 1 -3
BITMAP
000780
FFF780
FFF780
3CF780
3CF780
3CF780
3CF7E0
3CF7E0
3CF780
79E780
F9E780
F3C780
E7C780
438780
000780
000780
000780
000780
ENDCHAR
STARTCHAR AE4D
ENCODING 12655
SWIDTH 2400 0
DWIDTH 24 0
BBX 19 18 1 -3
BITMAP
000780
7FF780
7FF780
3CF780
3CF7E0
3CF7E0
79E780
FBE780
73C780
618780
000000
3FFF80
3FFF80
000780
000780
000780
000780
000780
ENDCHAR
STARTCHAR AE4E
ENCODING 12656
SWIDTH 2400 0
DWIDTH 24 0
BBX 19 18 1 -3
BITMAP
000780
7FF780
7FF780
3CF780
3CF7E0
3CF7E0
79E780
FBE780
73C780
618780
000000
7F7F80
7F7F80
0F0780
0F0780
0F0780
0F0780
0F0780
ENDCHAR
STARTCHAR AE50
ENCODING 12657
SWIDTH 2400 0
DWIDTH 24 0
BBX 19 17 1 -2
BITMAP
000780
7FF780
7FF780
3CF780
3CF7E0
3CF7E0
39E780
79E780
F7C780
638780
010780
000780
3C0000
3C0000
3C0000
3FFFC0
1FFFC0
ENDCHAR
STARTCHAR AE54
ENCODING 12658
SWIDTH 2400 0
DWIDTH 24 0
BBX 19 17 1 -2
BITMAP
000780
7FF780
7FF780
3CF780
3CF7E0
3CE7E0
FBE780
73C780
618780
000000
3FFF00
3FFF00
3FFF00
3FFF00
3C0000
3FFF80
3FFF80
ENDCHAR
STARTCHAR AE56
ENCODING 12659
SWIDTH 2400 0
DWIDTH 24 0
BBX 19 17 1 -2
BITMAP
000780
7FF780
7FF780
3CF780
3CF7E0
7DE7E0
FBE780
73C780
018780
000000
7FFF80
7FFF80
7FF780
7FF780
70F780
7FFF80
7FFF80
ENDCHAR
ENDFONT
